<?xml version="1.0" encoding="UTF-8" standalone="no"?>
<!DOCTYPE svg PUBLIC "-//W3C//DTD SVG 1.1//EN"
 "http://www.w3.org/Graphics/SVG/1.1/DTD/svg11.dtd">
<!-- Generated by graphviz version 2.40.1 (20161225.0304)
 -->
<!-- Title: G Pages: 1 -->
<svg width="820pt" height="279pt"
 viewBox="0.00 0.00 820.31 279.00" xmlns="http://www.w3.org/2000/svg" xmlns:xlink="http://www.w3.org/1999/xlink">
<g id="graph0" class="graph" transform="scale(1 1) rotate(0) translate(4 275)">
<title>G</title>
<polygon fill="#ffffff" stroke="transparent" points="-4,4 -4,-275 816.3132,-275 816.3132,4 -4,4"/>
<g id="clust1" class="cluster">
<title>cluster_php</title>
<polygon fill="#d3d3d3" stroke="#d3d3d3" points="124.0825,-8 124.0825,-227 522.0825,-227 522.0825,-8 124.0825,-8"/>
<text text-anchor="middle" x="323.0825" y="-211.8" font-family="Arial Bold" font-size="14.00" fill="#000000">php</text>
</g>
<g id="clust2" class="cluster">
<title>cluster_postgresql</title>
<polygon fill="#d3d3d3" stroke="#d3d3d3" points="651.0825,-80 651.0825,-227 763.0825,-227 763.0825,-80 651.0825,-80"/>
<text text-anchor="middle" x="707.0825" y="-211.8" font-family="Arial Bold" font-size="14.00" fill="#000000">postgresql</text>
</g>
<!-- base&#45;runtime -->
<g id="node1" class="node">
<title>base&#45;runtime</title>
<polygon fill="none" stroke="#000000" points="253.0825,-271 165.0825,-271 165.0825,-235 253.0825,-235 253.0825,-271"/>
<text text-anchor="middle" x="209.0825" y="-249.3" font-family="Times,serif" font-size="14.00" fill="#000000">base&#45;runtime</text>
</g>
<!-- httpd -->
<g id="node4" class="node">
<title>httpd</title>
<text text-anchor="middle" x="391.0825" y="-102.3" font-family="Times,serif" font-size="14.00" fill="#000000">httpd</text>
</g>
<!-- base&#45;runtime&#45;&gt;httpd -->
<g id="edge15" class="edge">
<title>base&#45;runtime&#45;&gt;httpd</title>
<path fill="none" stroke="#000000" d="M164.9068,-249.0819C135.0822,-245.4156 99.4983,-238.6951 90.0825,-227 71.4084,-203.8053 70.4948,-182.4285 90.0825,-160 127.3426,-117.3359 282.7261,-139.2166 354.0608,-123.3494"/>
<polygon fill="#000000" stroke="#000000" points="355.1853,-126.6721 363.9517,-120.7223 353.3883,-119.9067 355.1853,-126.6721"/>
</g>
<!-- php -->
<g id="node5" class="node">
<title>php</title>
<ellipse fill="none" stroke="#000000" cx="391.0825" cy="-34" rx="27" ry="18"/>
<text text-anchor="middle" x="391.0825" y="-30.3" font-family="Times,serif" font-size="14.00" fill="#000000">php</text>
</g>
<!-- base&#45;runtime&#45;&gt;php -->
<g id="edge10" class="edge">
<title>base&#45;runtime&#45;&gt;php</title>
<path fill="none" stroke="#000000" d="M253.3035,-237.0655C256.5843,-236.2522 259.8676,-235.5471 263.0825,-235 277.3513,-232.5719 773.9268,-237.3129 784.0825,-227 830.2297,-180.1388 815.5808,-124.4234 767.0825,-80 742.3298,-57.3271 517.9059,-41.5605 428.0399,-36.1053"/>
<polygon fill="#000000" stroke="#000000" points="428.2102,-32.6093 418.0191,-35.506 427.7923,-39.5968 428.2102,-32.6093"/>
</g>
<!-- httpd&#45;filesystem -->
<g id="node6" class="node">
<title>httpd&#45;filesystem</title>
<text text-anchor="middle" x="185.0825" y="-102.3" font-family="Times,serif" font-size="14.00" fill="#000000">httpd&#45;filesystem</text>
</g>
<!-- base&#45;runtime&#45;&gt;httpd&#45;filesystem -->
<g id="edge13" class="edge">
<title>base&#45;runtime&#45;&gt;httpd&#45;filesystem</title>
<path fill="none" stroke="#000000" d="M164.8908,-250.1467C110.4372,-246.1723 23.8691,-238.1781 14.0825,-227 -5.5328,-204.5957 -3.52,-184.0181 14.0825,-160 27.2718,-142.0037 79.2985,-127.2313 122.5376,-117.7142"/>
<polygon fill="#000000" stroke="#000000" points="123.4155,-121.1057 132.4595,-115.5869 121.9479,-114.2612 123.4155,-121.1057"/>
</g>
<!-- php&#45;cli -->
<g id="node7" class="node">
<title>php&#45;cli</title>
<text text-anchor="middle" x="464.0825" y="-102.3" font-family="Times,serif" font-size="14.00" fill="#000000">php&#45;cli</text>
</g>
<!-- base&#45;runtime&#45;&gt;php&#45;cli -->
<g id="edge11" class="edge">
<title>base&#45;runtime&#45;&gt;php&#45;cli</title>
<path fill="none" stroke="#000000" d="M164.8917,-244.6946C146.6384,-240.2833 128.4751,-234.264 123.0825,-227 105.3327,-203.0906 103.3032,-182.2598 123.0825,-160 166.4151,-111.2332 346.1788,-140.5014 426.4551,-123.2465"/>
<polygon fill="#000000" stroke="#000000" points="427.3638,-126.6268 436.1909,-120.7674 425.6365,-119.8433 427.3638,-126.6268"/>
</g>
<!-- php&#45;common -->
<g id="node8" class="node">
<title>php&#45;common</title>
<text text-anchor="middle" x="301.0825" y="-102.3" font-family="Times,serif" font-size="14.00" fill="#000000">php&#45;common</text>
</g>
<!-- base&#45;runtime&#45;&gt;php&#45;common -->
<g id="edge12" class="edge">
<title>base&#45;runtime&#45;&gt;php&#45;common</title>
<path fill="none" stroke="#000000" d="M164.8603,-248.5988C121.0226,-243.7794 59.3641,-235.5867 52.0825,-227 32.8232,-204.2889 33.0334,-182.8877 52.0825,-160 106.4787,-94.6422 157.9884,-142.3604 246.0699,-123.8795"/>
<polygon fill="#000000" stroke="#000000" points="246.909,-127.2778 255.8458,-121.587 245.3108,-120.4627 246.909,-127.2778"/>
</g>
<!-- apr -->
<g id="node9" class="node">
<title>apr</title>
<text text-anchor="middle" x="315.0825" y="-174.3" font-family="Times,serif" font-size="14.00" fill="#000000">apr</text>
</g>
<!-- base&#45;runtime&#45;&gt;apr -->
<g id="edge14" class="edge">
<title>base&#45;runtime&#45;&gt;apr</title>
<path fill="none" stroke="#000000" d="M253.2645,-237.6995C265.6947,-233.1716 276.5471,-228.9131 279.0825,-227 287.0034,-221.0234 293.9611,-212.8294 299.5951,-204.8521"/>
<polygon fill="#000000" stroke="#000000" points="302.588,-206.6712 305.1719,-196.3962 296.7445,-202.8172 302.588,-206.6712"/>
</g>
<!-- postgresql&#45;libs -->
<g id="node14" class="node">
<title>postgresql&#45;libs</title>
<text text-anchor="middle" x="707.0825" y="-174.3" font-family="Times,serif" font-size="14.00" fill="#000000">postgresql&#45;libs</text>
</g>
<!-- base&#45;runtime&#45;&gt;postgresql&#45;libs -->
<g id="edge19" class="edge">
<title>base&#45;runtime&#45;&gt;postgresql&#45;libs</title>
<path fill="none" stroke="#000000" d="M253.3069,-237.085C256.5868,-236.2671 259.8691,-235.5556 263.0825,-235 305.4629,-227.6723 609.9123,-242.3669 650.0825,-227 663.1621,-221.9965 675.2921,-212.5775 684.9702,-203.3242"/>
<polygon fill="#000000" stroke="#000000" points="687.6411,-205.6007 692.1776,-196.0262 682.6605,-200.682 687.6411,-205.6007"/>
</g>
<!-- postgresql -->
<g id="node15" class="node">
<title>postgresql</title>
<ellipse fill="none" stroke="#000000" cx="707.0825" cy="-106" rx="46.5926" ry="18"/>
<text text-anchor="middle" x="707.0825" y="-102.3" font-family="Times,serif" font-size="14.00" fill="#000000">postgresql</text>
</g>
<!-- base&#45;runtime&#45;&gt;postgresql -->
<g id="edge18" class="edge">
<title>base&#45;runtime&#45;&gt;postgresql</title>
<path fill="none" stroke="#000000" d="M253.3039,-237.0678C256.5846,-236.2539 259.8678,-235.5481 263.0825,-235 276.803,-232.6609 754.3196,-236.9201 764.0825,-227 784.9698,-205.7765 775.8486,-187.3546 764.0825,-160 758.7699,-147.649 749.0897,-136.7993 739.1961,-128.1275"/>
<polygon fill="#000000" stroke="#000000" points="741.2483,-125.2841 731.2952,-121.6527 736.8114,-130.6983 741.2483,-125.2841"/>
</g>
<!-- common&#45;build&#45;dependencies -->
<g id="node2" class="node">
<title>common&#45;build&#45;dependencies</title>
<polygon fill="none" stroke="#000000" points="446.5825,-271 271.5825,-271 271.5825,-235 446.5825,-235 446.5825,-271"/>
<text text-anchor="middle" x="359.0825" y="-249.3" font-family="Times,serif" font-size="14.00" fill="#000000">common&#45;build&#45;dependencies</text>
</g>
<!-- shared&#45;userspace -->
<g id="node3" class="node">
<title>shared&#45;userspace</title>
<polygon fill="none" stroke="#000000" points="640.5825,-196 531.5825,-196 531.5825,-160 640.5825,-160 640.5825,-196"/>
<text text-anchor="middle" x="586.0825" y="-174.3" font-family="Times,serif" font-size="14.00" fill="#000000">shared&#45;userspace</text>
</g>
<!-- shared&#45;userspace&#45;&gt;php&#45;cli -->
<g id="edge16" class="edge">
<title>shared&#45;userspace&#45;&gt;php&#45;cli</title>
<path fill="none" stroke="#000000" d="M555.2968,-159.8314C538.7062,-150.0402 518.1263,-137.8947 500.7158,-127.6196"/>
<polygon fill="#000000" stroke="#000000" points="502.3289,-124.5076 491.938,-122.4393 498.7711,-130.5361 502.3289,-124.5076"/>
</g>
<!-- httpd&#45;&gt;php -->
<g id="edge1" class="edge">
<title>httpd&#45;&gt;php</title>
<path fill="none" stroke="#000000" d="M391.0825,-87.8314C391.0825,-80.131 391.0825,-70.9743 391.0825,-62.4166"/>
<polygon fill="#000000" stroke="#000000" points="394.5826,-62.4132 391.0825,-52.4133 387.5826,-62.4133 394.5826,-62.4132"/>
</g>
<!-- httpd&#45;filesystem&#45;&gt;php -->
<g id="edge2" class="edge">
<title>httpd&#45;filesystem&#45;&gt;php</title>
<path fill="none" stroke="#000000" d="M226.9062,-87.8744C233.6148,-85.137 240.5114,-82.422 247.0825,-80 283.9792,-66.4002 327.0146,-52.9621 356.3633,-44.1553"/>
<polygon fill="#000000" stroke="#000000" points="357.5576,-47.4515 366.1411,-41.2406 355.5579,-40.7432 357.5576,-47.4515"/>
</g>
<!-- php&#45;cli&#45;&gt;php -->
<g id="edge3" class="edge">
<title>php&#45;cli&#45;&gt;php</title>
<path fill="none" stroke="#000000" d="M445.6615,-87.8314C435.873,-78.1769 423.7636,-66.2334 413.4398,-56.0511"/>
<polygon fill="#000000" stroke="#000000" points="415.8743,-53.5362 406.2968,-49.0059 410.9588,-58.52 415.8743,-53.5362"/>
</g>
<!-- php&#45;common&#45;&gt;php -->
<g id="edge4" class="edge">
<title>php&#45;common&#45;&gt;php</title>
<path fill="none" stroke="#000000" d="M323.7933,-87.8314C336.6441,-77.5507 352.7394,-64.6744 365.9661,-54.0931"/>
<polygon fill="#000000" stroke="#000000" points="368.154,-56.8251 373.7762,-47.845 363.7811,-51.359 368.154,-56.8251"/>
</g>
<!-- apr&#45;&gt;httpd -->
<g id="edge5" class="edge">
<title>apr&#45;&gt;httpd</title>
<path fill="none" stroke="#000000" d="M334.2605,-159.8314C343.4413,-151.1337 354.5831,-140.5783 364.5601,-131.1265"/>
<polygon fill="#000000" stroke="#000000" points="367.0582,-133.5811 371.9106,-124.1628 362.244,-128.4995 367.0582,-133.5811"/>
</g>
<!-- apr&#45;util -->
<g id="node10" class="node">
<title>apr&#45;util</title>
<text text-anchor="middle" x="242.0825" y="-174.3" font-family="Times,serif" font-size="14.00" fill="#000000">apr&#45;util</text>
</g>
<!-- apr&#45;util&#45;&gt;httpd -->
<g id="edge6" class="edge">
<title>apr&#45;util&#45;&gt;httpd</title>
<path fill="none" stroke="#000000" d="M270.3496,-164.211C273.2965,-162.7847 276.249,-161.3603 279.0825,-160 310.1442,-145.0882 319.9649,-140.9775 354.6141,-124.1827"/>
<polygon fill="#000000" stroke="#000000" points="356.5238,-127.1461 363.9863,-119.6253 353.4625,-120.8509 356.5238,-127.1461"/>
</g>
<!-- httpd&#45;tools -->
<g id="node11" class="node">
<title>httpd&#45;tools</title>
<text text-anchor="middle" x="476.0825" y="-174.3" font-family="Times,serif" font-size="14.00" fill="#000000">httpd&#45;tools</text>
</g>
<!-- httpd&#45;tools&#45;&gt;httpd -->
<g id="edge7" class="edge">
<title>httpd&#45;tools&#45;&gt;httpd</title>
<path fill="none" stroke="#000000" d="M454.6334,-159.8314C444.2647,-151.0485 431.6596,-140.3712 420.418,-130.8489"/>
<polygon fill="#000000" stroke="#000000" points="422.4174,-127.9556 412.5247,-124.1628 417.893,-133.297 422.4174,-127.9556"/>
</g>
<!-- mailcap -->
<g id="node12" class="node">
<title>mailcap</title>
<text text-anchor="middle" x="390.0825" y="-174.3" font-family="Times,serif" font-size="14.00" fill="#000000">mailcap</text>
</g>
<!-- mailcap&#45;&gt;httpd -->
<g id="edge8" class="edge">
<title>mailcap&#45;&gt;httpd</title>
<path fill="none" stroke="#000000" d="M390.3349,-159.8314C390.4418,-152.131 390.569,-142.9743 390.6878,-134.4166"/>
<polygon fill="#000000" stroke="#000000" points="394.1875,-134.4609 390.8268,-124.4133 387.1881,-134.3637 394.1875,-134.4609"/>
</g>
<!-- php&#45;json -->
<g id="node13" class="node">
<title>php&#45;json</title>
<text text-anchor="middle" x="164.0825" y="-174.3" font-family="Times,serif" font-size="14.00" fill="#000000">php&#45;json</text>
</g>
<!-- php&#45;json&#45;&gt;php&#45;common -->
<g id="edge9" class="edge">
<title>php&#45;json&#45;&gt;php&#45;common</title>
<path fill="none" stroke="#000000" d="M196.2029,-161.1192C214.5835,-151.4593 237.8871,-139.2122 257.8572,-128.7169"/>
<polygon fill="#000000" stroke="#000000" points="259.5448,-131.784 266.7685,-124.0336 256.2882,-125.5876 259.5448,-131.784"/>
</g>
<!-- postgresql&#45;libs&#45;&gt;postgresql -->
<g id="edge17" class="edge">
<title>postgresql&#45;libs&#45;&gt;postgresql</title>
<path fill="none" stroke="#000000" d="M707.0825,-159.8314C707.0825,-152.131 707.0825,-142.9743 707.0825,-134.4166"/>
<polygon fill="#000000" stroke="#000000" points="710.5826,-134.4132 707.0825,-124.4133 703.5826,-134.4133 710.5826,-134.4132"/>
</g>
</g>
</svg>
