<?xml version="1.0" encoding="UTF-8" standalone="no"?>
<!DOCTYPE svg PUBLIC "-//W3C//DTD SVG 1.1//EN"
 "http://www.w3.org/Graphics/SVG/1.1/DTD/svg11.dtd">
<!-- Generated by graphviz version 2.40.1 (20161225.0304)
 -->
<!-- Title: G Pages: 1 -->
<svg width="1933pt" height="408pt"
 viewBox="0.00 0.00 1932.50 408.00" xmlns="http://www.w3.org/2000/svg" xmlns:xlink="http://www.w3.org/1999/xlink">
<g id="graph0" class="graph" transform="scale(1 1) rotate(0) translate(4 404)">
<title>G</title>
<polygon fill="#ffffff" stroke="transparent" points="-4,4 -4,-404 1928.5,-404 1928.5,4 -4,4"/>
<!-- base&#45;runtime -->
<g id="node1" class="node">
<title>base&#45;runtime</title>
<polygon fill="none" stroke="#ff0000" points="984,-328 896,-328 896,-290 984,-290 984,-328"/>
<text text-anchor="middle" x="940" y="-312.8" font-family="Times,serif" font-size="14.00" fill="#000000">base&#45;runtime</text>
<text text-anchor="middle" x="940" y="-297.8" font-family="Times,serif" font-size="14.00" fill="#000000">iproute</text>
</g>
<!-- shared&#45;userspace -->
<g id="node3" class="node">
<title>shared&#45;userspace</title>
<polygon fill="none" stroke="#ff0000" points="624.5,-182 515.5,-182 515.5,-144 624.5,-144 624.5,-182"/>
<text text-anchor="middle" x="570" y="-166.8" font-family="Times,serif" font-size="14.00" fill="#000000">shared&#45;userspace</text>
<text text-anchor="middle" x="570" y="-151.8" font-family="Times,serif" font-size="14.00" fill="#000000">less</text>
</g>
<!-- base&#45;runtime&#45;&gt;shared&#45;userspace -->
<g id="edge7" class="edge">
<title>base&#45;runtime&#45;&gt;shared&#45;userspace</title>
<path fill="none" stroke="#000000" d="M895.9231,-302.1685C852.6461,-293.9158 785.8267,-278.0694 732,-254 704.9894,-241.9218 701.8413,-232.4112 676,-218 656.0673,-206.8839 633.5322,-195.7986 614.3142,-186.5231"/>
<polygon fill="#000000" stroke="#000000" points="615.7009,-183.3063 605.1724,-182.1229 612.665,-189.6137 615.7009,-183.3063"/>
</g>
<!-- base&#45;runtime&#45;&gt;shared&#45;userspace -->
<g id="edge45" class="edge">
<title>base&#45;runtime&#45;&gt;shared&#45;userspace</title>
<path fill="none" stroke="#000000" d="M895.9479,-299.2761C856.5763,-290.4511 798.1005,-275.5089 750,-254 722.9894,-241.9218 719.8413,-232.4112 694,-218 673.8861,-206.7829 651.1223,-195.5971 630.5819,-186.2706"/>
<polygon fill="#000000" stroke="#000000" points="631.8756,-183.0151 621.3184,-182.1229 629.015,-189.4039 631.8756,-183.0151"/>
</g>
<!-- dateutils -->
<g id="node4" class="node">
<title>dateutils</title>
<ellipse fill="none" stroke="#000000" cx="1008" cy="-236" rx="40.0939" ry="18"/>
<text text-anchor="middle" x="1008" y="-232.3" font-family="Times,serif" font-size="14.00" fill="#000000">dateutils</text>
</g>
<!-- base&#45;runtime&#45;&gt;dateutils -->
<g id="edge1" class="edge">
<title>base&#45;runtime&#45;&gt;dateutils</title>
<path fill="none" stroke="#000000" d="M957.8662,-289.8201C966.3117,-280.7536 976.4862,-269.831 985.456,-260.2016"/>
<polygon fill="#000000" stroke="#000000" points="988.0804,-262.5193 992.3354,-252.8164 982.9583,-257.748 988.0804,-262.5193"/>
</g>
<!-- gcal -->
<g id="node5" class="node">
<title>gcal</title>
<ellipse fill="none" stroke="#000000" cx="1093" cy="-236" rx="27" ry="18"/>
<text text-anchor="middle" x="1093" y="-232.3" font-family="Times,serif" font-size="14.00" fill="#000000">gcal</text>
</g>
<!-- base&#45;runtime&#45;&gt;gcal -->
<g id="edge2" class="edge">
<title>base&#45;runtime&#45;&gt;gcal</title>
<path fill="none" stroke="#000000" d="M981.2674,-289.8978C1003.7247,-279.4279 1031.9577,-266.1444 1057,-254 1058.7447,-253.1539 1060.5342,-252.2797 1062.3383,-251.3935"/>
<polygon fill="#000000" stroke="#000000" points="1063.9315,-254.5102 1071.34,-246.9362 1060.8253,-248.2371 1063.9315,-254.5102"/>
</g>
<!-- htop -->
<g id="node6" class="node">
<title>htop</title>
<ellipse fill="none" stroke="#000000" cx="1165" cy="-236" rx="27" ry="18"/>
<text text-anchor="middle" x="1165" y="-232.3" font-family="Times,serif" font-size="14.00" fill="#000000">htop</text>
</g>
<!-- base&#45;runtime&#45;&gt;htop -->
<g id="edge3" class="edge">
<title>base&#45;runtime&#45;&gt;htop</title>
<path fill="none" stroke="#000000" d="M984.2874,-298.5257C1023.0741,-288.7857 1080.6357,-272.949 1129,-254 1130.8543,-253.2735 1132.7418,-252.4857 1134.6323,-251.6592"/>
<polygon fill="#000000" stroke="#000000" points="1136.3821,-254.7052 1143.9684,-247.3093 1133.4258,-248.3601 1136.3821,-254.7052"/>
</g>
<!-- iotop -->
<g id="node7" class="node">
<title>iotop</title>
<ellipse fill="none" stroke="#000000" cx="1353" cy="-236" rx="28.6953" ry="18"/>
<text text-anchor="middle" x="1353" y="-232.3" font-family="Times,serif" font-size="14.00" fill="#000000">iotop</text>
</g>
<!-- base&#45;runtime&#45;&gt;iotop -->
<g id="edge4" class="edge">
<title>base&#45;runtime&#45;&gt;iotop</title>
<path fill="none" stroke="#000000" d="M984.026,-306.0137C1054.1137,-300.4712 1194.9001,-286.1034 1310,-254 1313.3764,-253.0583 1316.8412,-251.9199 1320.2678,-250.6785"/>
<polygon fill="#000000" stroke="#000000" points="1321.6789,-253.8849 1329.7185,-246.9844 1319.1305,-247.3652 1321.6789,-253.8849"/>
</g>
<!-- iputils -->
<g id="node8" class="node">
<title>iputils</title>
<ellipse fill="none" stroke="#000000" cx="1432" cy="-236" rx="32.4942" ry="18"/>
<text text-anchor="middle" x="1432" y="-232.3" font-family="Times,serif" font-size="14.00" fill="#000000">iputils</text>
</g>
<!-- base&#45;runtime&#45;&gt;iputils -->
<g id="edge5" class="edge">
<title>base&#45;runtime&#45;&gt;iputils</title>
<path fill="none" stroke="#000000" d="M984.0386,-307.8775C1065.6934,-304.8686 1245.5105,-293.8773 1391,-254 1393.4273,-253.3347 1395.8963,-252.5498 1398.3578,-251.6862"/>
<polygon fill="#000000" stroke="#000000" points="1399.6565,-254.9366 1407.7094,-248.0517 1397.1207,-248.412 1399.6565,-254.9366"/>
</g>
<!-- joe -->
<g id="node9" class="node">
<title>joe</title>
<ellipse fill="none" stroke="#000000" cx="1619" cy="-236" rx="27" ry="18"/>
<text text-anchor="middle" x="1619" y="-232.3" font-family="Times,serif" font-size="14.00" fill="#000000">joe</text>
</g>
<!-- base&#45;runtime&#45;&gt;joe -->
<g id="edge6" class="edge">
<title>base&#45;runtime&#45;&gt;joe</title>
<path fill="none" stroke="#000000" d="M984.3035,-307.3818C1110.4796,-302.4302 1469.8973,-285.8493 1583,-254 1585.1313,-253.3998 1587.2866,-252.6724 1589.4272,-251.8585"/>
<polygon fill="#000000" stroke="#000000" points="1590.8292,-255.0656 1598.5988,-247.8625 1588.0331,-248.6482 1590.8292,-255.0656"/>
</g>
<!-- vim&#45;minimal -->
<g id="node10" class="node">
<title>vim&#45;minimal</title>
<ellipse fill="none" stroke="#000000" cx="1722" cy="-236" rx="57.6901" ry="18"/>
<text text-anchor="middle" x="1722" y="-232.3" font-family="Times,serif" font-size="14.00" fill="#000000">vim&#45;minimal</text>
</g>
<!-- base&#45;runtime&#45;&gt;vim&#45;minimal -->
<g id="edge8" class="edge">
<title>base&#45;runtime&#45;&gt;vim&#45;minimal</title>
<path fill="none" stroke="#000000" d="M984.2848,-308.4434C1097.0241,-306.4116 1403.747,-297.0299 1655,-254 1659.9916,-253.1451 1665.151,-252.0855 1670.2883,-250.9114"/>
<polygon fill="#000000" stroke="#000000" points="1671.1961,-254.2928 1680.0906,-248.5363 1669.5476,-247.4897 1671.1961,-254.2928"/>
</g>
<!-- emacs&#45;common -->
<g id="node11" class="node">
<title>emacs&#45;common</title>
<text text-anchor="middle" x="112" y="-232.3" font-family="Times,serif" font-size="14.00" fill="#000000">emacs&#45;common</text>
</g>
<!-- base&#45;runtime&#45;&gt;emacs&#45;common -->
<g id="edge12" class="edge">
<title>base&#45;runtime&#45;&gt;emacs&#45;common</title>
<path fill="none" stroke="#000000" d="M895.6935,-307.0791C757.1052,-300.8772 332.1905,-280.3487 174.0877,-253.9151"/>
<polygon fill="#000000" stroke="#000000" points="174.5184,-250.4374 164.0655,-252.1655 173.3146,-257.3331 174.5184,-250.4374"/>
</g>
<!-- emacs&#45;nox -->
<g id="node14" class="node">
<title>emacs&#45;nox</title>
<ellipse fill="none" stroke="#000000" cx="300" cy="-90" rx="49.2915" ry="18"/>
<text text-anchor="middle" x="300" y="-86.3" font-family="Times,serif" font-size="14.00" fill="#000000">emacs&#45;nox</text>
</g>
<!-- base&#45;runtime&#45;&gt;emacs&#45;nox -->
<g id="edge13" class="edge">
<title>base&#45;runtime&#45;&gt;emacs&#45;nox</title>
<path fill="none" stroke="#000000" d="M895.9338,-307.3151C769.5463,-302.1291 412.1697,-284.862 370,-254 347.0365,-237.1941 320.9547,-159.9489 308.0759,-117.7382"/>
<polygon fill="#000000" stroke="#000000" points="311.3989,-116.6345 305.1686,-108.0651 304.6951,-118.6494 311.3989,-116.6345"/>
</g>
<!-- nano -->
<g id="node15" class="node">
<title>nano</title>
<ellipse fill="none" stroke="#000000" cx="424" cy="-236" rx="27.8951" ry="18"/>
<text text-anchor="middle" x="424" y="-232.3" font-family="Times,serif" font-size="14.00" fill="#000000">nano</text>
</g>
<!-- base&#45;runtime&#45;&gt;nano -->
<g id="edge15" class="edge">
<title>base&#45;runtime&#45;&gt;nano</title>
<path fill="none" stroke="#000000" d="M895.7519,-308.1103C810.961,-305.4802 620.3061,-295.0825 466,-254 462.6006,-253.0949 459.1187,-251.9633 455.6848,-250.7108"/>
<polygon fill="#000000" stroke="#000000" points="456.8284,-247.3989 446.2431,-246.9486 454.2372,-253.9017 456.8284,-247.3989"/>
</g>
<!-- nmap&#45;ncat -->
<g id="node16" class="node">
<title>nmap&#45;ncat</title>
<text text-anchor="middle" x="460" y="-159.3" font-family="Times,serif" font-size="14.00" fill="#000000">nmap&#45;ncat</text>
</g>
<!-- base&#45;runtime&#45;&gt;nmap&#45;ncat -->
<g id="edge27" class="edge">
<title>base&#45;runtime&#45;&gt;nmap&#45;ncat</title>
<path fill="none" stroke="#000000" d="M895.9234,-305.9868C790.5337,-298.4336 530.3672,-277.5985 499,-254 479.1423,-239.0604 469.2751,-211.9718 464.4476,-191.2211"/>
<polygon fill="#000000" stroke="#000000" points="467.8566,-190.4222 462.4085,-181.3355 461.0009,-191.8364 467.8566,-190.4222"/>
</g>
<!-- python2&#45;libs -->
<g id="node17" class="node">
<title>python2&#45;libs</title>
<text text-anchor="middle" x="793" y="-232.3" font-family="Times,serif" font-size="14.00" fill="#000000">python2&#45;libs</text>
</g>
<!-- base&#45;runtime&#45;&gt;python2&#45;libs -->
<g id="edge24" class="edge">
<title>base&#45;runtime&#45;&gt;python2&#45;libs</title>
<path fill="none" stroke="#000000" d="M895.7554,-290.0107C875.6352,-280.4557 852.0691,-268.8025 832.5448,-258.7696"/>
<polygon fill="#000000" stroke="#000000" points="834.092,-255.6293 823.6024,-254.1395 830.8734,-261.8455 834.092,-255.6293"/>
</g>
<!-- base&#45;runtime&#45;&gt;python2&#45;libs -->
<g id="edge39" class="edge">
<title>base&#45;runtime&#45;&gt;python2&#45;libs</title>
<path fill="none" stroke="#000000" d="M907.4007,-289.8201C888.8607,-280.179 865.3056,-268.4392 844.3611,-258.3872"/>
<polygon fill="#000000" stroke="#000000" points="845.7919,-255.192 835.259,-254.0479 842.7795,-261.5107 845.7919,-255.192"/>
</g>
<!-- nmap -->
<g id="node24" class="node">
<title>nmap</title>
<ellipse fill="none" stroke="#000000" cx="460" cy="-90" rx="30.5947" ry="18"/>
<text text-anchor="middle" x="460" y="-86.3" font-family="Times,serif" font-size="14.00" fill="#000000">nmap</text>
</g>
<!-- base&#45;runtime&#45;&gt;nmap -->
<g id="edge25" class="edge">
<title>base&#45;runtime&#45;&gt;nmap</title>
<path fill="none" stroke="#000000" d="M895.698,-307.9353C770.505,-304.4728 420.9576,-291.5025 387,-254 348.8827,-211.9036 402.0139,-146.6447 435.8057,-112.5251"/>
<polygon fill="#000000" stroke="#000000" points="438.4285,-114.8543 443.0931,-105.3416 433.5144,-109.8692 438.4285,-114.8543"/>
</g>
<!-- librsync -->
<g id="node25" class="node">
<title>librsync</title>
<text text-anchor="middle" x="838" y="-159.3" font-family="Times,serif" font-size="14.00" fill="#000000">librsync</text>
</g>
<!-- base&#45;runtime&#45;&gt;librsync -->
<g id="edge40" class="edge">
<title>base&#45;runtime&#45;&gt;librsync</title>
<path fill="none" stroke="#000000" d="M926.6653,-289.913C908.754,-264.2753 876.8385,-218.5923 856.5804,-189.5955"/>
<polygon fill="#000000" stroke="#000000" points="859.2924,-187.3659 850.6961,-181.1728 853.554,-191.3749 859.2924,-187.3659"/>
</g>
<!-- pylibacl -->
<g id="node26" class="node">
<title>pylibacl</title>
<text text-anchor="middle" x="916" y="-159.3" font-family="Times,serif" font-size="14.00" fill="#000000">pylibacl</text>
</g>
<!-- base&#45;runtime&#45;&gt;pylibacl -->
<g id="edge38" class="edge">
<title>base&#45;runtime&#45;&gt;pylibacl</title>
<path fill="none" stroke="#000000" d="M934.4104,-289.8001C931.5323,-279.3016 928.1796,-266.0219 926,-254 922.2255,-233.1809 919.6724,-209.4062 918.0911,-191.3798"/>
<polygon fill="#000000" stroke="#000000" points="921.5646,-190.9134 917.2502,-181.2368 914.5885,-191.4918 921.5646,-190.9134"/>
</g>
<!-- pyxattr -->
<g id="node27" class="node">
<title>pyxattr</title>
<text text-anchor="middle" x="992" y="-159.3" font-family="Times,serif" font-size="14.00" fill="#000000">pyxattr</text>
</g>
<!-- base&#45;runtime&#45;&gt;pyxattr -->
<g id="edge42" class="edge">
<title>base&#45;runtime&#45;&gt;pyxattr</title>
<path fill="none" stroke="#000000" d="M942.0873,-289.9983C944.5818,-271.2124 949.6456,-241.8958 959,-218 962.796,-208.3031 968.2222,-198.3514 973.5811,-189.6251"/>
<polygon fill="#000000" stroke="#000000" points="976.6338,-191.3478 979.0701,-181.0369 970.7356,-187.578 976.6338,-191.3478"/>
</g>
<!-- rdiff&#45;backup -->
<g id="node28" class="node">
<title>rdiff&#45;backup</title>
<ellipse fill="none" stroke="#000000" cx="877" cy="-90" rx="54.6905" ry="18"/>
<text text-anchor="middle" x="877" y="-86.3" font-family="Times,serif" font-size="14.00" fill="#000000">rdiff&#45;backup</text>
</g>
<!-- base&#45;runtime&#45;&gt;rdiff&#45;backup -->
<g id="edge41" class="edge">
<title>base&#45;runtime&#45;&gt;rdiff&#45;backup</title>
<path fill="none" stroke="#000000" d="M984.2281,-306.2254C1051.4038,-300.9857 1174.1965,-287.0404 1201,-254 1211.08,-241.5745 1209.8125,-231.3544 1201,-218 1170.19,-171.3109 1014.7379,-125.2635 930.8581,-103.3077"/>
<polygon fill="#000000" stroke="#000000" points="931.5552,-99.8728 920.9968,-100.7512 929.7984,-106.6488 931.5552,-99.8728"/>
</g>
<!-- screen -->
<g id="node29" class="node">
<title>screen</title>
<ellipse fill="none" stroke="#000000" cx="643" cy="-236" rx="33.2948" ry="18"/>
<text text-anchor="middle" x="643" y="-232.3" font-family="Times,serif" font-size="14.00" fill="#000000">screen</text>
</g>
<!-- base&#45;runtime&#45;&gt;screen -->
<g id="edge44" class="edge">
<title>base&#45;runtime&#45;&gt;screen</title>
<path fill="none" stroke="#000000" d="M895.686,-301.3214C845.3124,-292.1169 760.8797,-275.2401 690,-254 686.4428,-252.934 682.7713,-251.7259 679.1215,-250.4522"/>
<polygon fill="#000000" stroke="#000000" points="680.1984,-247.1194 669.6045,-246.98 677.7992,-253.6955 680.1984,-247.1194"/>
</g>
<!-- tmux -->
<g id="node30" class="node">
<title>tmux</title>
<ellipse fill="none" stroke="#000000" cx="1119" cy="-90" rx="29.4969" ry="18"/>
<text text-anchor="middle" x="1119" y="-86.3" font-family="Times,serif" font-size="14.00" fill="#000000">tmux</text>
</g>
<!-- base&#45;runtime&#45;&gt;tmux -->
<g id="edge46" class="edge">
<title>base&#45;runtime&#45;&gt;tmux</title>
<path fill="none" stroke="#000000" d="M984.0603,-306.9031C1055.0506,-302.4996 1189.7638,-289.5623 1219,-254 1258.2292,-206.2825 1188.3291,-141.7537 1146.6892,-109.7263"/>
<polygon fill="#000000" stroke="#000000" points="1148.6251,-106.8028 1138.5304,-103.5858 1144.4156,-112.3957 1148.6251,-106.8028"/>
</g>
<!-- wireshark&#45;cli -->
<g id="node31" class="node">
<title>wireshark&#45;cli</title>
<text text-anchor="middle" x="1555" y="-86.3" font-family="Times,serif" font-size="14.00" fill="#000000">wireshark&#45;cli</text>
</g>
<!-- base&#45;runtime&#45;&gt;wireshark&#45;cli -->
<g id="edge56" class="edge">
<title>base&#45;runtime&#45;&gt;wireshark&#45;cli</title>
<path fill="none" stroke="#000000" d="M984.1097,-305.0172C1043.3714,-298.7434 1151.3776,-284.0439 1239,-254 1267.2325,-244.3197 1432.7457,-155.8898 1512.3155,-113.0518"/>
<polygon fill="#000000" stroke="#000000" points="1514.4342,-115.886 1521.5781,-108.062 1511.1143,-109.7234 1514.4342,-115.886"/>
</g>
<!-- libsmi -->
<g id="node34" class="node">
<title>libsmi</title>
<text text-anchor="middle" x="1519" y="-159.3" font-family="Times,serif" font-size="14.00" fill="#000000">libsmi</text>
</g>
<!-- base&#45;runtime&#45;&gt;libsmi -->
<g id="edge55" class="edge">
<title>base&#45;runtime&#45;&gt;libsmi</title>
<path fill="none" stroke="#000000" d="M984.1147,-306.8615C1104.6202,-300.6852 1433.0563,-281.4911 1473,-254 1494.304,-239.3376 1506.2735,-211.7739 1512.6244,-190.809"/>
<polygon fill="#000000" stroke="#000000" points="1516.0081,-191.7043 1515.307,-181.1327 1509.2626,-189.8342 1516.0081,-191.7043"/>
</g>
<!-- wget -->
<g id="node36" class="node">
<title>wget</title>
<text text-anchor="middle" x="1547" y="-232.3" font-family="Times,serif" font-size="14.00" fill="#000000">wget</text>
</g>
<!-- base&#45;runtime&#45;&gt;wget -->
<g id="edge54" class="edge">
<title>base&#45;runtime&#45;&gt;wget</title>
<path fill="none" stroke="#000000" d="M984.2381,-306.5133C1099.5785,-299.741 1407.3681,-279.7403 1506,-254 1507.2693,-253.6687 1508.5495,-253.3029 1509.8335,-252.9086"/>
<polygon fill="#000000" stroke="#000000" points="1511.3859,-256.0715 1519.6374,-249.426 1509.0427,-249.4753 1511.3859,-256.0715"/>
</g>
<!-- common&#45;build&#45;dependencies -->
<g id="node2" class="node">
<title>common&#45;build&#45;dependencies</title>
<polygon fill="none" stroke="#000000" points="625.5,-400 450.5,-400 450.5,-364 625.5,-364 625.5,-400"/>
<text text-anchor="middle" x="538" y="-378.3" font-family="Times,serif" font-size="14.00" fill="#000000">common&#45;build&#45;dependencies</text>
</g>
<!-- shared&#45;userspace&#45;&gt;emacs&#45;nox -->
<g id="edge14" class="edge">
<title>shared&#45;userspace&#45;&gt;emacs&#45;nox</title>
<path fill="none" stroke="#000000" d="M515.2208,-146.6112C512.1041,-145.7181 509.014,-144.8422 506,-144 453.2021,-129.2468 392.4583,-113.4683 350.6852,-102.8014"/>
<polygon fill="#000000" stroke="#000000" points="351.309,-99.3486 340.7543,-100.2706 349.5802,-106.1318 351.309,-99.3486"/>
</g>
<!-- shared&#45;userspace&#45;&gt;nmap -->
<g id="edge26" class="edge">
<title>shared&#45;userspace&#45;&gt;nmap</title>
<path fill="none" stroke="#000000" d="M541.0988,-143.8201C524.9862,-133.1272 504.9834,-119.8526 488.8751,-109.1626"/>
<polygon fill="#000000" stroke="#000000" points="490.6436,-106.1356 480.3761,-103.5223 486.7729,-111.9681 490.6436,-106.1356"/>
</g>
<!-- shared&#45;userspace&#45;&gt;rdiff&#45;backup -->
<g id="edge43" class="edge">
<title>shared&#45;userspace&#45;&gt;rdiff&#45;backup</title>
<path fill="none" stroke="#000000" d="M624.5317,-150.0332C680.3312,-136.7649 766.5474,-116.264 822.3792,-102.988"/>
<polygon fill="#000000" stroke="#000000" points="823.5174,-106.315 832.4365,-100.5965 821.898,-99.5049 823.5174,-106.315"/>
</g>
<!-- shared&#45;userspace&#45;&gt;tmux -->
<g id="edge47" class="edge">
<title>shared&#45;userspace&#45;&gt;tmux</title>
<path fill="none" stroke="#000000" d="M624.6473,-155.7336C735.4882,-140.9952 984.3477,-107.9046 1080.2725,-95.1496"/>
<polygon fill="#000000" stroke="#000000" points="1080.9489,-98.5905 1090.4003,-93.8029 1080.0262,-91.6516 1080.9489,-98.5905"/>
</g>
<!-- emacs&#45;common&#45;&gt;emacs&#45;nox -->
<g id="edge9" class="edge">
<title>emacs&#45;common&#45;&gt;emacs&#45;nox</title>
<path fill="none" stroke="#000000" d="M134.2779,-217.7655C157.301,-199.0188 194.3751,-169.1024 227,-144 240.8361,-133.3542 256.3621,-121.8138 269.5269,-112.1449"/>
<polygon fill="#000000" stroke="#000000" points="271.7955,-114.8217 277.7955,-106.0895 267.6596,-109.1742 271.7955,-114.8217"/>
</g>
<!-- gpm&#45;libs -->
<g id="node12" class="node">
<title>gpm&#45;libs</title>
<text text-anchor="middle" x="269" y="-159.3" font-family="Times,serif" font-size="14.00" fill="#000000">gpm&#45;libs</text>
</g>
<!-- gpm&#45;libs&#45;&gt;emacs&#45;nox -->
<g id="edge10" class="edge">
<title>gpm&#45;libs&#45;&gt;emacs&#45;nox</title>
<path fill="none" stroke="#000000" d="M276.6629,-144.9551C280.2292,-136.5569 284.5467,-126.39 288.4935,-117.096"/>
<polygon fill="#000000" stroke="#000000" points="291.738,-118.4099 292.4252,-107.8374 285.2949,-115.6737 291.738,-118.4099"/>
</g>
<!-- liblockfile -->
<g id="node13" class="node">
<title>liblockfile</title>
<text text-anchor="middle" x="36" y="-305.3" font-family="Times,serif" font-size="14.00" fill="#000000">liblockfile</text>
</g>
<!-- liblockfile&#45;&gt;emacs&#45;common -->
<g id="edge11" class="edge">
<title>liblockfile&#45;&gt;emacs&#45;common</title>
<path fill="none" stroke="#000000" d="M54.7865,-290.9551C64.1039,-282.0054 75.5127,-271.047 85.6843,-261.2769"/>
<polygon fill="#000000" stroke="#000000" points="88.3788,-263.5419 93.1662,-254.0904 83.5296,-258.4935 88.3788,-263.5419"/>
</g>
<!-- nmap&#45;ncat&#45;&gt;nmap -->
<g id="edge16" class="edge">
<title>nmap&#45;ncat&#45;&gt;nmap</title>
<path fill="none" stroke="#000000" d="M460,-144.9551C460,-136.8828 460,-127.1764 460,-118.1817"/>
<polygon fill="#000000" stroke="#000000" points="463.5001,-118.0903 460,-108.0904 456.5001,-118.0904 463.5001,-118.0903"/>
</g>
<!-- python2&#45;libs&#45;&gt;shared&#45;userspace -->
<g id="edge17" class="edge">
<title>python2&#45;libs&#45;&gt;shared&#45;userspace</title>
<path fill="none" stroke="#000000" d="M750.2672,-222.0112C717.5287,-211.2941 671.8134,-196.3291 634.6125,-184.1512"/>
<polygon fill="#000000" stroke="#000000" points="635.4514,-180.7431 624.8588,-180.9582 633.2736,-187.3957 635.4514,-180.7431"/>
</g>
<!-- python2&#45;libs&#45;&gt;rdiff&#45;backup -->
<g id="edge30" class="edge">
<title>python2&#45;libs&#45;&gt;rdiff&#45;backup</title>
<path fill="none" stroke="#000000" d="M789.7567,-217.745C787.2417,-198.1751 786.0666,-166.8428 799,-144 807.1878,-129.5389 821.038,-118.0885 834.8153,-109.5221"/>
<polygon fill="#000000" stroke="#000000" points="836.9076,-112.3545 843.7982,-104.3065 833.3928,-106.3009 836.9076,-112.3545"/>
</g>
<!-- python2&#45;pip -->
<g id="node18" class="node">
<title>python2&#45;pip</title>
<text text-anchor="middle" x="550" y="-232.3" font-family="Times,serif" font-size="14.00" fill="#000000">python2&#45;pip</text>
</g>
<!-- python2&#45;pip&#45;&gt;shared&#45;userspace -->
<g id="edge18" class="edge">
<title>python2&#45;pip&#45;&gt;shared&#45;userspace</title>
<path fill="none" stroke="#000000" d="M549.0281,-217.9551C550.4136,-210.0405 552.7805,-200.5549 555.5229,-191.7096"/>
<polygon fill="#000000" stroke="#000000" points="558.8801,-192.7068 558.7464,-182.1128 552.2444,-190.4779 558.8801,-192.7068"/>
</g>
<!-- python2&#45;pip&#45;&gt;shared&#45;userspace -->
<g id="edge32" class="edge">
<title>python2&#45;pip&#45;&gt;shared&#45;userspace</title>
<path fill="none" stroke="#000000" d="M560.8595,-217.9551C563.779,-210.1256 566.5806,-200.7587 568.6777,-191.9952"/>
<polygon fill="#000000" stroke="#000000" points="572.1225,-192.6224 570.7808,-182.1128 565.2758,-191.1652 572.1225,-192.6224"/>
</g>
<!-- python2&#45;setuptools -->
<g id="node19" class="node">
<title>python2&#45;setuptools</title>
<text text-anchor="middle" x="242" y="-232.3" font-family="Times,serif" font-size="14.00" fill="#000000">python2&#45;setuptools</text>
</g>
<!-- python2&#45;setuptools&#45;&gt;shared&#45;userspace -->
<g id="edge19" class="edge">
<title>python2&#45;setuptools&#45;&gt;shared&#45;userspace</title>
<path fill="none" stroke="#000000" d="M302.0422,-223.8921C353.9283,-213.8633 430.6269,-198.6071 497,-182 499.7934,-181.3011 502.6473,-180.5589 505.532,-179.7883"/>
<polygon fill="#000000" stroke="#000000" points="506.6948,-183.0988 515.415,-177.0814 504.8456,-176.3475 506.6948,-183.0988"/>
</g>
<!-- python2&#45;setuptools&#45;&gt;shared&#45;userspace -->
<g id="edge33" class="edge">
<title>python2&#45;setuptools&#45;&gt;shared&#45;userspace</title>
<path fill="none" stroke="#000000" d="M302.2234,-226.4863C355.4428,-217.06 435.0652,-201.5812 505.4683,-184.3569"/>
<polygon fill="#000000" stroke="#000000" points="506.4708,-187.7145 515.3376,-181.9154 504.7897,-180.9194 506.4708,-187.7145"/>
</g>
<!-- python2&#45;appdirs -->
<g id="node20" class="node">
<title>python2&#45;appdirs</title>
<text text-anchor="middle" x="242" y="-305.3" font-family="Times,serif" font-size="14.00" fill="#000000">python2&#45;appdirs</text>
</g>
<!-- python2&#45;appdirs&#45;&gt;python2&#45;setuptools -->
<g id="edge20" class="edge">
<title>python2&#45;appdirs&#45;&gt;python2&#45;setuptools</title>
<path fill="none" stroke="#000000" d="M236.0843,-290.9551C235.2858,-282.8828 235.0605,-273.1764 235.4083,-264.1817"/>
<polygon fill="#000000" stroke="#000000" points="238.908,-264.3007 236.0798,-254.0904 231.9235,-263.8359 238.908,-264.3007"/>
</g>
<!-- python2&#45;appdirs&#45;&gt;python2&#45;setuptools -->
<g id="edge34" class="edge">
<title>python2&#45;appdirs&#45;&gt;python2&#45;setuptools</title>
<path fill="none" stroke="#000000" d="M247.9157,-290.9551C248.7142,-282.8828 248.9395,-273.1764 248.5917,-264.1817"/>
<polygon fill="#000000" stroke="#000000" points="252.0765,-263.8359 247.9202,-254.0904 245.092,-264.3007 252.0765,-263.8359"/>
</g>
<!-- python2&#45;packaging -->
<g id="node21" class="node">
<title>python2&#45;packaging</title>
<text text-anchor="middle" x="373" y="-305.3" font-family="Times,serif" font-size="14.00" fill="#000000">python2&#45;packaging</text>
</g>
<!-- python2&#45;packaging&#45;&gt;python2&#45;setuptools -->
<g id="edge21" class="edge">
<title>python2&#45;packaging&#45;&gt;python2&#45;setuptools</title>
<path fill="none" stroke="#000000" d="M334.7022,-290.9551C316.5938,-281.3912 295.1732,-269.5334 277.4421,-259.2833"/>
<polygon fill="#000000" stroke="#000000" points="278.9443,-256.1076 268.5433,-254.0904 275.4162,-262.1535 278.9443,-256.1076"/>
</g>
<!-- python2&#45;packaging&#45;&gt;python2&#45;setuptools -->
<g id="edge35" class="edge">
<title>python2&#45;packaging&#45;&gt;python2&#45;setuptools</title>
<path fill="none" stroke="#000000" d="M346.5337,-290.9551C330.094,-281.2596 308.5969,-269.2066 289.337,-258.861"/>
<polygon fill="#000000" stroke="#000000" points="290.855,-255.704 280.3837,-254.0904 287.5632,-261.8818 290.855,-255.704"/>
</g>
<!-- python2&#45;six -->
<g id="node22" class="node">
<title>python2&#45;six</title>
<text text-anchor="middle" x="131" y="-305.3" font-family="Times,serif" font-size="14.00" fill="#000000">python2&#45;six</text>
</g>
<!-- python2&#45;six&#45;&gt;python2&#45;setuptools -->
<g id="edge22" class="edge">
<title>python2&#45;six&#45;&gt;python2&#45;setuptools</title>
<path fill="none" stroke="#000000" d="M152.5225,-290.9551C165.994,-281.479 183.6798,-269.7508 199.8088,-259.5658"/>
<polygon fill="#000000" stroke="#000000" points="201.9463,-262.3574 208.5725,-254.0904 198.2372,-256.4208 201.9463,-262.3574"/>
</g>
<!-- python2&#45;six&#45;&gt;python2&#45;setuptools -->
<g id="edge36" class="edge">
<title>python2&#45;six&#45;&gt;python2&#45;setuptools</title>
<path fill="none" stroke="#000000" d="M164.3539,-290.9551C179.558,-281.5667 197.3481,-269.9678 212.1122,-259.8491"/>
<polygon fill="#000000" stroke="#000000" points="214.1917,-262.6663 220.413,-254.0904 210.2015,-256.9149 214.1917,-262.6663"/>
</g>
<!-- python2&#45;pyparsing -->
<g id="node23" class="node">
<title>python2&#45;pyparsing</title>
<text text-anchor="middle" x="373" y="-378.3" font-family="Times,serif" font-size="14.00" fill="#000000">python2&#45;pyparsing</text>
</g>
<!-- python2&#45;pyparsing&#45;&gt;python2&#45;packaging -->
<g id="edge23" class="edge">
<title>python2&#45;pyparsing&#45;&gt;python2&#45;packaging</title>
<path fill="none" stroke="#000000" d="M367.0843,-363.9551C366.2858,-355.8828 366.0605,-346.1764 366.4083,-337.1817"/>
<polygon fill="#000000" stroke="#000000" points="369.908,-337.3007 367.0798,-327.0904 362.9235,-336.8359 369.908,-337.3007"/>
</g>
<!-- python2&#45;pyparsing&#45;&gt;python2&#45;packaging -->
<g id="edge37" class="edge">
<title>python2&#45;pyparsing&#45;&gt;python2&#45;packaging</title>
<path fill="none" stroke="#000000" d="M378.9157,-363.9551C379.7142,-355.8828 379.9395,-346.1764 379.5917,-337.1817"/>
<polygon fill="#000000" stroke="#000000" points="383.0765,-336.8359 378.9202,-327.0904 376.092,-337.3007 383.0765,-336.8359"/>
</g>
<!-- librsync&#45;&gt;rdiff&#45;backup -->
<g id="edge28" class="edge">
<title>librsync&#45;&gt;rdiff&#45;backup</title>
<path fill="none" stroke="#000000" d="M847.6405,-144.9551C852.1743,-136.4685 857.6732,-126.1757 862.6807,-116.8028"/>
<polygon fill="#000000" stroke="#000000" points="865.8453,-118.3068 867.4704,-107.8374 859.6712,-115.0083 865.8453,-118.3068"/>
</g>
<!-- pylibacl&#45;&gt;rdiff&#45;backup -->
<g id="edge29" class="edge">
<title>pylibacl&#45;&gt;rdiff&#45;backup</title>
<path fill="none" stroke="#000000" d="M906.3595,-144.9551C901.8257,-136.4685 896.3268,-126.1757 891.3193,-116.8028"/>
<polygon fill="#000000" stroke="#000000" points="894.3288,-115.0083 886.5296,-107.8374 888.1547,-118.3068 894.3288,-115.0083"/>
</g>
<!-- pyxattr&#45;&gt;rdiff&#45;backup -->
<g id="edge31" class="edge">
<title>pyxattr&#45;&gt;rdiff&#45;backup</title>
<path fill="none" stroke="#000000" d="M964.4546,-145.5147C948.3844,-135.3136 927.9833,-122.3633 910.9282,-111.537"/>
<polygon fill="#000000" stroke="#000000" points="912.6735,-108.4993 902.3551,-106.095 908.922,-114.4092 912.6735,-108.4993"/>
</g>
<!-- wireshark -->
<g id="node37" class="node">
<title>wireshark</title>
<ellipse fill="none" stroke="#000000" cx="1555" cy="-18" rx="45.4919" ry="18"/>
<text text-anchor="middle" x="1555" y="-14.3" font-family="Times,serif" font-size="14.00" fill="#000000">wireshark</text>
</g>
<!-- wireshark&#45;cli&#45;&gt;wireshark -->
<g id="edge48" class="edge">
<title>wireshark&#45;cli&#45;&gt;wireshark</title>
<path fill="none" stroke="#000000" d="M1555,-71.8314C1555,-64.131 1555,-54.9743 1555,-46.4166"/>
<polygon fill="#000000" stroke="#000000" points="1558.5001,-46.4132 1555,-36.4133 1551.5001,-46.4133 1558.5001,-46.4132"/>
</g>
<!-- GeoIP -->
<g id="node32" class="node">
<title>GeoIP</title>
<text text-anchor="middle" x="1591" y="-159.3" font-family="Times,serif" font-size="14.00" fill="#000000">GeoIP</text>
</g>
<!-- GeoIP&#45;&gt;wireshark&#45;cli -->
<g id="edge49" class="edge">
<title>GeoIP&#45;&gt;wireshark&#45;cli</title>
<path fill="none" stroke="#000000" d="M1582.1011,-144.9551C1577.9905,-136.6196 1573.0205,-126.5416 1568.4651,-117.3042"/>
<polygon fill="#000000" stroke="#000000" points="1571.4833,-115.511 1563.9213,-108.0904 1565.2052,-118.6071 1571.4833,-115.511"/>
</g>
<!-- libnl3 -->
<g id="node33" class="node">
<title>libnl3</title>
<text text-anchor="middle" x="1663" y="-159.3" font-family="Times,serif" font-size="14.00" fill="#000000">libnl3</text>
</g>
<!-- libnl3&#45;&gt;wireshark&#45;cli -->
<g id="edge50" class="edge">
<title>libnl3&#45;&gt;wireshark&#45;cli</title>
<path fill="none" stroke="#000000" d="M1636.3034,-144.9551C1622.4138,-135.5667 1605.2537,-123.9678 1590.2836,-113.8491"/>
<polygon fill="#000000" stroke="#000000" points="1592.0088,-110.7907 1581.7638,-108.0904 1588.0888,-116.5901 1592.0088,-110.7907"/>
</g>
<!-- libsmi&#45;&gt;wireshark&#45;cli -->
<g id="edge51" class="edge">
<title>libsmi&#45;&gt;wireshark&#45;cli</title>
<path fill="none" stroke="#000000" d="M1527.8989,-144.9551C1532.0095,-136.6196 1536.9795,-126.5416 1541.5349,-117.3042"/>
<polygon fill="#000000" stroke="#000000" points="1544.7948,-118.6071 1546.0787,-108.0904 1538.5167,-115.511 1544.7948,-118.6071"/>
</g>
<!-- GeoIP&#45;GeoLite&#45;data -->
<g id="node35" class="node">
<title>GeoIP&#45;GeoLite&#45;data</title>
<text text-anchor="middle" x="1861" y="-232.3" font-family="Times,serif" font-size="14.00" fill="#000000">GeoIP&#45;GeoLite&#45;data</text>
</g>
<!-- GeoIP&#45;GeoLite&#45;data&#45;&gt;GeoIP -->
<g id="edge52" class="edge">
<title>GeoIP&#45;GeoLite&#45;data&#45;&gt;GeoIP</title>
<path fill="none" stroke="#000000" d="M1797.4189,-220.0084C1794.5752,-219.3235 1791.7588,-218.6513 1789,-218 1720.3011,-201.7824 1698.1276,-206.9338 1627.9252,-181.8664"/>
<polygon fill="#000000" stroke="#000000" points="1628.7642,-178.4467 1618.1703,-178.3026 1626.362,-185.0217 1628.7642,-178.4467"/>
</g>
<!-- wget&#45;&gt;libsmi -->
<g id="edge53" class="edge">
<title>wget&#45;&gt;libsmi</title>
<path fill="none" stroke="#000000" d="M1540.0786,-217.9551C1536.9151,-209.7074 1533.0973,-199.7536 1529.5848,-190.5962"/>
<polygon fill="#000000" stroke="#000000" points="1532.7879,-189.1737 1525.9388,-181.0904 1526.2522,-191.6806 1532.7879,-189.1737"/>
</g>
</g>
</svg>
