<?xml version="1.0" encoding="UTF-8" standalone="no"?>
<!DOCTYPE svg PUBLIC "-//W3C//DTD SVG 1.1//EN"
 "http://www.w3.org/Graphics/SVG/1.1/DTD/svg11.dtd">
<!-- Generated by graphviz version 2.40.1 (20161225.0304)
 -->
<!-- Title: G Pages: 1 -->
<svg width="691pt" height="260pt"
 viewBox="0.00 0.00 690.50 260.00" xmlns="http://www.w3.org/2000/svg" xmlns:xlink="http://www.w3.org/1999/xlink">
<g id="graph0" class="graph" transform="scale(1 1) rotate(0) translate(4 256)">
<title>G</title>
<polygon fill="#ffffff" stroke="transparent" points="-4,4 -4,-256 686.5,-256 686.5,4 -4,4"/>
<!-- httpd -->
<g id="node1" class="node">
<title>httpd</title>
<polygon fill="none" stroke="#000000" points="442,-108 388,-108 388,-72 442,-72 442,-108"/>
<text text-anchor="middle" x="415" y="-86.3" font-family="Times,serif" font-size="14.00" fill="#000000">httpd</text>
</g>
<!-- httpd&#45;&gt;httpd -->
<g id="edge2" class="edge">
<title>httpd&#45;&gt;httpd</title>
<path fill="none" stroke="#000000" d="M442.2408,-103.4868C452.0239,-103.7769 460,-99.2813 460,-90 460,-84.1992 456.8843,-80.2678 452.1591,-78.2058"/>
<polygon fill="#000000" stroke="#000000" points="452.6871,-74.7454 442.2408,-76.5132 451.5094,-81.6456 452.6871,-74.7454"/>
</g>
<!-- php -->
<g id="node11" class="node">
<title>php</title>
<ellipse fill="none" stroke="#000000" cx="415" cy="-18" rx="27" ry="18"/>
<text text-anchor="middle" x="415" y="-14.3" font-family="Times,serif" font-size="14.00" fill="#000000">php</text>
</g>
<!-- httpd&#45;&gt;php -->
<g id="edge1" class="edge">
<title>httpd&#45;&gt;php</title>
<path fill="none" stroke="#000000" d="M415,-71.8314C415,-64.131 415,-54.9743 415,-46.4166"/>
<polygon fill="#000000" stroke="#000000" points="418.5001,-46.4132 415,-36.4133 411.5001,-46.4133 418.5001,-46.4132"/>
</g>
<!-- httpd&#45;filesystem -->
<g id="node2" class="node">
<title>httpd&#45;filesystem</title>
<text text-anchor="middle" x="122" y="-86.3" font-family="Times,serif" font-size="14.00" fill="#000000">httpd&#45;filesystem</text>
</g>
<!-- httpd&#45;filesystem&#45;&gt;php -->
<g id="edge3" class="edge">
<title>httpd&#45;filesystem&#45;&gt;php</title>
<path fill="none" stroke="#000000" d="M174.518,-74.2918C177.3827,-73.5009 180.224,-72.732 183,-72 252.0022,-53.8054 333.3914,-35.6042 379.1172,-25.672"/>
<polygon fill="#000000" stroke="#000000" points="380.097,-29.0411 389.1307,-23.5054 378.6167,-22.1994 380.097,-29.0411"/>
</g>
<!-- php&#45;cli -->
<g id="node3" class="node">
<title>php&#45;cli</title>
<text text-anchor="middle" x="628" y="-158.3" font-family="Times,serif" font-size="14.00" fill="#000000">php&#45;cli</text>
</g>
<!-- php&#45;cli&#45;&gt;php -->
<g id="edge4" class="edge">
<title>php&#45;cli&#45;&gt;php</title>
<path fill="none" stroke="#000000" d="M624.1501,-143.8148C618.9253,-123.5021 607.648,-90.9877 586,-72 548.133,-38.7865 489.83,-25.986 452.0461,-21.0627"/>
<polygon fill="#000000" stroke="#000000" points="452.3087,-17.5695 441.9672,-19.8725 451.4877,-24.5212 452.3087,-17.5695"/>
</g>
<!-- php&#45;common -->
<g id="node4" class="node">
<title>php&#45;common</title>
<text text-anchor="middle" x="45" y="-158.3" font-family="Times,serif" font-size="14.00" fill="#000000">php&#45;common</text>
</g>
<!-- php&#45;common&#45;&gt;php -->
<g id="edge5" class="edge">
<title>php&#45;common&#45;&gt;php</title>
<path fill="none" stroke="#000000" d="M42.3478,-143.6642C40.5185,-123.2133 41.1621,-90.5724 60,-72 82.4799,-49.8369 291.6259,-28.9401 377.9779,-21.1804"/>
<polygon fill="#000000" stroke="#000000" points="378.4688,-24.6507 388.1196,-20.2789 377.8489,-17.6782 378.4688,-24.6507"/>
</g>
<!-- apr -->
<g id="node5" class="node">
<title>apr</title>
<text text-anchor="middle" x="443" y="-158.3" font-family="Times,serif" font-size="14.00" fill="#000000">apr</text>
</g>
<!-- apr&#45;&gt;httpd -->
<g id="edge6" class="edge">
<title>apr&#45;&gt;httpd</title>
<path fill="none" stroke="#000000" d="M435.9344,-143.8314C432.874,-135.9617 429.2221,-126.5712 425.8318,-117.8533"/>
<polygon fill="#000000" stroke="#000000" points="429.0473,-116.4647 422.1607,-108.4133 422.5232,-119.0019 429.0473,-116.4647"/>
</g>
<!-- apr&#45;util -->
<g id="node6" class="node">
<title>apr&#45;util</title>
<text text-anchor="middle" x="516" y="-158.3" font-family="Times,serif" font-size="14.00" fill="#000000">apr&#45;util</text>
</g>
<!-- apr&#45;util&#45;&gt;httpd -->
<g id="edge7" class="edge">
<title>apr&#45;util&#45;&gt;httpd</title>
<path fill="none" stroke="#000000" d="M490.5134,-143.8314C477.8341,-134.7927 462.3404,-123.7476 448.6945,-114.0198"/>
<polygon fill="#000000" stroke="#000000" points="450.6529,-111.1176 440.4784,-108.1628 446.5895,-116.8176 450.6529,-111.1176"/>
</g>
<!-- mailcap -->
<g id="node7" class="node">
<title>mailcap</title>
<text text-anchor="middle" x="330" y="-158.3" font-family="Times,serif" font-size="14.00" fill="#000000">mailcap</text>
</g>
<!-- mailcap&#45;&gt;httpd -->
<g id="edge8" class="edge">
<title>mailcap&#45;&gt;httpd</title>
<path fill="none" stroke="#000000" d="M351.4491,-143.8314C361.8178,-135.0485 374.4229,-124.3712 385.6646,-114.8489"/>
<polygon fill="#000000" stroke="#000000" points="388.1895,-117.297 393.5578,-108.1628 383.6651,-111.9556 388.1895,-117.297"/>
</g>
<!-- php&#45;json -->
<g id="node8" class="node">
<title>php&#45;json</title>
<text text-anchor="middle" x="45" y="-230.3" font-family="Times,serif" font-size="14.00" fill="#000000">php&#45;json</text>
</g>
<!-- php&#45;json&#45;&gt;php&#45;common -->
<g id="edge9" class="edge">
<title>php&#45;json&#45;&gt;php&#45;common</title>
<path fill="none" stroke="#000000" d="M45,-215.8314C45,-208.131 45,-198.9743 45,-190.4166"/>
<polygon fill="#000000" stroke="#000000" points="48.5001,-190.4132 45,-180.4133 41.5001,-190.4133 48.5001,-190.4132"/>
</g>
<!-- base&#45;runtime -->
<g id="node9" class="node">
<title>base&#45;runtime</title>
<polygon fill="none" stroke="#000000" points="355,-252 267,-252 267,-216 355,-216 355,-252"/>
<text text-anchor="middle" x="311" y="-230.3" font-family="Times,serif" font-size="14.00" fill="#000000">base&#45;runtime</text>
</g>
<!-- base&#45;runtime&#45;&gt;httpd -->
<g id="edge10" class="edge">
<title>base&#45;runtime&#45;&gt;httpd</title>
<path fill="none" stroke="#000000" d="M334.0069,-215.8705C345.4617,-206.0751 358.9678,-193.2848 369,-180 383.5213,-160.7706 395.6997,-136.2748 403.8704,-117.6955"/>
<polygon fill="#000000" stroke="#000000" points="407.1672,-118.8872 407.8777,-108.3162 400.7301,-116.1369 407.1672,-118.8872"/>
</g>
<!-- base&#45;runtime&#45;&gt;httpd&#45;filesystem -->
<g id="edge12" class="edge">
<title>base&#45;runtime&#45;&gt;httpd&#45;filesystem</title>
<path fill="none" stroke="#000000" d="M266.9119,-226.121C236.1512,-218.6938 195.7919,-204.8556 168,-180 149.5106,-163.464 137.4145,-137.7481 130.2888,-118.0323"/>
<polygon fill="#000000" stroke="#000000" points="133.532,-116.6975 127.008,-108.3495 126.9023,-118.9438 133.532,-116.6975"/>
</g>
<!-- base&#45;runtime&#45;&gt;php&#45;cli -->
<g id="edge14" class="edge">
<title>base&#45;runtime&#45;&gt;php&#45;cli</title>
<path fill="none" stroke="#000000" d="M355.0452,-228.278C409.9463,-220.4819 506.2689,-204.6108 586,-180 587.6155,-179.5013 589.2532,-178.9609 590.898,-178.3892"/>
<polygon fill="#000000" stroke="#000000" points="592.173,-181.6491 600.2941,-174.8448 589.7023,-175.0996 592.173,-181.6491"/>
</g>
<!-- base&#45;runtime&#45;&gt;php&#45;common -->
<g id="edge11" class="edge">
<title>base&#45;runtime&#45;&gt;php&#45;common</title>
<path fill="none" stroke="#000000" d="M266.9107,-222.7854C225.3274,-212.1139 161.3,-195.4389 106,-180 104.0857,-179.4656 102.139,-178.9173 100.174,-178.3598"/>
<polygon fill="#000000" stroke="#000000" points="100.8381,-174.9092 90.2607,-175.5163 98.9081,-181.6379 100.8381,-174.9092"/>
</g>
<!-- base&#45;runtime&#45;&gt;apr -->
<g id="edge13" class="edge">
<title>base&#45;runtime&#45;&gt;apr</title>
<path fill="none" stroke="#000000" d="M344.3092,-215.8314C363.4297,-205.402 387.4476,-192.3013 407.0019,-181.6353"/>
<polygon fill="#000000" stroke="#000000" points="408.8165,-184.6324 415.9194,-176.7712 405.4645,-178.4872 408.8165,-184.6324"/>
</g>
<!-- base&#45;runtime&#45;&gt;base&#45;runtime -->
<g id="edge16" class="edge">
<title>base&#45;runtime&#45;&gt;base&#45;runtime</title>
<path fill="none" stroke="#000000" d="M355.0244,-240.6165C365.3686,-240.0727 373,-237.8672 373,-234 373,-231.583 370.019,-229.8151 365.2578,-228.6963"/>
<polygon fill="#000000" stroke="#000000" points="365.3885,-225.1845 355.0244,-227.3835 364.4977,-232.1276 365.3885,-225.1845"/>
</g>
<!-- base&#45;runtime&#45;&gt;base&#45;runtime -->
<g id="edge20" class="edge">
<title>base&#45;runtime&#45;&gt;base&#45;runtime</title>
<path fill="none" stroke="#000000" d="M355.0194,-247.3146C374.3586,-248.4929 391,-244.0547 391,-234 391,-225.752 379.8018,-221.2834 365.1022,-220.5943"/>
<polygon fill="#000000" stroke="#000000" points="364.9873,-217.0951 355.0194,-220.6854 365.0507,-224.0948 364.9873,-217.0951"/>
</g>
<!-- base&#45;runtime&#45;&gt;php -->
<g id="edge15" class="edge">
<title>base&#45;runtime&#45;&gt;php</title>
<path fill="none" stroke="#000000" d="M355.13,-230.6145C418.0565,-224.7665 528.6701,-210.3573 553,-180 597.0297,-125.0626 499.0468,-62.1507 446.0748,-33.5763"/>
<polygon fill="#000000" stroke="#000000" points="447.5368,-30.3903 437.0605,-28.8099 444.2647,-36.5785 447.5368,-30.3903"/>
</g>
<!-- postgresql&#45;libs -->
<g id="node12" class="node">
<title>postgresql&#45;libs</title>
<text text-anchor="middle" x="234" y="-158.3" font-family="Times,serif" font-size="14.00" fill="#000000">postgresql&#45;libs</text>
</g>
<!-- base&#45;runtime&#45;&gt;postgresql&#45;libs -->
<g id="edge21" class="edge">
<title>base&#45;runtime&#45;&gt;postgresql&#45;libs</title>
<path fill="none" stroke="#000000" d="M291.5696,-215.8314C282.268,-207.1337 270.9796,-196.5783 260.8714,-187.1265"/>
<polygon fill="#000000" stroke="#000000" points="263.1189,-184.4363 253.4241,-180.1628 258.3379,-189.5493 263.1189,-184.4363"/>
</g>
<!-- postgresql -->
<g id="node13" class="node">
<title>postgresql</title>
<ellipse fill="none" stroke="#000000" cx="239" cy="-90" rx="46.5926" ry="18"/>
<text text-anchor="middle" x="239" y="-86.3" font-family="Times,serif" font-size="14.00" fill="#000000">postgresql</text>
</g>
<!-- base&#45;runtime&#45;&gt;postgresql -->
<g id="edge19" class="edge">
<title>base&#45;runtime&#45;&gt;postgresql</title>
<path fill="none" stroke="#000000" d="M266.8046,-228.9727C235.9786,-222.9043 196.9296,-209.5183 177,-180 168.047,-166.7394 170.3719,-158.5626 177,-144 182.8901,-131.059 193.5832,-120.0131 204.4499,-111.3469"/>
<polygon fill="#000000" stroke="#000000" points="206.7862,-113.971 212.7169,-105.1916 202.6057,-108.3564 206.7862,-113.971"/>
</g>
<!-- shared&#45;userspace -->
<g id="node10" class="node">
<title>shared&#45;userspace</title>
<polygon fill="none" stroke="#000000" points="682.5,-252 573.5,-252 573.5,-216 682.5,-216 682.5,-252"/>
<text text-anchor="middle" x="628" y="-230.3" font-family="Times,serif" font-size="14.00" fill="#000000">shared&#45;userspace</text>
</g>
<!-- shared&#45;userspace&#45;&gt;php&#45;cli -->
<g id="edge17" class="edge">
<title>shared&#45;userspace&#45;&gt;php&#45;cli</title>
<path fill="none" stroke="#000000" d="M628,-215.8314C628,-208.131 628,-198.9743 628,-190.4166"/>
<polygon fill="#000000" stroke="#000000" points="631.5001,-190.4132 628,-180.4133 624.5001,-190.4133 631.5001,-190.4132"/>
</g>
<!-- postgresql&#45;libs&#45;&gt;postgresql -->
<g id="edge18" class="edge">
<title>postgresql&#45;libs&#45;&gt;postgresql</title>
<path fill="none" stroke="#000000" d="M235.2617,-143.8314C235.7965,-136.131 236.4323,-126.9743 237.0266,-118.4166"/>
<polygon fill="#000000" stroke="#000000" points="240.52,-118.6317 237.7213,-108.4133 233.5368,-118.1467 240.52,-118.6317"/>
</g>
</g>
</svg>
