<?xml version="1.0" encoding="UTF-8" standalone="no"?>
<!DOCTYPE svg PUBLIC "-//W3C//DTD SVG 1.1//EN"
 "http://www.w3.org/Graphics/SVG/1.1/DTD/svg11.dtd">
<!-- Generated by graphviz version 2.40.1 (20161225.0304)
 -->
<!-- Title: G Pages: 1 -->
<svg width="1168pt" height="332pt"
 viewBox="0.00 0.00 1167.94 332.00" xmlns="http://www.w3.org/2000/svg" xmlns:xlink="http://www.w3.org/1999/xlink">
<g id="graph0" class="graph" transform="scale(1 1) rotate(0) translate(4 328)">
<title>G</title>
<polygon fill="#ffffff" stroke="transparent" points="-4,4 -4,-328 1163.9446,-328 1163.9446,4 -4,4"/>
<!-- postgresql -->
<g id="node1" class="node">
<title>postgresql</title>
<text text-anchor="middle" x="220.5" y="-86.3" font-family="Times,serif" font-size="14.00" fill="#000000">postgresql</text>
</g>
<!-- requested by user -->
<g id="node12" class="node">
<title>requested by user</title>
<ellipse fill="none" stroke="#000000" cx="220.5" cy="-18" rx="72.5877" ry="18"/>
<text text-anchor="middle" x="220.5" y="-14.3" font-family="Times,serif" font-size="14.00" fill="#000000">requested by user</text>
</g>
<!-- postgresql&#45;&gt;requested by user -->
<g id="edge1" class="edge">
<title>postgresql&#45;&gt;requested by user</title>
<path fill="none" stroke="#000000" d="M220.5,-71.8314C220.5,-64.131 220.5,-54.9743 220.5,-46.4166"/>
<polygon fill="#000000" stroke="#000000" points="224.0001,-46.4132 220.5,-36.4133 217.0001,-46.4133 224.0001,-46.4132"/>
</g>
<!-- postgresql&#45;libs -->
<g id="node2" class="node">
<title>postgresql&#45;libs</title>
<text text-anchor="middle" x="182.5" y="-158.3" font-family="Times,serif" font-size="14.00" fill="#000000">postgresql&#45;libs</text>
</g>
<!-- postgresql&#45;libs&#45;&gt;postgresql -->
<g id="edge2" class="edge">
<title>postgresql&#45;libs&#45;&gt;postgresql</title>
<path fill="none" stroke="#000000" d="M192.089,-143.8314C196.3317,-135.7925 201.4121,-126.1666 206.096,-117.2918"/>
<polygon fill="#000000" stroke="#000000" points="209.2096,-118.8908 210.7819,-108.4133 203.0189,-115.6235 209.2096,-118.8908"/>
</g>
<!-- krb5&#45;libs -->
<g id="node3" class="node">
<title>krb5&#45;libs</title>
<text text-anchor="middle" x="90.5" y="-230.3" font-family="Times,serif" font-size="14.00" fill="#000000">krb5&#45;libs</text>
</g>
<!-- krb5&#45;libs&#45;&gt;postgresql&#45;libs -->
<g id="edge3" class="edge">
<title>krb5&#45;libs&#45;&gt;postgresql&#45;libs</title>
<path fill="none" stroke="#000000" d="M113.7155,-215.8314C125.047,-206.9632 138.8464,-196.1637 151.1027,-186.5718"/>
<polygon fill="#000000" stroke="#000000" points="153.574,-189.0822 159.2919,-180.1628 149.2598,-183.5697 153.574,-189.0822"/>
</g>
<!-- openssl&#45;libs -->
<g id="node4" class="node">
<title>openssl&#45;libs</title>
<text text-anchor="middle" x="220.5" y="-230.3" font-family="Times,serif" font-size="14.00" fill="#000000">openssl&#45;libs</text>
</g>
<!-- openssl&#45;libs&#45;&gt;postgresql&#45;libs -->
<g id="edge4" class="edge">
<title>openssl&#45;libs&#45;&gt;postgresql&#45;libs</title>
<path fill="none" stroke="#000000" d="M210.911,-215.8314C206.6683,-207.7925 201.5879,-198.1666 196.904,-189.2918"/>
<polygon fill="#000000" stroke="#000000" points="199.9811,-187.6235 192.2181,-180.4133 193.7904,-190.8908 199.9811,-187.6235"/>
</g>
<!-- keyutils&#45;libs -->
<g id="node5" class="node">
<title>keyutils&#45;libs</title>
<text text-anchor="middle" x="41.5" y="-302.3" font-family="Times,serif" font-size="14.00" fill="#000000">keyutils&#45;libs</text>
</g>
<!-- keyutils&#45;libs&#45;&gt;krb5&#45;libs -->
<g id="edge5" class="edge">
<title>keyutils&#45;libs&#45;&gt;krb5&#45;libs</title>
<path fill="none" stroke="#000000" d="M53.8648,-287.8314C59.4509,-279.6232 66.163,-269.7606 72.3072,-260.7323"/>
<polygon fill="#000000" stroke="#000000" points="75.236,-262.6496 77.9687,-252.4133 69.449,-258.7112 75.236,-262.6496"/>
</g>
<!-- libcom_err -->
<g id="node6" class="node">
<title>libcom_err</title>
<text text-anchor="middle" x="139.5" y="-302.3" font-family="Times,serif" font-size="14.00" fill="#000000">libcom_err</text>
</g>
<!-- libcom_err&#45;&gt;krb5&#45;libs -->
<g id="edge6" class="edge">
<title>libcom_err&#45;&gt;krb5&#45;libs</title>
<path fill="none" stroke="#000000" d="M127.1352,-287.8314C121.5491,-279.6232 114.837,-269.7606 108.6928,-260.7323"/>
<polygon fill="#000000" stroke="#000000" points="111.551,-258.7112 103.0313,-252.4133 105.764,-262.6496 111.551,-258.7112"/>
</g>
<!-- ncurses&#45;base -->
<g id="node7" class="node">
<title>ncurses&#45;base</title>
<text text-anchor="middle" x="889.5" y="-302.3" font-family="Times,serif" font-size="14.00" fill="#000000">ncurses&#45;base</text>
</g>
<!-- ncurses&#45;libs -->
<g id="node13" class="node">
<title>ncurses&#45;libs</title>
<ellipse fill="none" stroke="#000000" cx="889.5" cy="-234" rx="52.7911" ry="18"/>
<text text-anchor="middle" x="889.5" y="-230.3" font-family="Times,serif" font-size="14.00" fill="#000000">ncurses&#45;libs</text>
</g>
<!-- ncurses&#45;base&#45;&gt;ncurses&#45;libs -->
<g id="edge7" class="edge">
<title>ncurses&#45;base&#45;&gt;ncurses&#45;libs</title>
<path fill="none" stroke="#000000" d="M889.5,-287.8314C889.5,-280.131 889.5,-270.9743 889.5,-262.4166"/>
<polygon fill="#000000" stroke="#000000" points="893.0001,-262.4132 889.5,-252.4133 886.0001,-262.4133 893.0001,-262.4132"/>
</g>
<!-- libattr -->
<g id="node8" class="node">
<title>libattr</title>
<text text-anchor="middle" x="990.5" y="-302.3" font-family="Times,serif" font-size="14.00" fill="#000000">libattr</text>
</g>
<!-- libacl -->
<g id="node14" class="node">
<title>libacl</title>
<ellipse fill="none" stroke="#000000" cx="990.5" cy="-234" rx="30.5947" ry="18"/>
<text text-anchor="middle" x="990.5" y="-230.3" font-family="Times,serif" font-size="14.00" fill="#000000">libacl</text>
</g>
<!-- libattr&#45;&gt;libacl -->
<g id="edge8" class="edge">
<title>libattr&#45;&gt;libacl</title>
<path fill="none" stroke="#000000" d="M990.5,-287.8314C990.5,-280.131 990.5,-270.9743 990.5,-262.4166"/>
<polygon fill="#000000" stroke="#000000" points="994.0001,-262.4132 990.5,-252.4133 987.0001,-262.4133 994.0001,-262.4132"/>
</g>
<!-- fedora&#45;repos -->
<g id="node9" class="node">
<title>fedora&#45;repos</title>
<text text-anchor="middle" x="1099.5" y="-302.3" font-family="Times,serif" font-size="14.00" fill="#000000">fedora&#45;repos</text>
</g>
<!-- fedora&#45;release -->
<g id="node15" class="node">
<title>fedora&#45;release</title>
<ellipse fill="none" stroke="#000000" cx="1099.5" cy="-234" rx="60.3893" ry="18"/>
<text text-anchor="middle" x="1099.5" y="-230.3" font-family="Times,serif" font-size="14.00" fill="#000000">fedora&#45;release</text>
</g>
<!-- fedora&#45;repos&#45;&gt;fedora&#45;release -->
<g id="edge9" class="edge">
<title>fedora&#45;repos&#45;&gt;fedora&#45;release</title>
<path fill="none" stroke="#000000" d="M1099.5,-287.8314C1099.5,-280.131 1099.5,-270.9743 1099.5,-262.4166"/>
<polygon fill="#000000" stroke="#000000" points="1103.0001,-262.4132 1099.5,-252.4133 1096.0001,-262.4133 1103.0001,-262.4132"/>
</g>
<!-- libcrypt&#45;nss -->
<g id="node10" class="node">
<title>libcrypt&#45;nss</title>
<text text-anchor="middle" x="761.5" y="-302.3" font-family="Times,serif" font-size="14.00" fill="#000000">libcrypt&#45;nss</text>
</g>
<!-- cyrus&#45;sasl&#45;lib -->
<g id="node16" class="node">
<title>cyrus&#45;sasl&#45;lib</title>
<ellipse fill="none" stroke="#000000" cx="761.5" cy="-234" rx="57.6901" ry="18"/>
<text text-anchor="middle" x="761.5" y="-230.3" font-family="Times,serif" font-size="14.00" fill="#000000">cyrus&#45;sasl&#45;lib</text>
</g>
<!-- libcrypt&#45;nss&#45;&gt;cyrus&#45;sasl&#45;lib -->
<g id="edge10" class="edge">
<title>libcrypt&#45;nss&#45;&gt;cyrus&#45;sasl&#45;lib</title>
<path fill="none" stroke="#000000" d="M761.5,-287.8314C761.5,-280.131 761.5,-270.9743 761.5,-262.4166"/>
<polygon fill="#000000" stroke="#000000" points="765.0001,-262.4132 761.5,-252.4133 758.0001,-262.4133 765.0001,-262.4132"/>
</g>
<!-- base&#45;runtime -->
<g id="node11" class="node">
<title>base&#45;runtime</title>
<ellipse fill="none" stroke="#000000" cx="335.5" cy="-306" rx="57.3905" ry="18"/>
<text text-anchor="middle" x="335.5" y="-302.3" font-family="Times,serif" font-size="14.00" fill="#000000">base&#45;runtime</text>
</g>
<!-- base&#45;runtime&#45;&gt;postgresql -->
<g id="edge14" class="edge">
<title>base&#45;runtime&#45;&gt;postgresql</title>
<path fill="none" stroke="#000000" d="M325.893,-287.9555C305.6834,-249.9967 258.6804,-161.7127 234.8712,-116.9928"/>
<polygon fill="#000000" stroke="#000000" points="237.9496,-115.3271 230.1606,-108.1451 231.7707,-118.6168 237.9496,-115.3271"/>
</g>
<!-- base&#45;runtime&#45;&gt;postgresql&#45;libs -->
<g id="edge12" class="edge">
<title>base&#45;runtime&#45;&gt;postgresql&#45;libs</title>
<path fill="none" stroke="#000000" d="M286.3719,-296.5226C242.9247,-287.0248 184.3428,-271.0956 170.5,-252 157.5004,-234.0675 162.3857,-208.7077 169.4393,-189.4758"/>
<polygon fill="#000000" stroke="#000000" points="172.7468,-190.6323 173.2423,-180.0491 166.2551,-188.0134 172.7468,-190.6323"/>
</g>
<!-- base&#45;runtime&#45;&gt;krb5&#45;libs -->
<g id="edge16" class="edge">
<title>base&#45;runtime&#45;&gt;krb5&#45;libs</title>
<path fill="none" stroke="#000000" d="M289.9023,-294.9376C249.5234,-284.8165 189.1461,-268.886 137.5,-252 135.9013,-251.4773 134.2772,-250.9314 132.6407,-250.3688"/>
<polygon fill="#000000" stroke="#000000" points="133.8156,-247.072 123.221,-247.0085 131.4637,-253.665 133.8156,-247.072"/>
</g>
<!-- base&#45;runtime&#45;&gt;openssl&#45;libs -->
<g id="edge17" class="edge">
<title>base&#45;runtime&#45;&gt;openssl&#45;libs</title>
<path fill="none" stroke="#000000" d="M309.6918,-289.8418C294.4658,-280.309 274.9283,-268.0769 258.0221,-257.4921"/>
<polygon fill="#000000" stroke="#000000" points="259.7911,-254.4703 249.4579,-252.1301 256.0764,-260.4034 259.7911,-254.4703"/>
</g>
<!-- base&#45;runtime&#45;&gt;cyrus&#45;sasl&#45;lib -->
<g id="edge11" class="edge">
<title>base&#45;runtime&#45;&gt;cyrus&#45;sasl&#45;lib</title>
<path fill="none" stroke="#000000" d="M389.3609,-299.8287C459.8786,-291.3089 587.1481,-274.4192 694.5,-252 699.1902,-251.0205 704.0407,-249.9108 708.8883,-248.7349"/>
<polygon fill="#000000" stroke="#000000" points="709.9368,-252.0803 718.7824,-246.249 708.231,-245.2913 709.9368,-252.0803"/>
</g>
<!-- glibc&#45;common -->
<g id="node17" class="node">
<title>glibc&#45;common</title>
<ellipse fill="none" stroke="#000000" cx="380.5" cy="-234" rx="63.0888" ry="18"/>
<text text-anchor="middle" x="380.5" y="-230.3" font-family="Times,serif" font-size="14.00" fill="#000000">glibc&#45;common</text>
</g>
<!-- base&#45;runtime&#45;&gt;glibc&#45;common -->
<g id="edge13" class="edge">
<title>base&#45;runtime&#45;&gt;glibc&#45;common</title>
<path fill="none" stroke="#000000" d="M346.6236,-288.2022C351.8701,-279.8079 358.2364,-269.6218 364.0276,-260.3558"/>
<polygon fill="#000000" stroke="#000000" points="367.0164,-262.1776 369.3484,-251.8425 361.0804,-258.4675 367.0164,-262.1776"/>
</g>
<!-- p11&#45;kit&#45;trust -->
<g id="node18" class="node">
<title>p11&#45;kit&#45;trust</title>
<ellipse fill="none" stroke="#000000" cx="516.5" cy="-234" rx="54.6905" ry="18"/>
<text text-anchor="middle" x="516.5" y="-230.3" font-family="Times,serif" font-size="14.00" fill="#000000">p11&#45;kit&#45;trust</text>
</g>
<!-- base&#45;runtime&#45;&gt;p11&#45;kit&#45;trust -->
<g id="edge15" class="edge">
<title>base&#45;runtime&#45;&gt;p11&#45;kit&#45;trust</title>
<path fill="none" stroke="#000000" d="M371.2598,-291.7751C400.0787,-280.3112 440.7602,-264.1285 471.7402,-251.805"/>
<polygon fill="#000000" stroke="#000000" points="473.4322,-254.8987 481.4304,-247.9503 470.8449,-248.3945 473.4322,-254.8987"/>
</g>
<!-- nss&#45;sysinit -->
<g id="node19" class="node">
<title>nss&#45;sysinit</title>
<ellipse fill="none" stroke="#000000" cx="637.5" cy="-234" rx="48.1917" ry="18"/>
<text text-anchor="middle" x="637.5" y="-230.3" font-family="Times,serif" font-size="14.00" fill="#000000">nss&#45;sysinit</text>
</g>
<!-- base&#45;runtime&#45;&gt;nss&#45;sysinit -->
<g id="edge18" class="edge">
<title>base&#45;runtime&#45;&gt;nss&#45;sysinit</title>
<path fill="none" stroke="#000000" d="M384.6183,-296.5123C434.3058,-286.6017 513.1785,-270.0106 580.5,-252 584.0683,-251.0454 587.7462,-250.0082 591.4343,-248.93"/>
<polygon fill="#000000" stroke="#000000" points="592.5835,-252.2393 601.1523,-246.0082 590.568,-245.5357 592.5835,-252.2393"/>
</g>
</g>
</svg>
