<?xml version="1.0" encoding="UTF-8" standalone="no"?>
<!DOCTYPE svg PUBLIC "-//W3C//DTD SVG 1.1//EN"
 "http://www.w3.org/Graphics/SVG/1.1/DTD/svg11.dtd">
<!-- Generated by graphviz version 2.40.1 (20161225.0304)
 -->
<!-- Title: G Pages: 1 -->
<svg width="117pt" height="116pt"
 viewBox="0.00 0.00 116.80 116.00" xmlns="http://www.w3.org/2000/svg" xmlns:xlink="http://www.w3.org/1999/xlink">
<g id="graph0" class="graph" transform="scale(1 1) rotate(0) translate(4 112)">
<title>G</title>
<polygon fill="#ffffff" stroke="transparent" points="-4,4 -4,-112 112.7958,-112 112.7958,4 -4,4"/>
<!-- base&#45;runtime -->
<g id="node1" class="node">
<title>base&#45;runtime</title>
<polygon fill="none" stroke="#000000" points="90.7958,-108 2.7958,-108 2.7958,-72 90.7958,-72 90.7958,-108"/>
<text text-anchor="middle" x="46.7958" y="-86.3" font-family="Times,serif" font-size="14.00" fill="#000000">base&#45;runtime</text>
</g>
<!-- base&#45;runtime&#45;&gt;base&#45;runtime -->
<g id="edge1" class="edge">
<title>base&#45;runtime&#45;&gt;base&#45;runtime</title>
<path fill="none" stroke="#000000" d="M90.8203,-103.233C101.1644,-102.1454 108.7958,-97.7344 108.7958,-90 108.7958,-85.0452 105.6639,-81.4542 100.6932,-79.2272"/>
<polygon fill="#000000" stroke="#000000" points="101.3698,-75.7889 90.8203,-76.767 99.6772,-82.5812 101.3698,-75.7889"/>
</g>
<!-- postgresql -->
<g id="node2" class="node">
<title>postgresql</title>
<ellipse fill="none" stroke="#000000" cx="46.7958" cy="-18" rx="46.5926" ry="18"/>
<text text-anchor="middle" x="46.7958" y="-14.3" font-family="Times,serif" font-size="14.00" fill="#000000">postgresql</text>
</g>
<!-- base&#45;runtime&#45;&gt;postgresql -->
<g id="edge2" class="edge">
<title>base&#45;runtime&#45;&gt;postgresql</title>
<path fill="none" stroke="#000000" d="M46.7958,-71.8314C46.7958,-64.131 46.7958,-54.9743 46.7958,-46.4166"/>
<polygon fill="#000000" stroke="#000000" points="50.2959,-46.4132 46.7958,-36.4133 43.2959,-46.4133 50.2959,-46.4132"/>
</g>
</g>
</svg>
