<?xml version="1.0" encoding="UTF-8" standalone="no"?>
<!DOCTYPE svg PUBLIC "-//W3C//DTD SVG 1.1//EN"
 "http://www.w3.org/Graphics/SVG/1.1/DTD/svg11.dtd">
<!-- Generated by graphviz version 2.40.1 (20161225.0304)
 -->
<!-- Title: G Pages: 1 -->
<svg width="167pt" height="260pt"
 viewBox="0.00 0.00 166.79 260.00" xmlns="http://www.w3.org/2000/svg" xmlns:xlink="http://www.w3.org/1999/xlink">
<g id="graph0" class="graph" transform="scale(1 1) rotate(0) translate(4 256)">
<title>G</title>
<polygon fill="#ffffff" stroke="transparent" points="-4,4 -4,-256 162.7935,-256 162.7935,4 -4,4"/>
<!-- postgresql -->
<g id="node1" class="node">
<title>postgresql</title>
<polygon fill="none" stroke="#000000" points="108.7935,-108 36.7935,-108 36.7935,-72 108.7935,-72 108.7935,-108"/>
<text text-anchor="middle" x="72.7935" y="-86.3" font-family="Times,serif" font-size="14.00" fill="#000000">postgresql</text>
</g>
<!-- requested by user -->
<g id="node4" class="node">
<title>requested by user</title>
<ellipse fill="none" stroke="#000000" cx="72.7935" cy="-18" rx="72.5877" ry="18"/>
<text text-anchor="middle" x="72.7935" y="-14.3" font-family="Times,serif" font-size="14.00" fill="#000000">requested by user</text>
</g>
<!-- postgresql&#45;&gt;requested by user -->
<g id="edge1" class="edge">
<title>postgresql&#45;&gt;requested by user</title>
<path fill="none" stroke="#000000" d="M72.7935,-71.8314C72.7935,-64.131 72.7935,-54.9743 72.7935,-46.4166"/>
<polygon fill="#000000" stroke="#000000" points="76.2936,-46.4132 72.7935,-36.4133 69.2936,-46.4133 76.2936,-46.4132"/>
</g>
<!-- postgresql&#45;libs -->
<g id="node2" class="node">
<title>postgresql&#45;libs</title>
<text text-anchor="middle" x="110.7935" y="-158.3" font-family="Times,serif" font-size="14.00" fill="#000000">postgresql&#45;libs</text>
</g>
<!-- postgresql&#45;libs&#45;&gt;postgresql -->
<g id="edge2" class="edge">
<title>postgresql&#45;libs&#45;&gt;postgresql</title>
<path fill="none" stroke="#000000" d="M101.2045,-143.8314C96.9618,-135.7925 91.8814,-126.1666 87.1975,-117.2918"/>
<polygon fill="#000000" stroke="#000000" points="90.2746,-115.6235 82.5117,-108.4133 84.0839,-118.8908 90.2746,-115.6235"/>
</g>
<!-- base&#45;runtime -->
<g id="node3" class="node">
<title>base&#45;runtime</title>
<ellipse fill="none" stroke="#000000" cx="72.7935" cy="-234" rx="57.3905" ry="18"/>
<text text-anchor="middle" x="72.7935" y="-230.3" font-family="Times,serif" font-size="14.00" fill="#000000">base&#45;runtime</text>
</g>
<!-- base&#45;runtime&#45;&gt;postgresql -->
<g id="edge3" class="edge">
<title>base&#45;runtime&#45;&gt;postgresql</title>
<path fill="none" stroke="#000000" d="M64.7019,-215.9165C60.5374,-205.6179 55.9018,-192.3436 53.7935,-180 51.0998,-164.2284 51.0998,-159.7716 53.7935,-144 55.2924,-135.2245 58.0686,-125.9785 61.0448,-117.6659"/>
<polygon fill="#000000" stroke="#000000" points="64.4062,-118.6742 64.7019,-108.0835 57.8663,-116.1782 64.4062,-118.6742"/>
</g>
<!-- base&#45;runtime&#45;&gt;postgresql&#45;libs -->
<g id="edge4" class="edge">
<title>base&#45;runtime&#45;&gt;postgresql&#45;libs</title>
<path fill="none" stroke="#000000" d="M82.1868,-216.2022C86.4932,-208.0428 91.693,-198.1904 96.4719,-189.1358"/>
<polygon fill="#000000" stroke="#000000" points="99.6721,-190.5707 101.2444,-180.0931 93.4814,-187.3033 99.6721,-190.5707"/>
</g>
<!-- base&#45;runtime&#45;&gt;base&#45;runtime -->
<g id="edge5" class="edge">
<title>base&#45;runtime&#45;&gt;base&#45;runtime</title>
<path fill="none" stroke="#000000" d="M112.2535,-247.1704C131.2336,-248.7964 147.9885,-244.4063 147.9885,-234 147.9885,-225.5449 136.9276,-221.0614 122.5993,-220.5495"/>
<polygon fill="#000000" stroke="#000000" points="122.1551,-217.0601 112.2535,-220.8296 122.3446,-224.0576 122.1551,-217.0601"/>
</g>
</g>
</svg>
