<?xml version="1.0" encoding="UTF-8" standalone="no"?>
<!DOCTYPE svg PUBLIC "-//W3C//DTD SVG 1.1//EN"
 "http://www.w3.org/Graphics/SVG/1.1/DTD/svg11.dtd">
<!-- Generated by graphviz version 2.40.1 (20161225.0304)
 -->
<!-- Title: G Pages: 1 -->
<svg width="1996pt" height="404pt"
 viewBox="0.00 0.00 1996.10 404.00" xmlns="http://www.w3.org/2000/svg" xmlns:xlink="http://www.w3.org/1999/xlink">
<g id="graph0" class="graph" transform="scale(1 1) rotate(0) translate(4 400)">
<title>G</title>
<polygon fill="#ffffff" stroke="transparent" points="-4,4 -4,-400 1992.0975,-400 1992.0975,4 -4,4"/>
<!-- base&#45;runtime -->
<g id="node1" class="node">
<title>base&#45;runtime</title>
<polygon fill="none" stroke="#000000" points="1042.5,-324 954.5,-324 954.5,-288 1042.5,-288 1042.5,-324"/>
<text text-anchor="middle" x="998.5" y="-302.3" font-family="Times,serif" font-size="14.00" fill="#000000">base&#45;runtime</text>
</g>
<!-- base&#45;runtime&#45;&gt;base&#45;runtime -->
<g id="edge2" class="edge">
<title>base&#45;runtime&#45;&gt;base&#45;runtime</title>
<path fill="none" stroke="#000000" d="M1042.5244,-307.4703C1052.8686,-307.3495 1060.5,-306.8594 1060.5,-306 1060.5,-305.4629 1057.519,-305.07 1052.7578,-304.8214"/>
<polygon fill="#000000" stroke="#000000" points="1052.6201,-301.3161 1042.5244,-304.5297 1052.4206,-308.3133 1052.6201,-301.3161"/>
</g>
<!-- base&#45;runtime&#45;&gt;base&#45;runtime -->
<g id="edge3" class="edge">
<title>base&#45;runtime&#45;&gt;base&#45;runtime</title>
<path fill="none" stroke="#000000" d="M1042.5194,-308.9588C1061.8586,-309.2206 1078.5,-308.2344 1078.5,-306 1078.5,-304.1671 1067.3018,-303.1741 1052.6022,-303.0209"/>
<polygon fill="#000000" stroke="#000000" points="1052.5123,-299.521 1042.5194,-303.0412 1052.5264,-306.521 1052.5123,-299.521"/>
</g>
<!-- base&#45;runtime&#45;&gt;base&#45;runtime -->
<g id="edge6" class="edge">
<title>base&#45;runtime&#45;&gt;base&#45;runtime</title>
<path fill="none" stroke="#000000" d="M1042.5911,-310.1731C1070.1754,-311.1996 1096.5,-309.8086 1096.5,-306 1096.5,-302.6675 1076.3452,-301.1859 1052.8272,-301.5553"/>
<polygon fill="#000000" stroke="#000000" points="1052.4948,-298.0628 1042.5911,-301.8269 1052.6805,-305.0603 1052.4948,-298.0628"/>
</g>
<!-- base&#45;runtime&#45;&gt;base&#45;runtime -->
<g id="edge7" class="edge">
<title>base&#45;runtime&#45;&gt;base&#45;runtime</title>
<path fill="none" stroke="#000000" d="M1042.5381,-311.1563C1077.9479,-313.2188 1114.5,-311.5 1114.5,-306 1114.5,-301.0371 1084.7384,-299.153 1052.9096,-300.3477"/>
<polygon fill="#000000" stroke="#000000" points="1052.3594,-296.8699 1042.5381,-300.8438 1052.6939,-303.8619 1052.3594,-296.8699"/>
</g>
<!-- base&#45;runtime&#45;&gt;base&#45;runtime -->
<g id="edge9" class="edge">
<title>base&#45;runtime&#45;&gt;base&#45;runtime</title>
<path fill="none" stroke="#000000" d="M1042.7662,-311.9865C1085.5948,-315.2416 1132.5,-313.2461 1132.5,-306 1132.5,-299.32 1092.6374,-297.1022 1052.8545,-299.3467"/>
<polygon fill="#000000" stroke="#000000" points="1052.5136,-295.8615 1042.7662,-300.0135 1052.9753,-302.8463 1052.5136,-295.8615"/>
</g>
<!-- base&#45;runtime&#45;&gt;base&#45;runtime -->
<g id="edge11" class="edge">
<title>base&#45;runtime&#45;&gt;base&#45;runtime</title>
<path fill="none" stroke="#000000" d="M1042.8463,-312.6791C1092.9047,-317.2733 1150.5,-315.0469 1150.5,-306 1150.5,-297.5539 1100.3001,-295.0525 1052.8995,-298.4959"/>
<polygon fill="#000000" stroke="#000000" points="1052.5265,-295.0146 1042.8463,-299.3209 1053.0991,-301.9912 1052.5265,-295.0146"/>
</g>
<!-- base&#45;runtime&#45;&gt;base&#45;runtime -->
<g id="edge12" class="edge">
<title>base&#45;runtime&#45;&gt;base&#45;runtime</title>
<path fill="none" stroke="#000000" d="M1042.9029,-313.2694C1100.0168,-319.3059 1168.5,-316.8828 1168.5,-306 1168.5,-295.7549 1107.8071,-293.0071 1053.0435,-297.7566"/>
<polygon fill="#000000" stroke="#000000" points="1052.5225,-294.2905 1042.9029,-298.7306 1053.1918,-301.2584 1052.5225,-294.2905"/>
</g>
<!-- base&#45;runtime&#45;&gt;base&#45;runtime -->
<g id="edge15" class="edge">
<title>base&#45;runtime&#45;&gt;base&#45;runtime</title>
<path fill="none" stroke="#000000" d="M1042.8687,-313.7695C1106.9121,-321.3398 1186.5,-318.75 1186.5,-306 1186.5,-293.9224 1115.0848,-290.9616 1053.1163,-297.1176"/>
<polygon fill="#000000" stroke="#000000" points="1052.4324,-293.6712 1042.8687,-298.2305 1053.1882,-300.6303 1052.4324,-293.6712"/>
</g>
<!-- base&#45;runtime&#45;&gt;base&#45;runtime -->
<g id="edge16" class="edge">
<title>base&#45;runtime&#45;&gt;base&#45;runtime</title>
<path fill="none" stroke="#000000" d="M1042.754,-314.1936C1113.6205,-323.3738 1204.5,-320.6426 1204.5,-306 1204.5,-292.0438 1121.9407,-288.9085 1052.8401,-296.594"/>
<polygon fill="#000000" stroke="#000000" points="1052.2647,-293.1379 1042.754,-297.8064 1053.1002,-300.0878 1052.2647,-293.1379"/>
</g>
<!-- base&#45;runtime&#45;&gt;base&#45;runtime -->
<g id="edge23" class="edge">
<title>base&#45;runtime&#45;&gt;base&#45;runtime</title>
<path fill="none" stroke="#000000" d="M1042.7545,-314.5784C1120.3299,-325.4024 1222.5,-322.543 1222.5,-306 1222.5,-290.1679 1128.9215,-286.8686 1052.8806,-296.1021"/>
<polygon fill="#000000" stroke="#000000" points="1052.2184,-292.6587 1042.7545,-297.4216 1053.123,-299.6 1052.2184,-292.6587"/>
</g>
<!-- base&#45;runtime&#45;&gt;base&#45;runtime -->
<g id="edge25" class="edge">
<title>base&#45;runtime&#45;&gt;base&#45;runtime</title>
<path fill="none" stroke="#000000" d="M1042.7649,-314.9212C1126.97,-327.4288 1240.5,-324.4551 1240.5,-306 1240.5,-288.2658 1135.6663,-284.8271 1052.7584,-295.684"/>
<polygon fill="#000000" stroke="#000000" points="1052.1851,-292.23 1042.7649,-297.0788 1053.1528,-299.1628 1052.1851,-292.23"/>
</g>
<!-- base&#45;runtime&#45;&gt;base&#45;runtime -->
<g id="edge36" class="edge">
<title>base&#45;runtime&#45;&gt;base&#45;runtime</title>
<path fill="none" stroke="#000000" d="M1042.5977,-315.1997C1133.3817,-329.4572 1258.5,-326.3906 1258.5,-306 1258.5,-286.3461 1142.2601,-282.787 1052.5655,-295.3227"/>
<polygon fill="#000000" stroke="#000000" points="1051.9763,-291.8717 1042.5977,-296.8003 1053.0029,-298.796 1051.9763,-291.8717"/>
</g>
<!-- base&#45;runtime&#45;&gt;base&#45;runtime -->
<g id="edge39" class="edge">
<title>base&#45;runtime&#45;&gt;base&#45;runtime</title>
<path fill="none" stroke="#000000" d="M1042.6501,-315.4809C1139.9375,-331.4787 1276.5,-328.3184 1276.5,-306 1276.5,-284.4445 1149.1133,-280.7597 1052.7565,-294.9458"/>
<polygon fill="#000000" stroke="#000000" points="1051.9927,-291.5225 1042.6501,-296.5191 1053.0695,-298.4392 1051.9927,-291.5225"/>
</g>
<!-- base&#45;runtime&#45;&gt;base&#45;runtime -->
<g id="edge56" class="edge">
<title>base&#45;runtime&#45;&gt;base&#45;runtime</title>
<path fill="none" stroke="#000000" d="M1042.691,-315.7347C1146.4366,-333.4988 1294.5,-330.2539 1294.5,-306 1294.5,-282.5277 1155.826,-278.7321 1052.8527,-294.6133"/>
<polygon fill="#000000" stroke="#000000" points="1051.9997,-291.2059 1042.691,-296.2653 1053.123,-298.1152 1051.9997,-291.2059"/>
</g>
<!-- base&#45;runtime&#45;&gt;base&#45;runtime -->
<g id="edge58" class="edge">
<title>base&#45;runtime&#45;&gt;base&#45;runtime</title>
<path fill="none" stroke="#000000" d="M1042.7816,-315.9752C1152.9439,-335.5165 1312.5,-332.1914 1312.5,-306 1312.5,-280.6015 1162.4583,-276.7058 1052.9166,-294.3129"/>
<polygon fill="#000000" stroke="#000000" points="1052.059,-290.9081 1042.7816,-296.0248 1053.2249,-297.8103 1052.059,-290.9081"/>
</g>
<!-- base&#45;runtime&#45;&gt;base&#45;runtime -->
<g id="edge62" class="edge">
<title>base&#45;runtime&#45;&gt;base&#45;runtime</title>
<path fill="none" stroke="#000000" d="M1042.5937,-316.1461C1159.1451,-337.5383 1330.5,-334.1563 1330.5,-306 1330.5,-278.6411 1168.7133,-274.6731 1052.6227,-294.096"/>
<polygon fill="#000000" stroke="#000000" points="1051.8392,-290.6799 1042.5937,-295.8539 1053.0478,-297.5747 1051.8392,-290.6799"/>
</g>
<!-- base&#45;runtime&#45;&gt;base&#45;runtime -->
<g id="edge72" class="edge">
<title>base&#45;runtime&#45;&gt;base&#45;runtime</title>
<path fill="none" stroke="#000000" d="M1042.5374,-316.3227C1165.4408,-339.5561 1348.5,-336.1152 1348.5,-306 1348.5,-276.6788 1174.9671,-272.6439 1052.3802,-293.8951"/>
<polygon fill="#000000" stroke="#000000" points="1051.7538,-290.4516 1042.5374,-295.6773 1053.001,-297.3396 1051.7538,-290.4516"/>
</g>
<!-- dateutils -->
<g id="node2" class="node">
<title>dateutils</title>
<ellipse fill="none" stroke="#000000" cx="1582.5" cy="-234" rx="40.0939" ry="18"/>
<text text-anchor="middle" x="1582.5" y="-230.3" font-family="Times,serif" font-size="14.00" fill="#000000">dateutils</text>
</g>
<!-- base&#45;runtime&#45;&gt;dateutils -->
<g id="edge1" class="edge">
<title>base&#45;runtime&#45;&gt;dateutils</title>
<path fill="none" stroke="#000000" d="M1042.7975,-305.2756C1135.1941,-302.9497 1354.7376,-293.1626 1533.5,-252 1536.6794,-251.2679 1539.9336,-250.3857 1543.1786,-249.4102"/>
<polygon fill="#000000" stroke="#000000" points="1544.3875,-252.6973 1552.8026,-246.2602 1542.2099,-246.0446 1544.3875,-252.6973"/>
</g>
<!-- gcal -->
<g id="node3" class="node">
<title>gcal</title>
<ellipse fill="none" stroke="#000000" cx="1667.5" cy="-234" rx="27" ry="18"/>
<text text-anchor="middle" x="1667.5" y="-230.3" font-family="Times,serif" font-size="14.00" fill="#000000">gcal</text>
</g>
<!-- base&#45;runtime&#45;&gt;gcal -->
<g id="edge4" class="edge">
<title>base&#45;runtime&#45;&gt;gcal</title>
<path fill="none" stroke="#000000" d="M1042.5595,-304.4007C1167.1709,-299.5364 1520.2876,-283.3034 1631.5,-252 1633.6314,-251.4001 1635.7867,-250.6729 1637.9274,-249.8591"/>
<polygon fill="#000000" stroke="#000000" points="1639.3292,-253.0662 1647.099,-245.8634 1636.5333,-246.6487 1639.3292,-253.0662"/>
</g>
<!-- htop -->
<g id="node4" class="node">
<title>htop</title>
<ellipse fill="none" stroke="#000000" cx="1885.5" cy="-234" rx="27" ry="18"/>
<text text-anchor="middle" x="1885.5" y="-230.3" font-family="Times,serif" font-size="14.00" fill="#000000">htop</text>
</g>
<!-- base&#45;runtime&#45;&gt;htop -->
<g id="edge5" class="edge">
<title>base&#45;runtime&#45;&gt;htop</title>
<path fill="none" stroke="#000000" d="M1042.5027,-305.5142C1194.265,-303.48 1694.9568,-293.693 1849.5,-252 1851.4734,-251.4676 1853.4657,-250.8219 1855.447,-250.0957"/>
<polygon fill="#000000" stroke="#000000" points="1857.3112,-253.1046 1865.1219,-245.9462 1854.5519,-246.6714 1857.3112,-253.1046"/>
</g>
<!-- iotop -->
<g id="node5" class="node">
<title>iotop</title>
<ellipse fill="none" stroke="#000000" cx="1959.5" cy="-234" rx="28.6953" ry="18"/>
<text text-anchor="middle" x="1959.5" y="-230.3" font-family="Times,serif" font-size="14.00" fill="#000000">iotop</text>
</g>
<!-- base&#45;runtime&#45;&gt;iotop -->
<g id="edge8" class="edge">
<title>base&#45;runtime&#45;&gt;iotop</title>
<path fill="none" stroke="#000000" d="M1042.544,-305.6468C1202.487,-304.0198 1752.0904,-295.3307 1921.5,-252 1923.8272,-251.4048 1926.184,-250.6651 1928.5243,-249.8281"/>
<polygon fill="#000000" stroke="#000000" points="1930.0166,-252.9989 1937.9342,-245.9588 1927.3545,-246.5248 1930.0166,-252.9989"/>
</g>
<!-- iputils -->
<g id="node6" class="node">
<title>iputils</title>
<ellipse fill="none" stroke="#000000" cx="415.5" cy="-234" rx="32.4942" ry="18"/>
<text text-anchor="middle" x="415.5" y="-230.3" font-family="Times,serif" font-size="14.00" fill="#000000">iputils</text>
</g>
<!-- base&#45;runtime&#45;&gt;iputils -->
<g id="edge10" class="edge">
<title>base&#45;runtime&#45;&gt;iputils</title>
<path fill="none" stroke="#000000" d="M954.1109,-303.3775C842.1242,-296.4734 550.3705,-276.6197 456.5,-252 454.0656,-251.3615 451.5911,-250.5966 449.1258,-249.7476"/>
<polygon fill="#000000" stroke="#000000" points="450.3555,-246.4706 439.7657,-246.1445 447.8408,-253.0034 450.3555,-246.4706"/>
</g>
<!-- joe -->
<g id="node7" class="node">
<title>joe</title>
<ellipse fill="none" stroke="#000000" cx="492.5" cy="-234" rx="27" ry="18"/>
<text text-anchor="middle" x="492.5" y="-230.3" font-family="Times,serif" font-size="14.00" fill="#000000">joe</text>
</g>
<!-- base&#45;runtime&#45;&gt;joe -->
<g id="edge13" class="edge">
<title>base&#45;runtime&#45;&gt;joe</title>
<path fill="none" stroke="#000000" d="M954.2488,-302.5519C854.0328,-294.4695 612.3344,-273.3647 533.5,-252 530.2736,-251.1256 526.9744,-250.0372 523.7177,-248.8312"/>
<polygon fill="#000000" stroke="#000000" points="524.773,-245.482 514.1912,-244.9572 522.1361,-251.9664 524.773,-245.482"/>
</g>
<!-- shared&#45;userspace -->
<g id="node8" class="node">
<title>shared&#45;userspace</title>
<polygon fill="none" stroke="#000000" points="726,-180 617,-180 617,-144 726,-144 726,-180"/>
<text text-anchor="middle" x="671.5" y="-158.3" font-family="Times,serif" font-size="14.00" fill="#000000">shared&#45;userspace</text>
</g>
<!-- base&#45;runtime&#45;&gt;shared&#45;userspace -->
<g id="edge14" class="edge">
<title>base&#45;runtime&#45;&gt;shared&#45;userspace</title>
<path fill="none" stroke="#000000" d="M954.4182,-303.2162C857.9043,-296.3333 635.3651,-277.2297 613.5,-252 596.5853,-232.4825 614.6118,-206.159 635.0313,-187.0248"/>
<polygon fill="#000000" stroke="#000000" points="637.4319,-189.5742 642.6023,-180.3266 632.7935,-184.3315 637.4319,-189.5742"/>
</g>
<!-- base&#45;runtime&#45;&gt;shared&#45;userspace -->
<g id="edge60" class="edge">
<title>base&#45;runtime&#45;&gt;shared&#45;userspace</title>
<path fill="none" stroke="#000000" d="M954.3114,-302.4874C861.2913,-295.0529 652.6363,-276.3887 631.5,-252 614.8079,-232.7393 632.1435,-206.8505 649.072,-187.7838"/>
<polygon fill="#000000" stroke="#000000" points="651.7447,-190.0486 655.9559,-180.3266 646.6011,-185.3005 651.7447,-190.0486"/>
</g>
<!-- vim&#45;minimal -->
<g id="node9" class="node">
<title>vim&#45;minimal</title>
<ellipse fill="none" stroke="#000000" cx="1160.5" cy="-234" rx="57.6901" ry="18"/>
<text text-anchor="middle" x="1160.5" y="-230.3" font-family="Times,serif" font-size="14.00" fill="#000000">vim&#45;minimal</text>
</g>
<!-- base&#45;runtime&#45;&gt;vim&#45;minimal -->
<g id="edge17" class="edge">
<title>base&#45;runtime&#45;&gt;vim&#45;minimal</title>
<path fill="none" stroke="#000000" d="M1039.3794,-287.8314C1063.3765,-277.166 1093.6589,-263.7072 1117.9409,-252.9152"/>
<polygon fill="#000000" stroke="#000000" points="1119.5481,-256.031 1127.2647,-248.7712 1116.7051,-249.6343 1119.5481,-256.031"/>
</g>
<!-- emacs&#45;common -->
<g id="node10" class="node">
<title>emacs&#45;common</title>
<text text-anchor="middle" x="313.5" y="-230.3" font-family="Times,serif" font-size="14.00" fill="#000000">emacs&#45;common</text>
</g>
<!-- base&#45;runtime&#45;&gt;emacs&#45;common -->
<g id="edge22" class="edge">
<title>base&#45;runtime&#45;&gt;emacs&#45;common</title>
<path fill="none" stroke="#000000" d="M954.2083,-305.2091C852.9659,-302.7517 596.9157,-292.8504 375.4295,-251.958"/>
<polygon fill="#000000" stroke="#000000" points="376.0483,-248.5131 365.5751,-250.1136 374.7605,-255.3937 376.0483,-248.5131"/>
</g>
<!-- emacs&#45;nox -->
<g id="node13" class="node">
<title>emacs&#45;nox</title>
<ellipse fill="none" stroke="#000000" cx="536.5" cy="-90" rx="49.2915" ry="18"/>
<text text-anchor="middle" x="536.5" y="-86.3" font-family="Times,serif" font-size="14.00" fill="#000000">emacs&#45;nox</text>
</g>
<!-- base&#45;runtime&#45;&gt;emacs&#45;nox -->
<g id="edge21" class="edge">
<title>base&#45;runtime&#45;&gt;emacs&#45;nox</title>
<path fill="none" stroke="#000000" d="M954.168,-302.8193C866.2559,-296.0221 673.0996,-278.5088 612.5,-252 566.202,-231.7473 546.1402,-225.666 524.5,-180 515.2162,-160.409 519.3709,-135.8922 525.2044,-117.3965"/>
<polygon fill="#000000" stroke="#000000" points="528.5594,-118.4049 528.5433,-107.8101 521.9488,-116.1025 528.5594,-118.4049"/>
</g>
<!-- nano -->
<g id="node14" class="node">
<title>nano</title>
<ellipse fill="none" stroke="#000000" cx="1264.5" cy="-234" rx="27.8951" ry="18"/>
<text text-anchor="middle" x="1264.5" y="-230.3" font-family="Times,serif" font-size="14.00" fill="#000000">nano</text>
</g>
<!-- base&#45;runtime&#45;&gt;nano -->
<g id="edge26" class="edge">
<title>base&#45;runtime&#45;&gt;nano</title>
<path fill="none" stroke="#000000" d="M1042.8057,-298.5647C1089.5543,-290.0271 1164.9712,-274.2721 1227.5,-252 1229.4178,-251.3169 1231.3672,-250.5628 1233.3174,-249.762"/>
<polygon fill="#000000" stroke="#000000" points="1235.2204,-252.746 1242.932,-245.4809 1232.3729,-246.3512 1235.2204,-252.746"/>
</g>
<!-- nmap&#45;ncat -->
<g id="node15" class="node">
<title>nmap&#45;ncat</title>
<text text-anchor="middle" x="857.5" y="-158.3" font-family="Times,serif" font-size="14.00" fill="#000000">nmap&#45;ncat</text>
</g>
<!-- base&#45;runtime&#45;&gt;nmap&#45;ncat -->
<g id="edge40" class="edge">
<title>base&#45;runtime&#45;&gt;nmap&#45;ncat</title>
<path fill="none" stroke="#000000" d="M958.6331,-287.8312C941.7582,-278.7713 922.7503,-266.6092 908.5,-252 890.9867,-234.0457 877.4037,-208.8962 868.6748,-189.7452"/>
<polygon fill="#000000" stroke="#000000" points="871.7762,-188.1022 864.5575,-180.3472 865.3645,-190.9112 871.7762,-188.1022"/>
</g>
<!-- python2&#45;libs -->
<g id="node16" class="node">
<title>python2&#45;libs</title>
<text text-anchor="middle" x="775.5" y="-230.3" font-family="Times,serif" font-size="14.00" fill="#000000">python2&#45;libs</text>
</g>
<!-- base&#45;runtime&#45;&gt;python2&#45;libs -->
<g id="edge35" class="edge">
<title>base&#45;runtime&#45;&gt;python2&#45;libs</title>
<path fill="none" stroke="#000000" d="M954.3895,-293.4586C917.9634,-282.2416 866.3037,-265.6428 827.8104,-252.8316"/>
<polygon fill="#000000" stroke="#000000" points="828.9187,-249.5118 818.3249,-249.6618 826.7,-256.1509 828.9187,-249.5118"/>
</g>
<!-- base&#45;runtime&#45;&gt;python2&#45;libs -->
<g id="edge51" class="edge">
<title>base&#45;runtime&#45;&gt;python2&#45;libs</title>
<path fill="none" stroke="#000000" d="M954.4623,-289.9314C918.1484,-277.7568 866.6518,-261.1413 828.1673,-249.1882"/>
<polygon fill="#000000" stroke="#000000" points="828.7696,-245.7111 818.182,-246.1019 826.7025,-252.3989 828.7696,-245.7111"/>
</g>
<!-- nmap -->
<g id="node23" class="node">
<title>nmap</title>
<ellipse fill="none" stroke="#000000" cx="792.5" cy="-90" rx="30.5947" ry="18"/>
<text text-anchor="middle" x="792.5" y="-86.3" font-family="Times,serif" font-size="14.00" fill="#000000">nmap</text>
</g>
<!-- base&#45;runtime&#45;&gt;nmap -->
<g id="edge37" class="edge">
<title>base&#45;runtime&#45;&gt;nmap</title>
<path fill="none" stroke="#000000" d="M954.4744,-290.772C931.0318,-281.5256 902.3966,-268.3453 879.5,-252 843.676,-226.4261 831.9209,-218.9919 811.5,-180 801.4667,-160.8423 796.7316,-136.7682 794.497,-118.3402"/>
<polygon fill="#000000" stroke="#000000" points="797.9608,-117.8085 793.4491,-108.2223 790.998,-118.5297 797.9608,-117.8085"/>
</g>
<!-- librsync -->
<g id="node24" class="node">
<title>librsync</title>
<text text-anchor="middle" x="980.5" y="-158.3" font-family="Times,serif" font-size="14.00" fill="#000000">librsync</text>
</g>
<!-- base&#45;runtime&#45;&gt;librsync -->
<g id="edge52" class="edge">
<title>base&#45;runtime&#45;&gt;librsync</title>
<path fill="none" stroke="#000000" d="M992.7378,-287.7031C989.7319,-277.3377 986.3121,-264.0677 984.5,-252 981.4082,-231.4095 980.4503,-207.8961 980.243,-190.0678"/>
<polygon fill="#000000" stroke="#000000" points="983.743,-190.0204 980.1979,-180.0363 976.743,-190.052 983.743,-190.0204"/>
</g>
<!-- pylibacl -->
<g id="node25" class="node">
<title>pylibacl</title>
<text text-anchor="middle" x="1058.5" y="-158.3" font-family="Times,serif" font-size="14.00" fill="#000000">pylibacl</text>
</g>
<!-- base&#45;runtime&#45;&gt;pylibacl -->
<g id="edge53" class="edge">
<title>base&#45;runtime&#45;&gt;pylibacl</title>
<path fill="none" stroke="#000000" d="M1001.5341,-287.819C1005.0524,-269.2067 1011.7816,-239.7267 1022.5,-216 1026.769,-206.55 1032.6211,-196.9157 1038.3665,-188.4508"/>
<polygon fill="#000000" stroke="#000000" points="1041.345,-190.3001 1044.2443,-180.1096 1035.623,-186.2679 1041.345,-190.3001"/>
</g>
<!-- pyxattr -->
<g id="node26" class="node">
<title>pyxattr</title>
<text text-anchor="middle" x="1134.5" y="-158.3" font-family="Times,serif" font-size="14.00" fill="#000000">pyxattr</text>
</g>
<!-- base&#45;runtime&#45;&gt;pyxattr -->
<g id="edge54" class="edge">
<title>base&#45;runtime&#45;&gt;pyxattr</title>
<path fill="none" stroke="#000000" d="M1008.5622,-287.7722C1019.6928,-268.5904 1038.9303,-238.1639 1060.5,-216 1071.6753,-204.5168 1085.5159,-193.7084 1098.1931,-184.8221"/>
<polygon fill="#000000" stroke="#000000" points="1100.4491,-187.52 1106.7367,-178.9925 1096.5036,-181.7378 1100.4491,-187.52"/>
</g>
<!-- rdiff&#45;backup -->
<g id="node27" class="node">
<title>rdiff&#45;backup</title>
<ellipse fill="none" stroke="#000000" cx="951.5" cy="-90" rx="54.6905" ry="18"/>
<text text-anchor="middle" x="951.5" y="-86.3" font-family="Times,serif" font-size="14.00" fill="#000000">rdiff&#45;backup</text>
</g>
<!-- base&#45;runtime&#45;&gt;rdiff&#45;backup -->
<g id="edge55" class="edge">
<title>base&#45;runtime&#45;&gt;rdiff&#45;backup</title>
<path fill="none" stroke="#000000" d="M987.1716,-287.658C973.209,-263.8699 950.2567,-220.6024 941.5,-180 937.067,-159.4456 939.9958,-135.802 943.804,-117.9079"/>
<polygon fill="#000000" stroke="#000000" points="947.2276,-118.6378 946.0987,-108.1033 940.4118,-117.0425 947.2276,-118.6378"/>
</g>
<!-- screen -->
<g id="node28" class="node">
<title>screen</title>
<ellipse fill="none" stroke="#000000" cx="1343.5" cy="-234" rx="33.2948" ry="18"/>
<text text-anchor="middle" x="1343.5" y="-230.3" font-family="Times,serif" font-size="14.00" fill="#000000">screen</text>
</g>
<!-- base&#45;runtime&#45;&gt;screen -->
<g id="edge59" class="edge">
<title>base&#45;runtime&#45;&gt;screen</title>
<path fill="none" stroke="#000000" d="M1042.6341,-301.3407C1102.2845,-294.3223 1211.5296,-278.91 1301.5,-252 1303.8086,-251.3095 1306.1607,-250.5294 1308.5134,-249.6908"/>
<polygon fill="#000000" stroke="#000000" points="1310.0138,-252.8633 1318.079,-245.9928 1307.4897,-246.3342 1310.0138,-252.8633"/>
</g>
<!-- tmux -->
<g id="node29" class="node">
<title>tmux</title>
<ellipse fill="none" stroke="#000000" cx="1107.5" cy="-90" rx="29.4969" ry="18"/>
<text text-anchor="middle" x="1107.5" y="-86.3" font-family="Times,serif" font-size="14.00" fill="#000000">tmux</text>
</g>
<!-- base&#45;runtime&#45;&gt;tmux -->
<g id="edge61" class="edge">
<title>base&#45;runtime&#45;&gt;tmux</title>
<path fill="none" stroke="#000000" d="M1020.5533,-287.8355C1032.6427,-277.6219 1047.7241,-264.4554 1060.5,-252 1076.0415,-236.8484 1076.0013,-228.8416 1093.5,-216 1123.9565,-193.6491 1150.218,-211.8717 1170.5,-180 1179.09,-166.5014 1177.1857,-158.5362 1170.5,-144 1163.7018,-129.2192 1150.6405,-116.9701 1138.1653,-107.8957"/>
<polygon fill="#000000" stroke="#000000" points="1139.9404,-104.87 1129.7064,-102.1285 1135.9971,-110.6536 1139.9404,-104.87"/>
</g>
<!-- wireshark&#45;cli -->
<g id="node30" class="node">
<title>wireshark&#45;cli</title>
<text text-anchor="middle" x="1514.5" y="-86.3" font-family="Times,serif" font-size="14.00" fill="#000000">wireshark&#45;cli</text>
</g>
<!-- base&#45;runtime&#45;&gt;wireshark&#45;cli -->
<g id="edge71" class="edge">
<title>base&#45;runtime&#45;&gt;wireshark&#45;cli</title>
<path fill="none" stroke="#000000" d="M1042.6576,-304.8094C1132.128,-301.6127 1330.9424,-290.2864 1385.5,-252 1429.927,-220.8228 1407.2677,-185.2851 1442.5,-144 1452.0494,-132.8101 1464.313,-122.5471 1476.003,-114.0427"/>
<polygon fill="#000000" stroke="#000000" points="1478.192,-116.7824 1484.3667,-108.1729 1474.1707,-111.0527 1478.192,-116.7824"/>
</g>
<!-- libsmi -->
<g id="node33" class="node">
<title>libsmi</title>
<text text-anchor="middle" x="1478.5" y="-158.3" font-family="Times,serif" font-size="14.00" fill="#000000">libsmi</text>
</g>
<!-- base&#45;runtime&#45;&gt;libsmi -->
<g id="edge70" class="edge">
<title>base&#45;runtime&#45;&gt;libsmi</title>
<path fill="none" stroke="#000000" d="M1042.8059,-304.885C1137.581,-301.7759 1356.4213,-290.5177 1418.5,-252 1441.7803,-237.5554 1458.0129,-210.344 1467.6696,-189.6088"/>
<polygon fill="#000000" stroke="#000000" points="1470.9328,-190.8831 1471.7647,-180.3209 1464.5278,-188.059 1470.9328,-190.8831"/>
</g>
<!-- wget -->
<g id="node35" class="node">
<title>wget</title>
<text text-anchor="middle" x="1497.5" y="-230.3" font-family="Times,serif" font-size="14.00" fill="#000000">wget</text>
</g>
<!-- base&#45;runtime&#45;&gt;wget -->
<g id="edge73" class="edge">
<title>base&#45;runtime&#45;&gt;wget</title>
<path fill="none" stroke="#000000" d="M1042.572,-305.1161C1125.1843,-302.5183 1308.3563,-292.2872 1456.5,-252 1457.7659,-251.6558 1459.043,-251.2787 1460.3244,-250.8746"/>
<polygon fill="#000000" stroke="#000000" points="1461.8954,-254.0288 1470.1158,-247.3447 1459.5214,-247.4436 1461.8954,-254.0288"/>
</g>
<!-- shared&#45;userspace&#45;&gt;emacs&#45;nox -->
<g id="edge24" class="edge">
<title>shared&#45;userspace&#45;&gt;emacs&#45;nox</title>
<path fill="none" stroke="#000000" d="M637.4338,-143.8314C617.9257,-133.427 593.433,-120.3643 573.4605,-109.7122"/>
<polygon fill="#000000" stroke="#000000" points="575.1067,-106.6236 564.6361,-105.0059 571.8126,-112.8001 575.1067,-106.6236"/>
</g>
<!-- shared&#45;userspace&#45;&gt;nmap -->
<g id="edge38" class="edge">
<title>shared&#45;userspace&#45;&gt;nmap</title>
<path fill="none" stroke="#000000" d="M702.0334,-143.8314C720.3602,-132.9261 743.5952,-119.1004 761.9288,-108.1911"/>
<polygon fill="#000000" stroke="#000000" points="763.9502,-111.0611 770.7541,-102.9397 760.3706,-105.0456 763.9502,-111.0611"/>
</g>
<!-- shared&#45;userspace&#45;&gt;rdiff&#45;backup -->
<g id="edge57" class="edge">
<title>shared&#45;userspace&#45;&gt;rdiff&#45;backup</title>
<path fill="none" stroke="#000000" d="M726.1072,-147.7297C730.9735,-146.4656 735.8253,-145.2079 740.5,-144 794.2203,-130.1189 855.68,-114.4093 898.3572,-103.528"/>
<polygon fill="#000000" stroke="#000000" points="899.4198,-106.8691 908.2455,-101.0075 897.6908,-100.086 899.4198,-106.8691"/>
</g>
<!-- shared&#45;userspace&#45;&gt;tmux -->
<g id="edge63" class="edge">
<title>shared&#45;userspace&#45;&gt;tmux</title>
<path fill="none" stroke="#000000" d="M726.1198,-154.0721C794.0586,-144.0622 913.5447,-125.9697 1015.5,-108 1033.2861,-104.8652 1052.9392,-101.0659 1069.4988,-97.7673"/>
<polygon fill="#000000" stroke="#000000" points="1070.2489,-101.1866 1079.3654,-95.7885 1068.8724,-94.3233 1070.2489,-101.1866"/>
</g>
<!-- emacs&#45;common&#45;&gt;emacs&#45;nox -->
<g id="edge18" class="edge">
<title>emacs&#45;common&#45;&gt;emacs&#45;nox</title>
<path fill="none" stroke="#000000" d="M341.7431,-215.7623C382.9699,-189.1405 459.4781,-139.7361 503.3279,-111.4205"/>
<polygon fill="#000000" stroke="#000000" points="505.4015,-114.2479 511.9036,-105.8829 501.6042,-108.3674 505.4015,-114.2479"/>
</g>
<!-- gpm&#45;libs -->
<g id="node11" class="node">
<title>gpm&#45;libs</title>
<text text-anchor="middle" x="566.5" y="-158.3" font-family="Times,serif" font-size="14.00" fill="#000000">gpm&#45;libs</text>
</g>
<!-- gpm&#45;libs&#45;&gt;emacs&#45;nox -->
<g id="edge19" class="edge">
<title>gpm&#45;libs&#45;&gt;emacs&#45;nox</title>
<path fill="none" stroke="#000000" d="M558.9297,-143.8314C555.5645,-135.7547 551.5317,-126.0761 547.8195,-117.1668"/>
<polygon fill="#000000" stroke="#000000" points="551.0409,-115.798 543.9639,-107.9134 544.5794,-118.4904 551.0409,-115.798"/>
</g>
<!-- liblockfile -->
<g id="node12" class="node">
<title>liblockfile</title>
<text text-anchor="middle" x="397.5" y="-302.3" font-family="Times,serif" font-size="14.00" fill="#000000">liblockfile</text>
</g>
<!-- liblockfile&#45;&gt;emacs&#45;common -->
<g id="edge20" class="edge">
<title>liblockfile&#45;&gt;emacs&#45;common</title>
<path fill="none" stroke="#000000" d="M376.3033,-287.8314C366.0566,-279.0485 353.5997,-268.3712 342.4903,-258.8489"/>
<polygon fill="#000000" stroke="#000000" points="344.5603,-256.0134 334.69,-252.1628 340.0048,-261.3282 344.5603,-256.0134"/>
</g>
<!-- nmap&#45;ncat&#45;&gt;nmap -->
<g id="edge27" class="edge">
<title>nmap&#45;ncat&#45;&gt;nmap</title>
<path fill="none" stroke="#000000" d="M841.0978,-143.8314C832.7886,-134.6273 822.6012,-123.3429 813.7039,-113.4873"/>
<polygon fill="#000000" stroke="#000000" points="816.2045,-111.0341 806.9054,-105.9568 811.0086,-115.7249 816.2045,-111.0341"/>
</g>
<!-- python2&#45;libs&#45;&gt;shared&#45;userspace -->
<g id="edge28" class="edge">
<title>python2&#45;libs&#45;&gt;shared&#45;userspace</title>
<path fill="none" stroke="#000000" d="M749.2564,-215.8314C736.2005,-206.7927 720.2465,-195.7476 706.1953,-186.0198"/>
<polygon fill="#000000" stroke="#000000" points="707.9494,-182.9773 697.7352,-180.1628 703.9649,-188.7326 707.9494,-182.9773"/>
</g>
<!-- python2&#45;libs&#45;&gt;rdiff&#45;backup -->
<g id="edge43" class="edge">
<title>python2&#45;libs&#45;&gt;rdiff&#45;backup</title>
<path fill="none" stroke="#000000" d="M778.3503,-215.7292C782.3882,-195.6453 791.6247,-163.6308 811.5,-144 833.5371,-122.2339 865.3036,-109.0378 893.0083,-101.1463"/>
<polygon fill="#000000" stroke="#000000" points="894.2496,-104.4374 903.006,-98.4728 892.4412,-97.675 894.2496,-104.4374"/>
</g>
<!-- python2&#45;pip -->
<g id="node17" class="node">
<title>python2&#45;pip</title>
<text text-anchor="middle" x="673.5" y="-230.3" font-family="Times,serif" font-size="14.00" fill="#000000">python2&#45;pip</text>
</g>
<!-- python2&#45;pip&#45;&gt;shared&#45;userspace -->
<g id="edge29" class="edge">
<title>python2&#45;pip&#45;&gt;shared&#45;userspace</title>
<path fill="none" stroke="#000000" d="M667.0429,-215.8314C666.0786,-208.131 665.6033,-198.9743 665.6743,-190.4166"/>
<polygon fill="#000000" stroke="#000000" points="669.1722,-190.5331 666.0355,-180.4133 662.1768,-190.2804 669.1722,-190.5331"/>
</g>
<!-- python2&#45;pip&#45;&gt;shared&#45;userspace -->
<g id="edge45" class="edge">
<title>python2&#45;pip&#45;&gt;shared&#45;userspace</title>
<path fill="none" stroke="#000000" d="M678.9477,-215.8314C679.4842,-208.131 679.4508,-198.9743 678.9044,-190.4166"/>
<polygon fill="#000000" stroke="#000000" points="682.3858,-190.052 677.9875,-180.4133 675.415,-190.691 682.3858,-190.052"/>
</g>
<!-- python2&#45;setuptools -->
<g id="node18" class="node">
<title>python2&#45;setuptools</title>
<text text-anchor="middle" x="183.5" y="-230.3" font-family="Times,serif" font-size="14.00" fill="#000000">python2&#45;setuptools</text>
</g>
<!-- python2&#45;setuptools&#45;&gt;shared&#45;userspace -->
<g id="edge30" class="edge">
<title>python2&#45;setuptools&#45;&gt;shared&#45;userspace</title>
<path fill="none" stroke="#000000" d="M243.9569,-215.9178C399.6621,-187.9435 442.8481,-209.5502 598.5,-180 601.264,-179.4753 604.0819,-178.8872 606.9262,-178.2528"/>
<polygon fill="#000000" stroke="#000000" points="607.7374,-181.6575 616.6578,-175.9411 606.1196,-174.8471 607.7374,-181.6575"/>
</g>
<!-- python2&#45;setuptools&#45;&gt;shared&#45;userspace -->
<g id="edge46" class="edge">
<title>python2&#45;setuptools&#45;&gt;shared&#45;userspace</title>
<path fill="none" stroke="#000000" d="M243.8704,-219.6588C249.8238,-218.2901 255.7734,-217.031 261.5,-216 414.2246,-188.5049 458.7911,-208.6706 606.9307,-181.7757"/>
<polygon fill="#000000" stroke="#000000" points="607.6478,-185.2024 616.8405,-179.9351 606.3694,-178.3201 607.6478,-185.2024"/>
</g>
<!-- python2&#45;appdirs -->
<g id="node19" class="node">
<title>python2&#45;appdirs</title>
<text text-anchor="middle" x="52.5" y="-302.3" font-family="Times,serif" font-size="14.00" fill="#000000">python2&#45;appdirs</text>
</g>
<!-- python2&#45;appdirs&#45;&gt;python2&#45;setuptools -->
<g id="edge31" class="edge">
<title>python2&#45;appdirs&#45;&gt;python2&#45;setuptools</title>
<path fill="none" stroke="#000000" d="M79.6044,-287.8314C95.7563,-278.4516 116.6251,-266.9112 135.4528,-256.9244"/>
<polygon fill="#000000" stroke="#000000" points="137.2821,-259.9168 144.5019,-252.1628 134.0224,-253.7221 137.2821,-259.9168"/>
</g>
<!-- python2&#45;appdirs&#45;&gt;python2&#45;setuptools -->
<g id="edge47" class="edge">
<title>python2&#45;appdirs&#45;&gt;python2&#45;setuptools</title>
<path fill="none" stroke="#000000" d="M91.5092,-287.8314C109.3259,-278.5368 130.231,-267.1208 147.6495,-257.1971"/>
<polygon fill="#000000" stroke="#000000" points="149.4808,-260.1815 156.4056,-252.1628 145.9917,-254.113 149.4808,-260.1815"/>
</g>
<!-- python2&#45;packaging -->
<g id="node20" class="node">
<title>python2&#45;packaging</title>
<text text-anchor="middle" x="183.5" y="-302.3" font-family="Times,serif" font-size="14.00" fill="#000000">python2&#45;packaging</text>
</g>
<!-- python2&#45;packaging&#45;&gt;python2&#45;setuptools -->
<g id="edge32" class="edge">
<title>python2&#45;packaging&#45;&gt;python2&#45;setuptools</title>
<path fill="none" stroke="#000000" d="M177.5476,-287.8314C176.7972,-280.131 176.5763,-270.9743 176.8849,-262.4166"/>
<polygon fill="#000000" stroke="#000000" points="180.3792,-262.6161 177.524,-252.4133 173.3935,-262.1697 180.3792,-262.6161"/>
</g>
<!-- python2&#45;packaging&#45;&gt;python2&#45;setuptools -->
<g id="edge48" class="edge">
<title>python2&#45;packaging&#45;&gt;python2&#45;setuptools</title>
<path fill="none" stroke="#000000" d="M189.4524,-287.8314C190.2028,-280.131 190.4237,-270.9743 190.1151,-262.4166"/>
<polygon fill="#000000" stroke="#000000" points="193.6065,-262.1697 189.476,-252.4133 186.6208,-262.6161 193.6065,-262.1697"/>
</g>
<!-- python2&#45;six -->
<g id="node21" class="node">
<title>python2&#45;six</title>
<text text-anchor="middle" x="302.5" y="-302.3" font-family="Times,serif" font-size="14.00" fill="#000000">python2&#45;six</text>
</g>
<!-- python2&#45;six&#45;&gt;python2&#45;setuptools -->
<g id="edge33" class="edge">
<title>python2&#45;six&#45;&gt;python2&#45;setuptools</title>
<path fill="none" stroke="#000000" d="M266.5189,-287.8314C250.5498,-278.7074 231.9453,-267.539 216.3553,-257.7449"/>
<polygon fill="#000000" stroke="#000000" points="217.885,-254.5701 207.5673,-252.1628 214.1318,-260.4789 217.885,-254.5701"/>
</g>
<!-- python2&#45;six&#45;&gt;python2&#45;setuptools -->
<g id="edge49" class="edge">
<title>python2&#45;six&#45;&gt;python2&#45;setuptools</title>
<path fill="none" stroke="#000000" d="M278.4237,-287.8314C263.9677,-278.5368 245.2338,-267.1208 228.195,-257.1971"/>
<polygon fill="#000000" stroke="#000000" points="229.8817,-254.1295 219.4709,-252.1628 226.383,-260.1925 229.8817,-254.1295"/>
</g>
<!-- python2&#45;pyparsing -->
<g id="node22" class="node">
<title>python2&#45;pyparsing</title>
<text text-anchor="middle" x="183.5" y="-374.3" font-family="Times,serif" font-size="14.00" fill="#000000">python2&#45;pyparsing</text>
</g>
<!-- python2&#45;pyparsing&#45;&gt;python2&#45;packaging -->
<g id="edge34" class="edge">
<title>python2&#45;pyparsing&#45;&gt;python2&#45;packaging</title>
<path fill="none" stroke="#000000" d="M177.5476,-359.8314C176.7972,-352.131 176.5763,-342.9743 176.8849,-334.4166"/>
<polygon fill="#000000" stroke="#000000" points="180.3792,-334.6161 177.524,-324.4133 173.3935,-334.1697 180.3792,-334.6161"/>
</g>
<!-- python2&#45;pyparsing&#45;&gt;python2&#45;packaging -->
<g id="edge50" class="edge">
<title>python2&#45;pyparsing&#45;&gt;python2&#45;packaging</title>
<path fill="none" stroke="#000000" d="M189.4524,-359.8314C190.2028,-352.131 190.4237,-342.9743 190.1151,-334.4166"/>
<polygon fill="#000000" stroke="#000000" points="193.6065,-334.1697 189.476,-324.4133 186.6208,-334.6161 193.6065,-334.1697"/>
</g>
<!-- librsync&#45;&gt;rdiff&#45;backup -->
<g id="edge41" class="edge">
<title>librsync&#45;&gt;rdiff&#45;backup</title>
<path fill="none" stroke="#000000" d="M973.1821,-143.8314C969.9636,-135.8406 966.1135,-126.2819 962.5568,-117.4514"/>
<polygon fill="#000000" stroke="#000000" points="965.6978,-115.8816 958.7151,-107.9134 959.2047,-118.4969 965.6978,-115.8816"/>
</g>
<!-- pylibacl&#45;&gt;rdiff&#45;backup -->
<g id="edge42" class="edge">
<title>pylibacl&#45;&gt;rdiff&#45;backup</title>
<path fill="none" stroke="#000000" d="M1031.4994,-143.8314C1017.1121,-134.1502 999.3042,-122.1673 984.1449,-111.9667"/>
<polygon fill="#000000" stroke="#000000" points="985.8218,-108.8764 975.5712,-106.1975 981.9138,-114.684 985.8218,-108.8764"/>
</g>
<!-- pyxattr&#45;&gt;rdiff&#45;backup -->
<g id="edge44" class="edge">
<title>pyxattr&#45;&gt;rdiff&#45;backup</title>
<path fill="none" stroke="#000000" d="M1106.7553,-148.1394C1103.6527,-146.698 1100.5221,-145.2903 1097.5,-144 1065.2615,-130.2359 1028.2114,-116.5569 999.5015,-106.4103"/>
<polygon fill="#000000" stroke="#000000" points="1000.3107,-102.985 989.7159,-102.9743 997.9916,-109.5897 1000.3107,-102.985"/>
</g>
<!-- wireshark -->
<g id="node36" class="node">
<title>wireshark</title>
<ellipse fill="none" stroke="#000000" cx="1514.5" cy="-18" rx="45.4919" ry="18"/>
<text text-anchor="middle" x="1514.5" y="-14.3" font-family="Times,serif" font-size="14.00" fill="#000000">wireshark</text>
</g>
<!-- wireshark&#45;cli&#45;&gt;wireshark -->
<g id="edge64" class="edge">
<title>wireshark&#45;cli&#45;&gt;wireshark</title>
<path fill="none" stroke="#000000" d="M1514.5,-71.8314C1514.5,-64.131 1514.5,-54.9743 1514.5,-46.4166"/>
<polygon fill="#000000" stroke="#000000" points="1518.0001,-46.4132 1514.5,-36.4133 1511.0001,-46.4133 1518.0001,-46.4132"/>
</g>
<!-- GeoIP -->
<g id="node31" class="node">
<title>GeoIP</title>
<text text-anchor="middle" x="1699.5" y="-158.3" font-family="Times,serif" font-size="14.00" fill="#000000">GeoIP</text>
</g>
<!-- GeoIP&#45;&gt;wireshark&#45;cli -->
<g id="edge65" class="edge">
<title>GeoIP&#45;&gt;wireshark&#45;cli</title>
<path fill="none" stroke="#000000" d="M1672.2026,-151.3762C1644.9166,-140.7567 1602.2295,-124.1434 1568.1446,-110.8779"/>
<polygon fill="#000000" stroke="#000000" points="1569.3676,-107.5982 1558.779,-107.2329 1566.8287,-114.1216 1569.3676,-107.5982"/>
</g>
<!-- libnl3 -->
<g id="node32" class="node">
<title>libnl3</title>
<text text-anchor="middle" x="1550.5" y="-158.3" font-family="Times,serif" font-size="14.00" fill="#000000">libnl3</text>
</g>
<!-- libnl3&#45;&gt;wireshark&#45;cli -->
<g id="edge66" class="edge">
<title>libnl3&#45;&gt;wireshark&#45;cli</title>
<path fill="none" stroke="#000000" d="M1541.4157,-143.8314C1537.4385,-135.8771 1532.6845,-126.369 1528.2861,-117.5723"/>
<polygon fill="#000000" stroke="#000000" points="1531.3093,-115.7923 1523.7066,-108.4133 1525.0483,-118.9228 1531.3093,-115.7923"/>
</g>
<!-- libsmi&#45;&gt;wireshark&#45;cli -->
<g id="edge67" class="edge">
<title>libsmi&#45;&gt;wireshark&#45;cli</title>
<path fill="none" stroke="#000000" d="M1487.5843,-143.8314C1491.5615,-135.8771 1496.3155,-126.369 1500.7139,-117.5723"/>
<polygon fill="#000000" stroke="#000000" points="1503.9517,-118.9228 1505.2934,-108.4133 1497.6907,-115.7923 1503.9517,-118.9228"/>
</g>
<!-- GeoIP&#45;GeoLite&#45;data -->
<g id="node34" class="node">
<title>GeoIP&#45;GeoLite&#45;data</title>
<text text-anchor="middle" x="1776.5" y="-230.3" font-family="Times,serif" font-size="14.00" fill="#000000">GeoIP&#45;GeoLite&#45;data</text>
</g>
<!-- GeoIP&#45;GeoLite&#45;data&#45;&gt;GeoIP -->
<g id="edge68" class="edge">
<title>GeoIP&#45;GeoLite&#45;data&#45;&gt;GeoIP</title>
<path fill="none" stroke="#000000" d="M1757.0696,-215.8314C1747.768,-207.1337 1736.4796,-196.5783 1726.3714,-187.1265"/>
<polygon fill="#000000" stroke="#000000" points="1728.6189,-184.4363 1718.9241,-180.1628 1723.8379,-189.5493 1728.6189,-184.4363"/>
</g>
<!-- wget&#45;&gt;libsmi -->
<g id="edge69" class="edge">
<title>wget&#45;&gt;libsmi</title>
<path fill="none" stroke="#000000" d="M1492.7055,-215.8314C1490.6511,-208.0463 1488.204,-198.7729 1485.9244,-190.1347"/>
<polygon fill="#000000" stroke="#000000" points="1489.2948,-189.1892 1483.3591,-180.4133 1482.5265,-190.9753 1489.2948,-189.1892"/>
</g>
</g>
</svg>
