<?xml version="1.0" encoding="UTF-8" standalone="no"?>
<!DOCTYPE svg PUBLIC "-//W3C//DTD SVG 1.1//EN"
 "http://www.w3.org/Graphics/SVG/1.1/DTD/svg11.dtd">
<!-- Generated by graphviz version 2.40.1 (20161225.0304)
 -->
<!-- Title: G Pages: 1 -->
<svg width="1084pt" height="476pt"
 viewBox="0.00 0.00 1084.24 476.00" xmlns="http://www.w3.org/2000/svg" xmlns:xlink="http://www.w3.org/1999/xlink">
<g id="graph0" class="graph" transform="scale(1 1) rotate(0) translate(4 472)">
<title>G</title>
<polygon fill="#ffffff" stroke="transparent" points="-4,4 -4,-472 1080.2399,-472 1080.2399,4 -4,4"/>
<!-- postgresql -->
<g id="node1" class="node">
<title>postgresql</title>
<text text-anchor="middle" x="235.5" y="-86.3" font-family="Times,serif" font-size="14.00" fill="#000000">postgresql</text>
</g>
<!-- requested by user -->
<g id="node27" class="node">
<title>requested by user</title>
<ellipse fill="none" stroke="#000000" cx="235.5" cy="-18" rx="72.5877" ry="18"/>
<text text-anchor="middle" x="235.5" y="-14.3" font-family="Times,serif" font-size="14.00" fill="#000000">requested by user</text>
</g>
<!-- postgresql&#45;&gt;requested by user -->
<g id="edge1" class="edge">
<title>postgresql&#45;&gt;requested by user</title>
<path fill="none" stroke="#000000" d="M235.5,-71.8314C235.5,-64.131 235.5,-54.9743 235.5,-46.4166"/>
<polygon fill="#000000" stroke="#000000" points="239.0001,-46.4132 235.5,-36.4133 232.0001,-46.4133 239.0001,-46.4132"/>
</g>
<!-- postgresql&#45;libs -->
<g id="node2" class="node">
<title>postgresql&#45;libs</title>
<text text-anchor="middle" x="197.5" y="-158.3" font-family="Times,serif" font-size="14.00" fill="#000000">postgresql&#45;libs</text>
</g>
<!-- postgresql&#45;libs&#45;&gt;postgresql -->
<g id="edge2" class="edge">
<title>postgresql&#45;libs&#45;&gt;postgresql</title>
<path fill="none" stroke="#000000" d="M207.089,-143.8314C211.3317,-135.7925 216.4121,-126.1666 221.096,-117.2918"/>
<polygon fill="#000000" stroke="#000000" points="224.2096,-118.8908 225.7819,-108.4133 218.0189,-115.6235 224.2096,-118.8908"/>
</g>
<!-- glibc&#45;common -->
<g id="node3" class="node">
<title>glibc&#45;common</title>
<text text-anchor="middle" x="365.5" y="-230.3" font-family="Times,serif" font-size="14.00" fill="#000000">glibc&#45;common</text>
</g>
<!-- base&#45;runtime -->
<g id="node24" class="node">
<title>base&#45;runtime</title>
<ellipse fill="none" stroke="#000000" cx="417.5" cy="-306" rx="57.3905" ry="18"/>
<text text-anchor="middle" x="417.5" y="-302.3" font-family="Times,serif" font-size="14.00" fill="#000000">base&#45;runtime</text>
</g>
<!-- glibc&#45;common&#45;&gt;base&#45;runtime -->
<g id="edge3" class="edge">
<title>glibc&#45;common&#45;&gt;base&#45;runtime</title>
<path fill="none" stroke="#000000" d="M384.7745,-252.4133C391.4446,-260.569 398.6784,-270.3212 404.7332,-279.257"/>
<polygon fill="#000000" stroke="#000000" points="401.9334,-281.3709 410.3306,-287.8314 407.795,-277.5444 401.9334,-281.3709"/>
</g>
<!-- krb5&#45;libs -->
<g id="node4" class="node">
<title>krb5&#45;libs</title>
<text text-anchor="middle" x="90.5" y="-230.3" font-family="Times,serif" font-size="14.00" fill="#000000">krb5&#45;libs</text>
</g>
<!-- krb5&#45;libs&#45;&gt;postgresql&#45;libs -->
<g id="edge4" class="edge">
<title>krb5&#45;libs&#45;&gt;postgresql&#45;libs</title>
<path fill="none" stroke="#000000" d="M117.5006,-215.8314C130.9331,-206.7927 147.3473,-195.7476 161.8039,-186.0198"/>
<polygon fill="#000000" stroke="#000000" points="164.1654,-188.6494 170.508,-180.1628 160.2575,-182.8418 164.1654,-188.6494"/>
</g>
<!-- openssl&#45;libs -->
<g id="node5" class="node">
<title>openssl&#45;libs</title>
<text text-anchor="middle" x="181.5" y="-230.3" font-family="Times,serif" font-size="14.00" fill="#000000">openssl&#45;libs</text>
</g>
<!-- openssl&#45;libs&#45;&gt;postgresql&#45;libs -->
<g id="edge5" class="edge">
<title>openssl&#45;libs&#45;&gt;postgresql&#45;libs</title>
<path fill="none" stroke="#000000" d="M185.5375,-215.8314C187.2487,-208.131 189.2835,-198.9743 191.1852,-190.4166"/>
<polygon fill="#000000" stroke="#000000" points="194.6554,-190.9344 193.4082,-180.4133 187.8221,-189.4159 194.6554,-190.9344"/>
</g>
<!-- info -->
<g id="node6" class="node">
<title>info</title>
<text text-anchor="middle" x="59.5" y="-374.3" font-family="Times,serif" font-size="14.00" fill="#000000">info</text>
</g>
<!-- info&#45;&gt;base&#45;runtime -->
<g id="edge6" class="edge">
<title>info&#45;&gt;base&#45;runtime</title>
<path fill="none" stroke="#000000" d="M86.6606,-363.3716C89.5946,-362.1089 92.5766,-360.9523 95.5,-360 181.5754,-331.9617 285.5737,-317.8906 351.6327,-311.272"/>
<polygon fill="#000000" stroke="#000000" points="352.2865,-314.725 361.9005,-310.2727 351.6084,-307.7579 352.2865,-314.725"/>
</g>
<!-- ncurses&#45;libs -->
<g id="node7" class="node">
<title>ncurses&#45;libs</title>
<text text-anchor="middle" x="145.5" y="-374.3" font-family="Times,serif" font-size="14.00" fill="#000000">ncurses&#45;libs</text>
</g>
<!-- ncurses&#45;libs&#45;&gt;base&#45;runtime -->
<g id="edge7" class="edge">
<title>ncurses&#45;libs&#45;&gt;base&#45;runtime</title>
<path fill="none" stroke="#000000" d="M186.0208,-362.7089C188.8782,-361.7559 191.725,-360.8426 194.5,-360 249.9567,-343.16 314.4088,-328.019 359.718,-318.0854"/>
<polygon fill="#000000" stroke="#000000" points="360.6305,-321.4688 369.6575,-315.9224 359.142,-314.6289 360.6305,-321.4688"/>
</g>
<!-- keyutils&#45;libs -->
<g id="node8" class="node">
<title>keyutils&#45;libs</title>
<text text-anchor="middle" x="41.5" y="-302.3" font-family="Times,serif" font-size="14.00" fill="#000000">keyutils&#45;libs</text>
</g>
<!-- keyutils&#45;libs&#45;&gt;krb5&#45;libs -->
<g id="edge8" class="edge">
<title>keyutils&#45;libs&#45;&gt;krb5&#45;libs</title>
<path fill="none" stroke="#000000" d="M53.8648,-287.8314C59.4509,-279.6232 66.163,-269.7606 72.3072,-260.7323"/>
<polygon fill="#000000" stroke="#000000" points="75.236,-262.6496 77.9687,-252.4133 69.449,-258.7112 75.236,-262.6496"/>
</g>
<!-- libcom_err -->
<g id="node9" class="node">
<title>libcom_err</title>
<text text-anchor="middle" x="139.5" y="-302.3" font-family="Times,serif" font-size="14.00" fill="#000000">libcom_err</text>
</g>
<!-- libcom_err&#45;&gt;krb5&#45;libs -->
<g id="edge9" class="edge">
<title>libcom_err&#45;&gt;krb5&#45;libs</title>
<path fill="none" stroke="#000000" d="M127.1352,-287.8314C121.5491,-279.6232 114.837,-269.7606 108.6928,-260.7323"/>
<polygon fill="#000000" stroke="#000000" points="111.551,-258.7112 103.0313,-252.4133 105.764,-262.6496 111.551,-258.7112"/>
</g>
<!-- cyrus&#45;sasl&#45;lib -->
<g id="node10" class="node">
<title>cyrus&#45;sasl&#45;lib</title>
<text text-anchor="middle" x="671.5" y="-230.3" font-family="Times,serif" font-size="14.00" fill="#000000">cyrus&#45;sasl&#45;lib</text>
</g>
<!-- cyrus&#45;sasl&#45;lib&#45;&gt;base&#45;runtime -->
<g id="edge10" class="edge">
<title>cyrus&#45;sasl&#45;lib&#45;&gt;base&#45;runtime</title>
<path fill="none" stroke="#000000" d="M626.7841,-251.9143C626.6893,-251.9429 626.5946,-251.9715 626.5,-252 575.6517,-267.3252 516.9217,-282.9371 474.5927,-293.4062"/>
<polygon fill="#000000" stroke="#000000" points="473.6196,-290.041 464.741,-295.8221 475.2869,-296.8396 473.6196,-290.041"/>
</g>
<!-- nss&#45;tools -->
<g id="node11" class="node">
<title>nss&#45;tools</title>
<text text-anchor="middle" x="236.5" y="-374.3" font-family="Times,serif" font-size="14.00" fill="#000000">nss&#45;tools</text>
</g>
<!-- nss&#45;tools&#45;&gt;base&#45;runtime -->
<g id="edge11" class="edge">
<title>nss&#45;tools&#45;&gt;base&#45;runtime</title>
<path fill="none" stroke="#000000" d="M269.013,-363.9353C272.2125,-362.5906 275.4154,-361.2597 278.5,-360 309.2382,-347.4468 344.064,-333.9186 371.1673,-323.5428"/>
<polygon fill="#000000" stroke="#000000" points="372.6887,-326.7084 380.7814,-319.8704 370.1908,-320.1692 372.6887,-326.7084"/>
</g>
<!-- ncurses&#45;base -->
<g id="node12" class="node">
<title>ncurses&#45;base</title>
<text text-anchor="middle" x="145.5" y="-446.3" font-family="Times,serif" font-size="14.00" fill="#000000">ncurses&#45;base</text>
</g>
<!-- ncurses&#45;base&#45;&gt;ncurses&#45;libs -->
<g id="edge12" class="edge">
<title>ncurses&#45;base&#45;&gt;ncurses&#45;libs</title>
<path fill="none" stroke="#000000" d="M145.5,-431.8314C145.5,-424.131 145.5,-414.9743 145.5,-406.4166"/>
<polygon fill="#000000" stroke="#000000" points="149.0001,-406.4132 145.5,-396.4133 142.0001,-406.4133 149.0001,-406.4132"/>
</g>
<!-- libacl -->
<g id="node13" class="node">
<title>libacl</title>
<text text-anchor="middle" x="314.5" y="-374.3" font-family="Times,serif" font-size="14.00" fill="#000000">libacl</text>
</g>
<!-- libacl&#45;&gt;base&#45;runtime -->
<g id="edge13" class="edge">
<title>libacl&#45;&gt;base&#45;runtime</title>
<path fill="none" stroke="#000000" d="M340.4912,-359.8314C354.2411,-350.2198 371.2364,-338.3396 385.7601,-328.1871"/>
<polygon fill="#000000" stroke="#000000" points="387.7919,-331.0372 393.9827,-322.4393 383.7814,-325.3 387.7919,-331.0372"/>
</g>
<!-- nss&#45;sysinit -->
<g id="node14" class="node">
<title>nss&#45;sysinit</title>
<text text-anchor="middle" x="469.5" y="-230.3" font-family="Times,serif" font-size="14.00" fill="#000000">nss&#45;sysinit</text>
</g>
<!-- nss&#45;sysinit&#45;&gt;base&#45;runtime -->
<g id="edge14" class="edge">
<title>nss&#45;sysinit&#45;&gt;base&#45;runtime</title>
<path fill="none" stroke="#000000" d="M462.423,-252.0206C457.029,-260.6698 449.6182,-271.1819 442.3094,-280.6232"/>
<polygon fill="#000000" stroke="#000000" points="439.4687,-278.5717 435.966,-288.5708 444.9397,-282.9384 439.4687,-278.5717"/>
</g>
<!-- p11&#45;kit&#45;trust -->
<g id="node15" class="node">
<title>p11&#45;kit&#45;trust</title>
<text text-anchor="middle" x="566.5" y="-230.3" font-family="Times,serif" font-size="14.00" fill="#000000">p11&#45;kit&#45;trust</text>
</g>
<!-- p11&#45;kit&#45;trust&#45;&gt;base&#45;runtime -->
<g id="edge15" class="edge">
<title>p11&#45;kit&#45;trust&#45;&gt;base&#45;runtime</title>
<path fill="none" stroke="#000000" d="M535.0259,-252.0811C513.7481,-262.8748 485.4574,-276.553 461.9166,-287.4318"/>
<polygon fill="#000000" stroke="#000000" points="460.4516,-284.2531 452.8206,-291.6028 463.3694,-290.616 460.4516,-284.2531"/>
</g>
<!-- libattr -->
<g id="node16" class="node">
<title>libattr</title>
<text text-anchor="middle" x="314.5" y="-446.3" font-family="Times,serif" font-size="14.00" fill="#000000">libattr</text>
</g>
<!-- libattr&#45;&gt;libacl -->
<g id="edge16" class="edge">
<title>libattr&#45;&gt;libacl</title>
<path fill="none" stroke="#000000" d="M314.5,-431.8314C314.5,-424.131 314.5,-414.9743 314.5,-406.4166"/>
<polygon fill="#000000" stroke="#000000" points="318.0001,-406.4132 314.5,-396.4133 311.0001,-406.4133 318.0001,-406.4132"/>
</g>
<!-- nss&#45;softokn&#45;freebl -->
<g id="node17" class="node">
<title>nss&#45;softokn&#45;freebl</title>
<text text-anchor="middle" x="417.5" y="-374.3" font-family="Times,serif" font-size="14.00" fill="#000000">nss&#45;softokn&#45;freebl</text>
</g>
<!-- nss&#45;softokn&#45;freebl&#45;&gt;base&#45;runtime -->
<g id="edge17" class="edge">
<title>nss&#45;softokn&#45;freebl&#45;&gt;base&#45;runtime</title>
<path fill="none" stroke="#000000" d="M417.5,-359.8314C417.5,-352.131 417.5,-342.9743 417.5,-334.4166"/>
<polygon fill="#000000" stroke="#000000" points="421.0001,-334.4132 417.5,-324.4133 414.0001,-334.4133 421.0001,-334.4132"/>
</g>
<!-- sqlite&#45;libs -->
<g id="node18" class="node">
<title>sqlite&#45;libs</title>
<text text-anchor="middle" x="528.5" y="-374.3" font-family="Times,serif" font-size="14.00" fill="#000000">sqlite&#45;libs</text>
</g>
<!-- sqlite&#45;libs&#45;&gt;base&#45;runtime -->
<g id="edge18" class="edge">
<title>sqlite&#45;libs&#45;&gt;base&#45;runtime</title>
<path fill="none" stroke="#000000" d="M500.49,-359.8314C485.4254,-350.0597 466.7457,-337.9432 450.9251,-327.6811"/>
<polygon fill="#000000" stroke="#000000" points="452.7654,-324.703 442.4711,-322.1975 448.956,-330.5758 452.7654,-324.703"/>
</g>
<!-- fedora&#45;release -->
<g id="node19" class="node">
<title>fedora&#45;release</title>
<text text-anchor="middle" x="628.5" y="-374.3" font-family="Times,serif" font-size="14.00" fill="#000000">fedora&#45;release</text>
</g>
<!-- fedora&#45;release&#45;&gt;base&#45;runtime -->
<g id="edge19" class="edge">
<title>fedora&#45;release&#45;&gt;base&#45;runtime</title>
<path fill="none" stroke="#000000" d="M581.9339,-362.1102C547.5449,-350.3755 500.8554,-334.4436 466.0136,-322.5544"/>
<polygon fill="#000000" stroke="#000000" points="467.1151,-319.2322 456.5206,-319.3151 464.8544,-325.8571 467.1151,-319.2322"/>
</g>
<!-- fedora&#45;repos -->
<g id="node20" class="node">
<title>fedora&#45;repos</title>
<text text-anchor="middle" x="628.5" y="-446.3" font-family="Times,serif" font-size="14.00" fill="#000000">fedora&#45;repos</text>
</g>
<!-- fedora&#45;repos&#45;&gt;fedora&#45;release -->
<g id="edge20" class="edge">
<title>fedora&#45;repos&#45;&gt;fedora&#45;release</title>
<path fill="none" stroke="#000000" d="M628.5,-431.8314C628.5,-424.131 628.5,-414.9743 628.5,-406.4166"/>
<polygon fill="#000000" stroke="#000000" points="632.0001,-406.4132 628.5,-396.4133 625.0001,-406.4133 632.0001,-406.4132"/>
</g>
<!-- coreutils&#45;common -->
<g id="node21" class="node">
<title>coreutils&#45;common</title>
<text text-anchor="middle" x="751.5" y="-374.3" font-family="Times,serif" font-size="14.00" fill="#000000">coreutils&#45;common</text>
</g>
<!-- coreutils&#45;common&#45;&gt;base&#45;runtime -->
<g id="edge21" class="edge">
<title>coreutils&#45;common&#45;&gt;base&#45;runtime</title>
<path fill="none" stroke="#000000" d="M693.4518,-362.1655C690.4287,-361.4158 687.4311,-360.6894 684.5,-360 613.7878,-343.368 531.8098,-327.2544 477.5416,-317.0246"/>
<polygon fill="#000000" stroke="#000000" points="477.8789,-313.5268 467.4048,-315.1214 476.5872,-320.4066 477.8789,-313.5268"/>
</g>
<!-- glibc&#45;all&#45;langpacks -->
<g id="node22" class="node">
<title>glibc&#45;all&#45;langpacks</title>
<text text-anchor="middle" x="887.5" y="-374.3" font-family="Times,serif" font-size="14.00" fill="#000000">glibc&#45;all&#45;langpacks</text>
</g>
<!-- glibc&#45;all&#45;langpacks&#45;&gt;base&#45;runtime -->
<g id="edge22" class="edge">
<title>glibc&#45;all&#45;langpacks&#45;&gt;base&#45;runtime</title>
<path fill="none" stroke="#000000" d="M827.3882,-361.86C824.3902,-361.1992 821.4152,-360.5743 818.5,-360 701.0909,-336.8691 562.3735,-320.611 482.6957,-312.3213"/>
<polygon fill="#000000" stroke="#000000" points="482.6341,-308.7965 472.328,-311.2531 481.9165,-315.7597 482.6341,-308.7965"/>
</g>
<!-- libcrypt&#45;nss -->
<g id="node23" class="node">
<title>libcrypt&#45;nss</title>
<text text-anchor="middle" x="671.5" y="-302.3" font-family="Times,serif" font-size="14.00" fill="#000000">libcrypt&#45;nss</text>
</g>
<!-- libcrypt&#45;nss&#45;&gt;cyrus&#45;sasl&#45;lib -->
<g id="edge23" class="edge">
<title>libcrypt&#45;nss&#45;&gt;cyrus&#45;sasl&#45;lib</title>
<path fill="none" stroke="#000000" d="M671.5,-287.8314C671.5,-280.131 671.5,-270.9743 671.5,-262.4166"/>
<polygon fill="#000000" stroke="#000000" points="675.0001,-262.4132 671.5,-252.4133 668.0001,-262.4133 675.0001,-262.4132"/>
</g>
<!-- base&#45;runtime&#45;&gt;postgresql -->
<g id="edge26" class="edge">
<title>base&#45;runtime&#45;&gt;postgresql</title>
<path fill="none" stroke="#000000" d="M376.1288,-293.5117C353.4556,-284.9075 326.2372,-271.4655 307.5,-252 288.0692,-231.8139 259.858,-158.3977 245.1844,-117.6778"/>
<polygon fill="#000000" stroke="#000000" points="248.4173,-116.3233 241.7591,-108.082 241.8247,-118.6767 248.4173,-116.3233"/>
</g>
<!-- base&#45;runtime&#45;&gt;postgresql&#45;libs -->
<g id="edge29" class="edge">
<title>base&#45;runtime&#45;&gt;postgresql&#45;libs</title>
<path fill="none" stroke="#000000" d="M371.8389,-295.1031C342.2681,-286.5783 303.9303,-272.6605 274.5,-252 250.1634,-234.9154 228.7526,-208.4163 214.727,-188.5891"/>
<polygon fill="#000000" stroke="#000000" points="217.556,-186.5262 209.0001,-180.2774 211.7918,-190.4979 217.556,-186.5262"/>
</g>
<!-- base&#45;runtime&#45;&gt;glibc&#45;common -->
<g id="edge31" class="edge">
<title>base&#45;runtime&#45;&gt;glibc&#45;common</title>
<path fill="none" stroke="#000000" d="M399.034,-288.5708C392.1095,-280.1815 384.4913,-269.9392 378.1723,-260.6035"/>
<polygon fill="#000000" stroke="#000000" points="380.9702,-258.4863 372.577,-252.0206 375.1062,-262.3091 380.9702,-258.4863"/>
</g>
<!-- base&#45;runtime&#45;&gt;krb5&#45;libs -->
<g id="edge25" class="edge">
<title>base&#45;runtime&#45;&gt;krb5&#45;libs</title>
<path fill="none" stroke="#000000" d="M363.9098,-299.5835C307.9313,-292.062 217.6724,-277.6247 133.1205,-252.1891"/>
<polygon fill="#000000" stroke="#000000" points="133.9592,-248.7854 123.3724,-249.199 131.9064,-255.4777 133.9592,-248.7854"/>
</g>
<!-- base&#45;runtime&#45;&gt;openssl&#45;libs -->
<g id="edge32" class="edge">
<title>base&#45;runtime&#45;&gt;openssl&#45;libs</title>
<path fill="none" stroke="#000000" d="M375.3453,-293.7649C338.6008,-283.0186 283.9155,-266.8291 236.5,-252 234.8849,-251.4949 233.2442,-250.9783 231.5883,-250.4539"/>
<polygon fill="#000000" stroke="#000000" points="232.6011,-247.1033 222.0102,-247.3918 230.4694,-253.7708 232.6011,-247.1033"/>
</g>
<!-- base&#45;runtime&#45;&gt;cyrus&#45;sasl&#45;lib -->
<g id="edge28" class="edge">
<title>base&#45;runtime&#45;&gt;cyrus&#45;sasl&#45;lib</title>
<path fill="none" stroke="#000000" d="M459.3871,-293.5839C498.2549,-283.1143 557.3632,-267.4121 608.5,-252 611.3873,-251.1298 614.3536,-250.2113 617.3541,-249.2684"/>
<polygon fill="#000000" stroke="#000000" points="618.5295,-252.5674 626.9996,-246.2028 616.4092,-245.8962 618.5295,-252.5674"/>
</g>
<!-- base&#45;runtime&#45;&gt;nss&#45;sysinit -->
<g id="edge24" class="edge">
<title>base&#45;runtime&#45;&gt;nss&#45;sysinit</title>
<path fill="none" stroke="#000000" d="M424.6694,-287.8314C429.8505,-279.5386 436.8654,-269.557 443.8603,-260.4533"/>
<polygon fill="#000000" stroke="#000000" points="446.7625,-262.4262 450.2255,-252.4133 441.2742,-258.0812 446.7625,-262.4262"/>
</g>
<!-- base&#45;runtime&#45;&gt;p11&#45;kit&#45;trust -->
<g id="edge30" class="edge">
<title>base&#45;runtime&#45;&gt;p11&#45;kit&#45;trust</title>
<path fill="none" stroke="#000000" d="M444.8479,-290.0209C464.5031,-279.9629 491.4632,-266.8479 515.0487,-255.8362"/>
<polygon fill="#000000" stroke="#000000" points="516.6387,-258.957 524.2378,-251.5743 513.6934,-252.6068 516.6387,-258.957"/>
</g>
<!-- base&#45;runtime&#45;&gt;base&#45;runtime -->
<g id="edge27" class="edge">
<title>base&#45;runtime&#45;&gt;base&#45;runtime</title>
<path fill="none" stroke="#000000" d="M456.96,-319.1704C475.9401,-320.7964 492.6949,-316.4063 492.6949,-306 492.6949,-297.5449 481.6341,-293.0614 467.3058,-292.5495"/>
<polygon fill="#000000" stroke="#000000" points="466.8615,-289.0601 456.96,-292.8296 467.051,-296.0576 466.8615,-289.0601"/>
</g>
<!-- shared&#45;userspace -->
<g id="node25" class="node">
<title>shared&#45;userspace</title>
<ellipse fill="none" stroke="#000000" cx="759.5" cy="-450" rx="70.6878" ry="18"/>
<text text-anchor="middle" x="759.5" y="-446.3" font-family="Times,serif" font-size="14.00" fill="#000000">shared&#45;userspace</text>
</g>
<!-- common&#45;build&#45;dependencies -->
<g id="node26" class="node">
<title>common&#45;build&#45;dependencies</title>
<ellipse fill="none" stroke="#000000" cx="962.5" cy="-450" rx="113.9803" ry="18"/>
<text text-anchor="middle" x="962.5" y="-446.3" font-family="Times,serif" font-size="14.00" fill="#000000">common&#45;build&#45;dependencies</text>
</g>
</g>
</svg>
