<?xml version="1.0" encoding="UTF-8" standalone="no"?>
<!DOCTYPE svg PUBLIC "-//W3C//DTD SVG 1.1//EN"
 "http://www.w3.org/Graphics/SVG/1.1/DTD/svg11.dtd">
<!-- Generated by graphviz version 2.40.1 (20161225.0304)
 -->
<!-- Title: G Pages: 1 -->
<svg width="789pt" height="260pt"
 viewBox="0.00 0.00 788.50 260.00" xmlns="http://www.w3.org/2000/svg" xmlns:xlink="http://www.w3.org/1999/xlink">
<g id="graph0" class="graph" transform="scale(1 1) rotate(0) translate(4 256)">
<title>G</title>
<polygon fill="#ffffff" stroke="transparent" points="-4,4 -4,-256 784.5,-256 784.5,4 -4,4"/>
<!-- postgresql&#45;libs -->
<g id="node1" class="node">
<title>postgresql&#45;libs</title>
<text text-anchor="middle" x="230.5" y="-158.3" font-family="Times,serif" font-size="14.00" fill="#000000">postgresql&#45;libs</text>
</g>
<!-- postgresql -->
<g id="node3" class="node">
<title>postgresql</title>
<ellipse fill="none" stroke="#000000" cx="240.5" cy="-90" rx="46.5926" ry="18"/>
<text text-anchor="middle" x="240.5" y="-86.3" font-family="Times,serif" font-size="14.00" fill="#000000">postgresql</text>
</g>
<!-- postgresql&#45;libs&#45;&gt;postgresql -->
<g id="edge1" class="edge">
<title>postgresql&#45;libs&#45;&gt;postgresql</title>
<path fill="none" stroke="#000000" d="M233.0234,-143.8314C234.0929,-136.131 235.3647,-126.9743 236.5532,-118.4166"/>
<polygon fill="#000000" stroke="#000000" points="240.0336,-118.7997 237.9426,-108.4133 233.1001,-117.8367 240.0336,-118.7997"/>
</g>
<!-- base&#45;runtime -->
<g id="node2" class="node">
<title>base&#45;runtime</title>
<polygon fill="none" stroke="#000000" points="320.5,-252 232.5,-252 232.5,-216 320.5,-216 320.5,-252"/>
<text text-anchor="middle" x="276.5" y="-230.3" font-family="Times,serif" font-size="14.00" fill="#000000">base&#45;runtime</text>
</g>
<!-- base&#45;runtime&#45;&gt;postgresql&#45;libs -->
<g id="edge4" class="edge">
<title>base&#45;runtime&#45;&gt;postgresql&#45;libs</title>
<path fill="none" stroke="#000000" d="M264.8923,-215.8314C259.7022,-207.7079 253.4768,-197.9637 247.7575,-189.0118"/>
<polygon fill="#000000" stroke="#000000" points="250.5974,-186.9559 242.264,-180.4133 244.6985,-190.7246 250.5974,-186.9559"/>
</g>
<!-- base&#45;runtime&#45;&gt;base&#45;runtime -->
<g id="edge2" class="edge">
<title>base&#45;runtime&#45;&gt;base&#45;runtime</title>
<path fill="none" stroke="#000000" d="M320.5244,-240.6165C330.8686,-240.0727 338.5,-237.8672 338.5,-234 338.5,-231.583 335.519,-229.8151 330.7578,-228.6963"/>
<polygon fill="#000000" stroke="#000000" points="330.8885,-225.1845 320.5244,-227.3835 329.9977,-232.1276 330.8885,-225.1845"/>
</g>
<!-- base&#45;runtime&#45;&gt;base&#45;runtime -->
<g id="edge18" class="edge">
<title>base&#45;runtime&#45;&gt;base&#45;runtime</title>
<path fill="none" stroke="#000000" d="M320.5194,-247.3146C339.8586,-248.4929 356.5,-244.0547 356.5,-234 356.5,-225.752 345.3018,-221.2834 330.6022,-220.5943"/>
<polygon fill="#000000" stroke="#000000" points="330.4873,-217.0951 320.5194,-220.6854 330.5507,-224.0948 330.4873,-217.0951"/>
</g>
<!-- base&#45;runtime&#45;&gt;postgresql -->
<g id="edge3" class="edge">
<title>base&#45;runtime&#45;&gt;postgresql</title>
<path fill="none" stroke="#000000" d="M232.3911,-222.6256C210.6321,-214.5458 186.3524,-201.2498 173.5,-180 165.2195,-166.3093 166.5952,-158.4334 173.5,-144 180.1004,-130.2031 192.1365,-118.8052 204.2053,-110.094"/>
<polygon fill="#000000" stroke="#000000" points="206.1687,-112.9915 212.4994,-104.496 202.2526,-107.1894 206.1687,-112.9915"/>
</g>
<!-- httpd -->
<g id="node4" class="node">
<title>httpd</title>
<text text-anchor="middle" x="434.5" y="-86.3" font-family="Times,serif" font-size="14.00" fill="#000000">httpd</text>
</g>
<!-- base&#45;runtime&#45;&gt;httpd -->
<g id="edge17" class="edge">
<title>base&#45;runtime&#45;&gt;httpd</title>
<path fill="none" stroke="#000000" d="M309.2305,-215.8314C325.1972,-206.2115 344.2071,-193.5878 359.5,-180 380.9919,-160.9043 401.6157,-135.4574 415.7777,-116.4949"/>
<polygon fill="#000000" stroke="#000000" points="418.7095,-118.4158 421.8098,-108.2847 413.0683,-114.2712 418.7095,-118.4158"/>
</g>
<!-- httpd&#45;filesystem -->
<g id="node5" class="node">
<title>httpd&#45;filesystem</title>
<text text-anchor="middle" x="123.5" y="-86.3" font-family="Times,serif" font-size="14.00" fill="#000000">httpd&#45;filesystem</text>
</g>
<!-- base&#45;runtime&#45;&gt;httpd&#45;filesystem -->
<g id="edge14" class="edge">
<title>base&#45;runtime&#45;&gt;httpd&#45;filesystem</title>
<path fill="none" stroke="#000000" d="M232.2564,-220.7861C209.6495,-212.1854 183.069,-198.9782 164.5,-180 147.7053,-162.8352 137.0238,-137.5621 130.7888,-118.164"/>
<polygon fill="#000000" stroke="#000000" points="134.0726,-116.9292 127.8483,-108.3556 127.3674,-118.9395 134.0726,-116.9292"/>
</g>
<!-- php&#45;cli -->
<g id="node6" class="node">
<title>php&#45;cli</title>
<text text-anchor="middle" x="54.5" y="-158.3" font-family="Times,serif" font-size="14.00" fill="#000000">php&#45;cli</text>
</g>
<!-- base&#45;runtime&#45;&gt;php&#45;cli -->
<g id="edge19" class="edge">
<title>base&#45;runtime&#45;&gt;php&#45;cli</title>
<path fill="none" stroke="#000000" d="M232.2922,-221.0505C196.9862,-210.5237 146.3395,-195.0085 102.5,-180 98.9661,-178.7902 95.3009,-177.4933 91.6423,-176.1703"/>
<polygon fill="#000000" stroke="#000000" points="92.6618,-172.8161 82.0683,-172.6496 90.2458,-179.386 92.6618,-172.8161"/>
</g>
<!-- php&#45;common -->
<g id="node7" class="node">
<title>php&#45;common</title>
<text text-anchor="middle" x="735.5" y="-158.3" font-family="Times,serif" font-size="14.00" fill="#000000">php&#45;common</text>
</g>
<!-- base&#45;runtime&#45;&gt;php&#45;common -->
<g id="edge16" class="edge">
<title>base&#45;runtime&#45;&gt;php&#45;common</title>
<path fill="none" stroke="#000000" d="M320.7065,-230.3903C394.8821,-223.8093 548.8244,-207.9015 676.5,-180 677.7653,-179.7235 679.0427,-179.4329 680.3282,-179.1303"/>
<polygon fill="#000000" stroke="#000000" points="681.446,-182.4577 690.2777,-176.6053 679.724,-175.6727 681.446,-182.4577"/>
</g>
<!-- apr -->
<g id="node8" class="node">
<title>apr</title>
<text text-anchor="middle" x="323.5" y="-158.3" font-family="Times,serif" font-size="14.00" fill="#000000">apr</text>
</g>
<!-- base&#45;runtime&#45;&gt;apr -->
<g id="edge15" class="edge">
<title>base&#45;runtime&#45;&gt;apr</title>
<path fill="none" stroke="#000000" d="M288.3601,-215.8314C293.6629,-207.7079 300.0237,-197.9637 305.8673,-189.0118"/>
<polygon fill="#000000" stroke="#000000" points="308.9448,-190.7003 311.4802,-180.4133 303.0831,-186.8739 308.9448,-190.7003"/>
</g>
<!-- php -->
<g id="node14" class="node">
<title>php</title>
<ellipse fill="none" stroke="#000000" cx="434.5" cy="-18" rx="27" ry="18"/>
<text text-anchor="middle" x="434.5" y="-14.3" font-family="Times,serif" font-size="14.00" fill="#000000">php</text>
</g>
<!-- base&#45;runtime&#45;&gt;php -->
<g id="edge20" class="edge">
<title>base&#45;runtime&#45;&gt;php</title>
<path fill="none" stroke="#000000" d="M320.566,-230.7117C413.4646,-223.3319 622.611,-204.1875 643.5,-180 703.3965,-110.6454 542.8185,-50.9538 469.1719,-28.0224"/>
<polygon fill="#000000" stroke="#000000" points="469.9753,-24.6082 459.389,-25.0334 467.9299,-31.3027 469.9753,-24.6082"/>
</g>
<!-- httpd&#45;&gt;php -->
<g id="edge5" class="edge">
<title>httpd&#45;&gt;php</title>
<path fill="none" stroke="#000000" d="M434.5,-71.8314C434.5,-64.131 434.5,-54.9743 434.5,-46.4166"/>
<polygon fill="#000000" stroke="#000000" points="438.0001,-46.4132 434.5,-36.4133 431.0001,-46.4133 438.0001,-46.4132"/>
</g>
<!-- httpd&#45;filesystem&#45;&gt;php -->
<g id="edge6" class="edge">
<title>httpd&#45;filesystem&#45;&gt;php</title>
<path fill="none" stroke="#000000" d="M176.0041,-74.2381C178.8724,-73.4611 181.7183,-72.7098 184.5,-72 260.0583,-52.7201 349.5983,-34.4803 398.3806,-24.9264"/>
<polygon fill="#000000" stroke="#000000" points="399.2928,-28.3146 408.4389,-22.9667 397.9541,-21.4438 399.2928,-28.3146"/>
</g>
<!-- php&#45;cli&#45;&gt;php -->
<g id="edge7" class="edge">
<title>php&#45;cli&#45;&gt;php</title>
<path fill="none" stroke="#000000" d="M49.965,-143.8587C46.0857,-123.5862 43.6153,-91.1087 61.5,-72 84.3217,-47.6163 307.9866,-27.7794 397.6243,-20.746"/>
<polygon fill="#000000" stroke="#000000" points="397.9208,-24.2336 407.6205,-19.9713 397.3799,-17.2545 397.9208,-24.2336"/>
</g>
<!-- php&#45;common&#45;&gt;php -->
<g id="edge8" class="edge">
<title>php&#45;common&#45;&gt;php</title>
<path fill="none" stroke="#000000" d="M728.5295,-143.7359C719.6576,-123.0337 702.3158,-89.853 676.5,-72 643.5174,-49.1907 530.3623,-30.9797 471.2018,-22.7552"/>
<polygon fill="#000000" stroke="#000000" points="471.5403,-19.269 461.1585,-21.383 470.5926,-26.2046 471.5403,-19.269"/>
</g>
<!-- apr&#45;&gt;httpd -->
<g id="edge9" class="edge">
<title>apr&#45;&gt;httpd</title>
<path fill="none" stroke="#000000" d="M350.6537,-144.3868C365.1669,-134.9728 383.2152,-123.2658 398.8452,-113.1274"/>
<polygon fill="#000000" stroke="#000000" points="400.757,-116.0592 407.242,-107.6809 396.9477,-110.1865 400.757,-116.0592"/>
</g>
<!-- apr&#45;util -->
<g id="node9" class="node">
<title>apr&#45;util</title>
<text text-anchor="middle" x="434.5" y="-158.3" font-family="Times,serif" font-size="14.00" fill="#000000">apr&#45;util</text>
</g>
<!-- apr&#45;util&#45;&gt;httpd -->
<g id="edge10" class="edge">
<title>apr&#45;util&#45;&gt;httpd</title>
<path fill="none" stroke="#000000" d="M434.5,-143.8314C434.5,-136.131 434.5,-126.9743 434.5,-118.4166"/>
<polygon fill="#000000" stroke="#000000" points="438.0001,-118.4132 434.5,-108.4133 431.0001,-118.4133 438.0001,-118.4132"/>
</g>
<!-- httpd&#45;tools -->
<g id="node10" class="node">
<title>httpd&#45;tools</title>
<text text-anchor="middle" x="518.5" y="-158.3" font-family="Times,serif" font-size="14.00" fill="#000000">httpd&#45;tools</text>
</g>
<!-- httpd&#45;tools&#45;&gt;httpd -->
<g id="edge11" class="edge">
<title>httpd&#45;tools&#45;&gt;httpd</title>
<path fill="none" stroke="#000000" d="M497.3033,-143.8314C487.0566,-135.0485 474.5997,-124.3712 463.4903,-114.8489"/>
<polygon fill="#000000" stroke="#000000" points="465.5603,-112.0134 455.69,-108.1628 461.0048,-117.3282 465.5603,-112.0134"/>
</g>
<!-- mailcap -->
<g id="node11" class="node">
<title>mailcap</title>
<text text-anchor="middle" x="604.5" y="-158.3" font-family="Times,serif" font-size="14.00" fill="#000000">mailcap</text>
</g>
<!-- mailcap&#45;&gt;httpd -->
<g id="edge12" class="edge">
<title>mailcap&#45;&gt;httpd</title>
<path fill="none" stroke="#000000" d="M574.322,-147.922C571.3486,-146.5799 568.3703,-145.2533 565.5,-144 533.9154,-130.2085 497.6662,-115.3391 471.3178,-104.7022"/>
<polygon fill="#000000" stroke="#000000" points="472.3182,-101.332 461.7346,-100.8438 469.7038,-107.8254 472.3182,-101.332"/>
</g>
<!-- php&#45;json -->
<g id="node12" class="node">
<title>php&#45;json</title>
<text text-anchor="middle" x="735.5" y="-230.3" font-family="Times,serif" font-size="14.00" fill="#000000">php&#45;json</text>
</g>
<!-- php&#45;json&#45;&gt;php&#45;common -->
<g id="edge13" class="edge">
<title>php&#45;json&#45;&gt;php&#45;common</title>
<path fill="none" stroke="#000000" d="M735.5,-215.8314C735.5,-208.131 735.5,-198.9743 735.5,-190.4166"/>
<polygon fill="#000000" stroke="#000000" points="739.0001,-190.4132 735.5,-180.4133 732.0001,-190.4133 739.0001,-190.4132"/>
</g>
<!-- shared&#45;userspace -->
<g id="node13" class="node">
<title>shared&#45;userspace</title>
<polygon fill="none" stroke="#000000" points="109,-252 0,-252 0,-216 109,-216 109,-252"/>
<text text-anchor="middle" x="54.5" y="-230.3" font-family="Times,serif" font-size="14.00" fill="#000000">shared&#45;userspace</text>
</g>
<!-- shared&#45;userspace&#45;&gt;php&#45;cli -->
<g id="edge21" class="edge">
<title>shared&#45;userspace&#45;&gt;php&#45;cli</title>
<path fill="none" stroke="#000000" d="M54.5,-215.8314C54.5,-208.131 54.5,-198.9743 54.5,-190.4166"/>
<polygon fill="#000000" stroke="#000000" points="58.0001,-190.4132 54.5,-180.4133 51.0001,-190.4133 58.0001,-190.4132"/>
</g>
</g>
</svg>
