<?xml version="1.0" encoding="UTF-8" standalone="no"?>
<!DOCTYPE svg PUBLIC "-//W3C//DTD SVG 1.1//EN"
 "http://www.w3.org/Graphics/SVG/1.1/DTD/svg11.dtd">
<!-- Generated by graphviz version 2.40.1 (20161225.0304)
 -->
<!-- Title: G Pages: 1 -->
<svg width="2090pt" height="531pt"
 viewBox="0.00 0.00 2089.50 531.00" xmlns="http://www.w3.org/2000/svg" xmlns:xlink="http://www.w3.org/1999/xlink">
<g id="graph0" class="graph" transform="scale(1 1) rotate(0) translate(4 527)">
<title>G</title>
<polygon fill="#ffffff" stroke="transparent" points="-4,4 -4,-527 2085.5,-527 2085.5,4 -4,4"/>
<g id="clust1" class="cluster">
<title>cluster_varnish</title>
<polygon fill="#d3d3d3" stroke="#d3d3d3" points="8,-8 8,-515 1617,-515 1617,-8 8,-8"/>
<text text-anchor="middle" x="812.5" y="-499.8" font-family="Arial Bold" font-size="14.00" fill="#000000">proposed for varnish</text>
</g>
<!-- base&#45;runtime -->
<g id="node1" class="node">
<title>base&#45;runtime</title>
<polygon fill="none" stroke="#000000" points="1757,-484 1669,-484 1669,-448 1757,-448 1757,-484"/>
<text text-anchor="middle" x="1713" y="-462.3" font-family="Times,serif" font-size="14.00" fill="#000000">base&#45;runtime</text>
</g>
<!-- initscripts -->
<g id="node4" class="node">
<title>initscripts</title>
<text text-anchor="middle" x="1392" y="-102.3" font-family="Times,serif" font-size="14.00" fill="#000000">initscripts</text>
</g>
<!-- base&#45;runtime&#45;&gt;initscripts -->
<g id="edge39" class="edge">
<title>base&#45;runtime&#45;&gt;initscripts</title>
<path fill="none" stroke="#000000" d="M1712.1045,-447.9039C1709.6896,-415.9142 1700.7834,-348.5532 1668,-304 1609.7159,-224.791 1581.927,-214.3975 1500,-160 1480.0992,-146.7863 1456.5161,-134.6367 1436.4721,-125.222"/>
<polygon fill="#000000" stroke="#000000" points="1437.7901,-121.9755 1427.2439,-120.9613 1434.8558,-128.3308 1437.7901,-121.9755"/>
</g>
<!-- varnish -->
<g id="node5" class="node">
<title>varnish</title>
<ellipse fill="none" stroke="#000000" cx="1529" cy="-34" rx="36.2938" ry="18"/>
<text text-anchor="middle" x="1529" y="-30.3" font-family="Times,serif" font-size="14.00" fill="#000000">varnish</text>
</g>
<!-- base&#45;runtime&#45;&gt;varnish -->
<g id="edge42" class="edge">
<title>base&#45;runtime&#45;&gt;varnish</title>
<path fill="none" stroke="#000000" d="M1757.2658,-458.9254C1824.3405,-445.4016 1944,-409.0734 1944,-322 1944,-322 1944,-322 1944,-178 1944,-100.4265 1681.9222,-55.207 1574.3014,-39.9082"/>
<polygon fill="#000000" stroke="#000000" points="1574.7711,-36.4399 1564.3827,-38.521 1573.8015,-43.3724 1574.7711,-36.4399"/>
</g>
<!-- jemalloc -->
<g id="node6" class="node">
<title>jemalloc</title>
<text text-anchor="middle" x="1307" y="-102.3" font-family="Times,serif" font-size="14.00" fill="#000000">jemalloc</text>
</g>
<!-- base&#45;runtime&#45;&gt;jemalloc -->
<g id="edge40" class="edge">
<title>base&#45;runtime&#45;&gt;jemalloc</title>
<path fill="none" stroke="#000000" d="M1715.1351,-447.5349C1716.2327,-437.117 1717.4525,-423.8504 1718,-412 1720.2833,-362.5754 1720.6181,-343.6329 1691,-304 1627.3597,-218.8411 1596.2179,-205.2133 1500,-160 1439.9895,-131.8008 1416.0079,-144.7365 1348.792,-123.8845"/>
<polygon fill="#000000" stroke="#000000" points="1349.6045,-120.4686 1339.0124,-120.7102 1347.4433,-127.1266 1349.6045,-120.4686"/>
</g>
<!-- logrotate -->
<g id="node7" class="node">
<title>logrotate</title>
<text text-anchor="middle" x="1576" y="-102.3" font-family="Times,serif" font-size="14.00" fill="#000000">logrotate</text>
</g>
<!-- base&#45;runtime&#45;&gt;logrotate -->
<g id="edge44" class="edge">
<title>base&#45;runtime&#45;&gt;logrotate</title>
<path fill="none" stroke="#000000" d="M1757.2781,-454.3114C1814.2583,-436.2784 1906,-395.787 1906,-322 1906,-322 1906,-322 1906,-250 1906,-209.1184 1916.4253,-188.3807 1887,-160 1849.3751,-123.7107 1695.1123,-111.5194 1618.9491,-107.6628"/>
<polygon fill="#000000" stroke="#000000" points="1618.8972,-104.1564 1608.7407,-107.1723 1618.5612,-111.1483 1618.8972,-104.1564"/>
</g>
<!-- iputils -->
<g id="node10" class="node">
<title>iputils</title>
<text text-anchor="middle" x="1392" y="-174.3" font-family="Times,serif" font-size="14.00" fill="#000000">iputils</text>
</g>
<!-- base&#45;runtime&#45;&gt;iputils -->
<g id="edge41" class="edge">
<title>base&#45;runtime&#45;&gt;iputils</title>
<path fill="none" stroke="#000000" d="M1707.0778,-447.9321C1694.5217,-410.4692 1664.6851,-325.9869 1644,-304 1643.8728,-303.8648 1498.685,-231.308 1428.7736,-196.3743"/>
<polygon fill="#000000" stroke="#000000" points="1429.9412,-193.0452 1419.4313,-191.7062 1426.8123,-199.307 1429.9412,-193.0452"/>
</g>
<!-- perl -->
<g id="node12" class="node">
<title>perl</title>
<text text-anchor="middle" x="1070" y="-246.3" font-family="Times,serif" font-size="14.00" fill="#000000">perl</text>
</g>
<!-- base&#45;runtime&#45;&gt;perl -->
<g id="edge45" class="edge">
<title>base&#45;runtime&#45;&gt;perl</title>
<path fill="none" stroke="#000000" d="M1691.9892,-447.8292C1681.618,-438.0229 1669.5343,-425.2353 1661,-412 1633.0019,-368.5795 1659.7126,-334.4843 1618,-304 1526.0911,-236.8314 1216.9653,-297.4364 1107,-268 1106.8965,-267.9723 1106.7929,-267.9443 1106.6893,-267.916"/>
<polygon fill="#000000" stroke="#000000" points="1107.6204,-264.5349 1097.0257,-264.5829 1105.3379,-271.1523 1107.6204,-264.5349"/>
</g>
<!-- groff&#45;base -->
<g id="node33" class="node">
<title>groff&#45;base</title>
<text text-anchor="middle" x="931" y="-390.3" font-family="Times,serif" font-size="14.00" fill="#000000">groff&#45;base</text>
</g>
<!-- base&#45;runtime&#45;&gt;groff&#45;base -->
<g id="edge43" class="edge">
<title>base&#45;runtime&#45;&gt;groff&#45;base</title>
<path fill="none" stroke="#000000" d="M1668.7192,-456.2532C1653.6402,-453.2234 1636.6432,-450.1246 1621,-448 1414.2834,-419.9242 1360.9665,-428.4297 1153,-412 1092.204,-407.197 1022.0583,-401.4802 977.158,-397.7984"/>
<polygon fill="#000000" stroke="#000000" points="977.3941,-394.3061 967.1414,-396.9765 976.8216,-401.2827 977.3941,-394.3061"/>
</g>
<!-- common&#45;build&#45;dependencies -->
<g id="node2" class="node">
<title>common&#45;build&#45;dependencies</title>
<polygon fill="none" stroke="#000000" points="1877.5,-196 1702.5,-196 1702.5,-160 1877.5,-160 1877.5,-196"/>
<text text-anchor="middle" x="1790" y="-174.3" font-family="Times,serif" font-size="14.00" fill="#000000">common&#45;build&#45;dependencies</text>
</g>
<!-- common&#45;build&#45;dependencies&#45;&gt;initscripts -->
<g id="edge46" class="edge">
<title>common&#45;build&#45;dependencies&#45;&gt;initscripts</title>
<path fill="none" stroke="#000000" d="M1702.3982,-162.3497C1697.5301,-161.5396 1692.7056,-160.7511 1688,-160 1579.4413,-142.6719 1547.0103,-153.0169 1437.0935,-123.951"/>
<polygon fill="#000000" stroke="#000000" points="1437.8476,-120.5294 1427.2814,-121.3074 1436.0266,-127.2884 1437.8476,-120.5294"/>
</g>
<!-- shared&#45;userspace -->
<g id="node3" class="node">
<title>shared&#45;userspace</title>
<polygon fill="none" stroke="#000000" points="2081.5,-124 1972.5,-124 1972.5,-88 2081.5,-88 2081.5,-124"/>
<text text-anchor="middle" x="2027" y="-102.3" font-family="Times,serif" font-size="14.00" fill="#000000">shared&#45;userspace</text>
</g>
<!-- shared&#45;userspace&#45;&gt;varnish -->
<g id="edge47" class="edge">
<title>shared&#45;userspace&#45;&gt;varnish</title>
<path fill="none" stroke="#000000" d="M1972.1594,-91.0069C1967.3881,-89.9114 1962.6196,-88.8894 1958,-88 1819.9066,-61.4134 1654.1864,-44.8205 1575.2254,-37.8323"/>
<polygon fill="#000000" stroke="#000000" points="1575.3918,-34.3335 1565.1249,-36.949 1574.782,-41.3069 1575.3918,-34.3335"/>
</g>
<!-- initscripts&#45;&gt;varnish -->
<g id="edge1" class="edge">
<title>initscripts&#45;&gt;varnish</title>
<path fill="none" stroke="#000000" d="M1426.5709,-87.8314C1447.4679,-76.849 1474.0009,-62.9047 1494.8259,-51.9601"/>
<polygon fill="#000000" stroke="#000000" points="1496.7281,-54.9144 1503.9518,-47.164 1493.4715,-48.718 1496.7281,-54.9144"/>
</g>
<!-- jemalloc&#45;&gt;varnish -->
<g id="edge2" class="edge">
<title>jemalloc&#45;&gt;varnish</title>
<path fill="none" stroke="#000000" d="M1339.0755,-91.4696C1342.0731,-90.2477 1345.0809,-89.0715 1348,-88 1394.7095,-70.8537 1449.6352,-55.0624 1486.6279,-45.0435"/>
<polygon fill="#000000" stroke="#000000" points="1487.8148,-48.3488 1496.5645,-42.3744 1485.9988,-41.5885 1487.8148,-48.3488"/>
</g>
<!-- logrotate&#45;&gt;varnish -->
<g id="edge3" class="edge">
<title>logrotate&#45;&gt;varnish</title>
<path fill="none" stroke="#000000" d="M1564.1399,-87.8314C1558.617,-79.3707 1551.9465,-69.1521 1545.9078,-59.9014"/>
<polygon fill="#000000" stroke="#000000" points="1548.767,-57.8783 1540.3699,-51.4177 1542.9053,-61.7047 1548.767,-57.8783"/>
</g>
<!-- varnish&#45;libs -->
<g id="node8" class="node">
<title>varnish&#45;libs</title>
<text text-anchor="middle" x="1485" y="-102.3" font-family="Times,serif" font-size="14.00" fill="#000000">varnish&#45;libs</text>
</g>
<!-- varnish&#45;libs&#45;&gt;varnish -->
<g id="edge4" class="edge">
<title>varnish&#45;libs&#45;&gt;varnish</title>
<path fill="none" stroke="#000000" d="M1496.1031,-87.8314C1501.2202,-79.4579 1507.3895,-69.3626 1512.9964,-60.1878"/>
<polygon fill="#000000" stroke="#000000" points="1516.1278,-61.7756 1518.3558,-51.4177 1510.1548,-58.1255 1516.1278,-61.7756"/>
</g>
<!-- ipcalc -->
<g id="node9" class="node">
<title>ipcalc</title>
<text text-anchor="middle" x="1464" y="-174.3" font-family="Times,serif" font-size="14.00" fill="#000000">ipcalc</text>
</g>
<!-- ipcalc&#45;&gt;initscripts -->
<g id="edge5" class="edge">
<title>ipcalc&#45;&gt;initscripts</title>
<path fill="none" stroke="#000000" d="M1445.8314,-159.8314C1437.2848,-151.2848 1426.9443,-140.9443 1417.6198,-131.6198"/>
<polygon fill="#000000" stroke="#000000" points="1419.9592,-129.0095 1410.4133,-124.4133 1415.0095,-133.9592 1419.9592,-129.0095"/>
</g>
<!-- iputils&#45;&gt;initscripts -->
<g id="edge6" class="edge">
<title>iputils&#45;&gt;initscripts</title>
<path fill="none" stroke="#000000" d="M1392,-159.8314C1392,-152.131 1392,-142.9743 1392,-134.4166"/>
<polygon fill="#000000" stroke="#000000" points="1395.5001,-134.4132 1392,-124.4133 1388.5001,-134.4133 1395.5001,-134.4132"/>
</g>
<!-- perl&#45;Getopt&#45;Long -->
<g id="node11" class="node">
<title>perl&#45;Getopt&#45;Long</title>
<text text-anchor="middle" x="1224" y="-174.3" font-family="Times,serif" font-size="14.00" fill="#000000">perl&#45;Getopt&#45;Long</text>
</g>
<!-- perl&#45;Getopt&#45;Long&#45;&gt;jemalloc -->
<g id="edge7" class="edge">
<title>perl&#45;Getopt&#45;Long&#45;&gt;jemalloc</title>
<path fill="none" stroke="#000000" d="M1244.9444,-159.8314C1255.0691,-151.0485 1267.3777,-140.3712 1278.3548,-130.8489"/>
<polygon fill="#000000" stroke="#000000" points="1280.8019,-133.3595 1286.0623,-124.1628 1276.2149,-128.0718 1280.8019,-133.3595"/>
</g>
<!-- perl&#45;&gt;perl&#45;Getopt&#45;Long -->
<g id="edge8" class="edge">
<title>perl&#45;&gt;perl&#45;Getopt&#45;Long</title>
<path fill="none" stroke="#000000" d="M1097.0473,-236.7633C1100.3942,-235.1485 1103.7724,-233.5297 1107,-232 1129.2644,-221.4477 1154.0263,-209.9806 1175.0162,-200.3387"/>
<polygon fill="#000000" stroke="#000000" points="1176.7422,-203.3977 1184.3722,-196.047 1173.8236,-197.0352 1176.7422,-203.3977"/>
</g>
<!-- perl&#45;Exporter -->
<g id="node13" class="node">
<title>perl&#45;Exporter</title>
<text text-anchor="middle" x="1420" y="-246.3" font-family="Times,serif" font-size="14.00" fill="#000000">perl&#45;Exporter</text>
</g>
<!-- perl&#45;Exporter&#45;&gt;perl&#45;Getopt&#45;Long -->
<g id="edge9" class="edge">
<title>perl&#45;Exporter&#45;&gt;perl&#45;Getopt&#45;Long</title>
<path fill="none" stroke="#000000" d="M1375.0336,-233.4817C1347.6004,-223.4042 1312.2329,-210.4121 1282.6199,-199.5338"/>
<polygon fill="#000000" stroke="#000000" points="1283.8184,-196.2455 1273.2248,-196.0826 1281.4047,-202.8162 1283.8184,-196.2455"/>
</g>
<!-- perl&#45;Pod&#45;Usage -->
<g id="node14" class="node">
<title>perl&#45;Pod&#45;Usage</title>
<text text-anchor="middle" x="181" y="-246.3" font-family="Times,serif" font-size="14.00" fill="#000000">perl&#45;Pod&#45;Usage</text>
</g>
<!-- perl&#45;Pod&#45;Usage&#45;&gt;perl&#45;Getopt&#45;Long -->
<g id="edge10" class="edge">
<title>perl&#45;Pod&#45;Usage&#45;&gt;perl&#45;Getopt&#45;Long</title>
<path fill="none" stroke="#000000" d="M231.6585,-246.503C403.4953,-234.6408 964.2209,-195.933 1157.6711,-182.5788"/>
<polygon fill="#000000" stroke="#000000" points="1157.9628,-186.0671 1167.698,-181.8866 1157.4807,-179.0837 1157.9628,-186.0671"/>
</g>
<!-- perl&#45;Text&#45;ParseWords -->
<g id="node15" class="node">
<title>perl&#45;Text&#45;ParseWords</title>
<text text-anchor="middle" x="1289" y="-246.3" font-family="Times,serif" font-size="14.00" fill="#000000">perl&#45;Text&#45;ParseWords</text>
</g>
<!-- perl&#45;Text&#45;ParseWords&#45;&gt;perl&#45;Getopt&#45;Long -->
<g id="edge11" class="edge">
<title>perl&#45;Text&#45;ParseWords&#45;&gt;perl&#45;Getopt&#45;Long</title>
<path fill="none" stroke="#000000" d="M1272.5978,-231.8314C1264.9585,-223.3694 1255.7317,-213.1489 1247.3793,-203.8971"/>
<polygon fill="#000000" stroke="#000000" points="1249.9221,-201.4906 1240.6231,-196.4133 1244.7262,-206.1813 1249.9221,-201.4906"/>
</g>
<!-- perl&#45;constant -->
<g id="node16" class="node">
<title>perl&#45;constant</title>
<text text-anchor="middle" x="1159" y="-246.3" font-family="Times,serif" font-size="14.00" fill="#000000">perl&#45;constant</text>
</g>
<!-- perl&#45;constant&#45;&gt;perl&#45;Getopt&#45;Long -->
<g id="edge12" class="edge">
<title>perl&#45;constant&#45;&gt;perl&#45;Getopt&#45;Long</title>
<path fill="none" stroke="#000000" d="M1175.4022,-231.8314C1183.0415,-223.3694 1192.2683,-213.1489 1200.6207,-203.8971"/>
<polygon fill="#000000" stroke="#000000" points="1203.2738,-206.1813 1207.3769,-196.4133 1198.0779,-201.4906 1203.2738,-206.1813"/>
</g>
<!-- perl&#45;Carp -->
<g id="node17" class="node">
<title>perl&#45;Carp</title>
<text text-anchor="middle" x="1168" y="-318.3" font-family="Times,serif" font-size="14.00" fill="#000000">perl&#45;Carp</text>
</g>
<!-- perl&#45;Carp&#45;&gt;perl -->
<g id="edge13" class="edge">
<title>perl&#45;Carp&#45;&gt;perl</title>
<path fill="none" stroke="#000000" d="M1143.2705,-303.8314C1131.0838,-294.8779 1116.2177,-283.9558 1103.0688,-274.2955"/>
<polygon fill="#000000" stroke="#000000" points="1104.8527,-271.263 1094.7216,-268.1628 1100.7082,-276.9042 1104.8527,-271.263"/>
</g>
<!-- perl&#45;File&#45;Path -->
<g id="node18" class="node">
<title>perl&#45;File&#45;Path</title>
<text text-anchor="middle" x="1070" y="-318.3" font-family="Times,serif" font-size="14.00" fill="#000000">perl&#45;File&#45;Path</text>
</g>
<!-- perl&#45;File&#45;Path&#45;&gt;perl -->
<g id="edge14" class="edge">
<title>perl&#45;File&#45;Path&#45;&gt;perl</title>
<path fill="none" stroke="#000000" d="M1070,-303.8314C1070,-296.131 1070,-286.9743 1070,-278.4166"/>
<polygon fill="#000000" stroke="#000000" points="1073.5001,-278.4132 1070,-268.4133 1066.5001,-278.4133 1073.5001,-278.4132"/>
</g>
<!-- perl&#45;IO -->
<g id="node19" class="node">
<title>perl&#45;IO</title>
<text text-anchor="middle" x="1248" y="-318.3" font-family="Times,serif" font-size="14.00" fill="#000000">perl&#45;IO</text>
</g>
<!-- perl&#45;IO&#45;&gt;perl -->
<g id="edge15" class="edge">
<title>perl&#45;IO&#45;&gt;perl</title>
<path fill="none" stroke="#000000" d="M1219.8769,-307.8889C1216.9019,-306.5254 1213.9035,-305.2037 1211,-304 1165.816,-285.2676 1152.184,-286.7324 1107,-268 1106.901,-267.959 1106.8019,-267.9178 1106.7027,-267.8765"/>
<polygon fill="#000000" stroke="#000000" points="1107.8747,-264.5682 1097.3125,-263.7382 1105.0518,-270.9738 1107.8747,-264.5682"/>
</g>
<!-- perl&#45;PathTools -->
<g id="node20" class="node">
<title>perl&#45;PathTools</title>
<text text-anchor="middle" x="957" y="-318.3" font-family="Times,serif" font-size="14.00" fill="#000000">perl&#45;PathTools</text>
</g>
<!-- perl&#45;PathTools&#45;&gt;perl -->
<g id="edge16" class="edge">
<title>perl&#45;PathTools&#45;&gt;perl</title>
<path fill="none" stroke="#000000" d="M985.5147,-303.8314C1000.2991,-294.4112 1018.5037,-282.8118 1034.2237,-272.7955"/>
<polygon fill="#000000" stroke="#000000" points="1036.1111,-275.7431 1042.6639,-267.4177 1032.3495,-269.8396 1036.1111,-275.7431"/>
</g>
<!-- perl&#45;Scalar&#45;List&#45;Utils -->
<g id="node21" class="node">
<title>perl&#45;Scalar&#45;List&#45;Utils</title>
<text text-anchor="middle" x="824" y="-318.3" font-family="Times,serif" font-size="14.00" fill="#000000">perl&#45;Scalar&#45;List&#45;Utils</text>
</g>
<!-- perl&#45;Scalar&#45;List&#45;Utils&#45;&gt;perl -->
<g id="edge17" class="edge">
<title>perl&#45;Scalar&#45;List&#45;Utils&#45;&gt;perl</title>
<path fill="none" stroke="#000000" d="M885.7587,-303.9243C932.1391,-290.3495 994.1168,-272.2097 1033.0479,-260.8153"/>
<polygon fill="#000000" stroke="#000000" points="1034.2908,-264.0984 1042.905,-257.9302 1032.3245,-257.3802 1034.2908,-264.0984"/>
</g>
<!-- perl&#45;Text&#45;Tabs+Wrap -->
<g id="node22" class="node">
<title>perl&#45;Text&#45;Tabs+Wrap</title>
<text text-anchor="middle" x="671" y="-318.3" font-family="Times,serif" font-size="14.00" fill="#000000">perl&#45;Text&#45;Tabs+Wrap</text>
</g>
<!-- perl&#45;Text&#45;Tabs+Wrap&#45;&gt;perl -->
<g id="edge18" class="edge">
<title>perl&#45;Text&#45;Tabs+Wrap&#45;&gt;perl</title>
<path fill="none" stroke="#000000" d="M739.8551,-305.8739C742.9423,-305.2255 746.0015,-304.5976 749,-304 851.2133,-283.6279 972.7534,-264.5826 1032.7248,-255.5255"/>
<polygon fill="#000000" stroke="#000000" points="1033.4754,-258.9521 1042.8438,-254.004 1032.4345,-252.0299 1033.4754,-258.9521"/>
</g>
<!-- perl&#45;Unicode&#45;Normalize -->
<g id="node23" class="node">
<title>perl&#45;Unicode&#45;Normalize</title>
<text text-anchor="middle" x="509" y="-318.3" font-family="Times,serif" font-size="14.00" fill="#000000">perl&#45;Unicode&#45;Normalize</text>
</g>
<!-- perl&#45;Unicode&#45;Normalize&#45;&gt;perl -->
<g id="edge19" class="edge">
<title>perl&#45;Unicode&#45;Normalize&#45;&gt;perl</title>
<path fill="none" stroke="#000000" d="M584.014,-305.7079C587.3839,-305.1044 590.7243,-304.5314 594,-304 756.4397,-277.6485 952.1365,-259.7725 1032.6395,-253.0126"/>
<polygon fill="#000000" stroke="#000000" points="1033.0973,-256.4867 1042.7727,-252.1696 1032.5169,-249.5108 1033.0973,-256.4867"/>
</g>
<!-- perl&#45;libs -->
<g id="node24" class="node">
<title>perl&#45;libs</title>
<text text-anchor="middle" x="385" y="-318.3" font-family="Times,serif" font-size="14.00" fill="#000000">perl&#45;libs</text>
</g>
<!-- perl&#45;libs&#45;&gt;perl -->
<g id="edge20" class="edge">
<title>perl&#45;libs&#45;&gt;perl</title>
<path fill="none" stroke="#000000" d="M416.0773,-306.8106C419.0471,-305.7271 422.051,-304.763 425,-304 541.2933,-273.91 913.2102,-256.4158 1032.6737,-251.4655"/>
<polygon fill="#000000" stroke="#000000" points="1032.938,-254.9577 1042.7865,-251.0516 1032.6517,-247.9636 1032.938,-254.9577"/>
</g>
<!-- perl&#45;macros -->
<g id="node25" class="node">
<title>perl&#45;macros</title>
<text text-anchor="middle" x="295" y="-318.3" font-family="Times,serif" font-size="14.00" fill="#000000">perl&#45;macros</text>
</g>
<!-- perl&#45;macros&#45;&gt;perl -->
<g id="edge21" class="edge">
<title>perl&#45;macros&#45;&gt;perl</title>
<path fill="none" stroke="#000000" d="M336.2194,-306.1867C339.1657,-305.358 342.1125,-304.6153 345,-304 478.4274,-275.5678 903.48,-256.6484 1032.5055,-251.4498"/>
<polygon fill="#000000" stroke="#000000" points="1032.8198,-254.9402 1042.6723,-251.044 1032.5406,-247.9457 1032.8198,-254.9402"/>
</g>
<!-- perl&#45;parent -->
<g id="node26" class="node">
<title>perl&#45;parent</title>
<text text-anchor="middle" x="1571" y="-318.3" font-family="Times,serif" font-size="14.00" fill="#000000">perl&#45;parent</text>
</g>
<!-- perl&#45;parent&#45;&gt;perl -->
<g id="edge22" class="edge">
<title>perl&#45;parent&#45;&gt;perl</title>
<path fill="none" stroke="#000000" d="M1532.7988,-306.3696C1529.8506,-305.4717 1526.8953,-304.6655 1524,-304 1342.7049,-262.3281 1286.3106,-317.5191 1107,-268 1106.8967,-267.9715 1106.7934,-267.9427 1106.69,-267.9136"/>
<polygon fill="#000000" stroke="#000000" points="1107.6346,-264.536 1097.0398,-264.5312 1105.3192,-271.1419 1107.6346,-264.536"/>
</g>
<!-- perl&#45;threads -->
<g id="node27" class="node">
<title>perl&#45;threads</title>
<text text-anchor="middle" x="1474" y="-318.3" font-family="Times,serif" font-size="14.00" fill="#000000">perl&#45;threads</text>
</g>
<!-- perl&#45;threads&#45;&gt;perl -->
<g id="edge23" class="edge">
<title>perl&#45;threads&#45;&gt;perl</title>
<path fill="none" stroke="#000000" d="M1433.3173,-306.2273C1430.5243,-305.4013 1427.7339,-304.647 1425,-304 1286.5872,-271.243 1243.5881,-307.6839 1107,-268 1106.8971,-267.9701 1106.7941,-267.9399 1106.6911,-267.9095"/>
<polygon fill="#000000" stroke="#000000" points="1107.6588,-264.5381 1097.0644,-264.4443 1105.288,-271.1243 1107.6588,-264.5381"/>
</g>
<!-- perl&#45;threads&#45;shared -->
<g id="node28" class="node">
<title>perl&#45;threads&#45;shared</title>
<text text-anchor="middle" x="1355" y="-318.3" font-family="Times,serif" font-size="14.00" fill="#000000">perl&#45;threads&#45;shared</text>
</g>
<!-- perl&#45;threads&#45;shared&#45;&gt;perl -->
<g id="edge24" class="edge">
<title>perl&#45;threads&#45;shared&#45;&gt;perl</title>
<path fill="none" stroke="#000000" d="M1294.3409,-306.1957C1291.1854,-305.4382 1288.0575,-304.7018 1285,-304 1206.3328,-285.9435 1183.4575,-293.8616 1107,-268 1106.8985,-267.9657 1106.7969,-267.9311 1106.6953,-267.8964"/>
<polygon fill="#000000" stroke="#000000" points="1107.7406,-264.5471 1097.1528,-264.163 1105.1902,-271.0659 1107.7406,-264.5471"/>
</g>
<!-- perl&#45;Pod&#45;Perldoc -->
<g id="node29" class="node">
<title>perl&#45;Pod&#45;Perldoc</title>
<text text-anchor="middle" x="181" y="-318.3" font-family="Times,serif" font-size="14.00" fill="#000000">perl&#45;Pod&#45;Perldoc</text>
</g>
<!-- perl&#45;Pod&#45;Perldoc&#45;&gt;perl&#45;Pod&#45;Usage -->
<g id="edge25" class="edge">
<title>perl&#45;Pod&#45;Perldoc&#45;&gt;perl&#45;Pod&#45;Usage</title>
<path fill="none" stroke="#000000" d="M181,-303.8314C181,-296.131 181,-286.9743 181,-278.4166"/>
<polygon fill="#000000" stroke="#000000" points="184.5001,-278.4132 181,-268.4133 177.5001,-278.4133 184.5001,-278.4132"/>
</g>
<!-- perl&#45;podlators -->
<g id="node30" class="node">
<title>perl&#45;podlators</title>
<text text-anchor="middle" x="62" y="-318.3" font-family="Times,serif" font-size="14.00" fill="#000000">perl&#45;podlators</text>
</g>
<!-- perl&#45;podlators&#45;&gt;perl&#45;Pod&#45;Usage -->
<g id="edge26" class="edge">
<title>perl&#45;podlators&#45;&gt;perl&#45;Pod&#45;Usage</title>
<path fill="none" stroke="#000000" d="M92.0287,-303.8314C107.2496,-294.6221 125.9128,-283.3301 142.2083,-273.4706"/>
<polygon fill="#000000" stroke="#000000" points="144.2369,-276.3341 150.9809,-268.1628 140.6132,-270.345 144.2369,-276.3341"/>
</g>
<!-- perl&#45;Errno -->
<g id="node31" class="node">
<title>perl&#45;Errno</title>
<text text-anchor="middle" x="1295" y="-390.3" font-family="Times,serif" font-size="14.00" fill="#000000">perl&#45;Errno</text>
</g>
<!-- perl&#45;Errno&#45;&gt;perl&#45;IO -->
<g id="edge27" class="edge">
<title>perl&#45;Errno&#45;&gt;perl&#45;IO</title>
<path fill="none" stroke="#000000" d="M1283.1399,-375.8314C1277.8371,-367.7079 1271.4763,-357.9637 1265.6327,-349.0118"/>
<polygon fill="#000000" stroke="#000000" points="1268.4169,-346.8739 1260.0198,-340.4133 1262.5552,-350.7003 1268.4169,-346.8739"/>
</g>
<!-- perl&#45;Socket -->
<g id="node32" class="node">
<title>perl&#45;Socket</title>
<text text-anchor="middle" x="1201" y="-390.3" font-family="Times,serif" font-size="14.00" fill="#000000">perl&#45;Socket</text>
</g>
<!-- perl&#45;Socket&#45;&gt;perl&#45;IO -->
<g id="edge28" class="edge">
<title>perl&#45;Socket&#45;&gt;perl&#45;IO</title>
<path fill="none" stroke="#000000" d="M1212.8601,-375.8314C1218.1629,-367.7079 1224.5237,-357.9637 1230.3673,-349.0118"/>
<polygon fill="#000000" stroke="#000000" points="1233.4448,-350.7003 1235.9802,-340.4133 1227.5831,-346.8739 1233.4448,-350.7003"/>
</g>
<!-- groff&#45;base&#45;&gt;perl&#45;Pod&#45;Perldoc -->
<g id="edge29" class="edge">
<title>groff&#45;base&#45;&gt;perl&#45;Pod&#45;Perldoc</title>
<path fill="none" stroke="#000000" d="M894.8347,-389.9372C859.4698,-386.0453 804.0767,-380.1649 756,-376 532.4982,-356.6378 471.0946,-378.3682 245.8015,-339.9145"/>
<polygon fill="#000000" stroke="#000000" points="246.094,-336.4133 235.644,-338.1593 244.902,-343.311 246.094,-336.4133"/>
</g>
<!-- perl&#45;File&#45;Temp -->
<g id="node34" class="node">
<title>perl&#45;File&#45;Temp</title>
<text text-anchor="middle" x="442" y="-390.3" font-family="Times,serif" font-size="14.00" fill="#000000">perl&#45;File&#45;Temp</text>
</g>
<!-- perl&#45;File&#45;Temp&#45;&gt;perl&#45;Pod&#45;Perldoc -->
<g id="edge30" class="edge">
<title>perl&#45;File&#45;Temp&#45;&gt;perl&#45;Pod&#45;Perldoc</title>
<path fill="none" stroke="#000000" d="M391.8292,-378.541C388.8454,-377.669 385.8854,-376.8161 383,-376 324.9851,-359.5905 307.8321,-356.829 245.7255,-340.1646"/>
<polygon fill="#000000" stroke="#000000" points="246.3604,-336.7108 235.7938,-337.4845 244.5366,-343.469 246.3604,-336.7108"/>
</g>
<!-- perl&#45;HTTP&#45;Tiny -->
<g id="node35" class="node">
<title>perl&#45;HTTP&#45;Tiny</title>
<text text-anchor="middle" x="694" y="-390.3" font-family="Times,serif" font-size="14.00" fill="#000000">perl&#45;HTTP&#45;Tiny</text>
</g>
<!-- perl&#45;HTTP&#45;Tiny&#45;&gt;perl&#45;Pod&#45;Perldoc -->
<g id="edge31" class="edge">
<title>perl&#45;HTTP&#45;Tiny&#45;&gt;perl&#45;Pod&#45;Perldoc</title>
<path fill="none" stroke="#000000" d="M640.7897,-378.8371C636.1478,-377.7784 631.5044,-376.8113 627,-376 462.3667,-346.3459 414.4652,-370.263 245.6307,-339.9026"/>
<polygon fill="#000000" stroke="#000000" points="246.1273,-336.4353 235.6597,-338.0723 244.8635,-343.3203 246.1273,-336.4353"/>
</g>
<!-- perl&#45;Pod&#45;Simple -->
<g id="node36" class="node">
<title>perl&#45;Pod&#45;Simple</title>
<text text-anchor="middle" x="564" y="-390.3" font-family="Times,serif" font-size="14.00" fill="#000000">perl&#45;Pod&#45;Simple</text>
</g>
<!-- perl&#45;Pod&#45;Simple&#45;&gt;perl&#45;Pod&#45;Perldoc -->
<g id="edge32" class="edge">
<title>perl&#45;Pod&#45;Simple&#45;&gt;perl&#45;Pod&#45;Perldoc</title>
<path fill="none" stroke="#000000" d="M510.1669,-378.0882C507.076,-377.3403 504.0045,-376.6373 501,-376 391.7862,-352.8356 359.2758,-362.9872 245.8231,-340.0005"/>
<polygon fill="#000000" stroke="#000000" points="246.1947,-336.5033 235.693,-337.9045 244.7764,-343.3581 246.1947,-336.5033"/>
</g>
<!-- perl&#45;Term&#45;ANSIColor -->
<g id="node37" class="node">
<title>perl&#45;Term&#45;ANSIColor</title>
<text text-anchor="middle" x="304" y="-390.3" font-family="Times,serif" font-size="14.00" fill="#000000">perl&#45;Term&#45;ANSIColor</text>
</g>
<!-- perl&#45;Term&#45;ANSIColor&#45;&gt;perl&#45;podlators -->
<g id="edge33" class="edge">
<title>perl&#45;Term&#45;ANSIColor&#45;&gt;perl&#45;podlators</title>
<path fill="none" stroke="#000000" d="M239.3582,-375.9384C205.6609,-366.3815 163.5622,-354.2229 117.9587,-340.2512"/>
<polygon fill="#000000" stroke="#000000" points="118.7631,-336.8368 108.176,-337.2425 116.7053,-343.5275 118.7631,-336.8368"/>
</g>
<!-- perl&#45;Term&#45;Cap -->
<g id="node38" class="node">
<title>perl&#45;Term&#45;Cap</title>
<text text-anchor="middle" x="167" y="-390.3" font-family="Times,serif" font-size="14.00" fill="#000000">perl&#45;Term&#45;Cap</text>
</g>
<!-- perl&#45;Term&#45;Cap&#45;&gt;perl&#45;podlators -->
<g id="edge34" class="edge">
<title>perl&#45;Term&#45;Cap&#45;&gt;perl&#45;podlators</title>
<path fill="none" stroke="#000000" d="M140.5041,-375.8314C127.3226,-366.7927 111.2153,-355.7476 97.0289,-346.0198"/>
<polygon fill="#000000" stroke="#000000" points="98.7141,-342.9316 88.4875,-340.1628 94.7554,-348.7047 98.7141,-342.9316"/>
</g>
<!-- perl&#45;MIME&#45;Base64 -->
<g id="node39" class="node">
<title>perl&#45;MIME&#45;Base64</title>
<text text-anchor="middle" x="694" y="-462.3" font-family="Times,serif" font-size="14.00" fill="#000000">perl&#45;MIME&#45;Base64</text>
</g>
<!-- perl&#45;MIME&#45;Base64&#45;&gt;perl&#45;HTTP&#45;Tiny -->
<g id="edge35" class="edge">
<title>perl&#45;MIME&#45;Base64&#45;&gt;perl&#45;HTTP&#45;Tiny</title>
<path fill="none" stroke="#000000" d="M694,-447.8314C694,-440.131 694,-430.9743 694,-422.4166"/>
<polygon fill="#000000" stroke="#000000" points="697.5001,-422.4132 694,-412.4133 690.5001,-422.4133 697.5001,-422.4132"/>
</g>
<!-- perl&#45;Time&#45;Local -->
<g id="node40" class="node">
<title>perl&#45;Time&#45;Local</title>
<text text-anchor="middle" x="828" y="-462.3" font-family="Times,serif" font-size="14.00" fill="#000000">perl&#45;Time&#45;Local</text>
</g>
<!-- perl&#45;Time&#45;Local&#45;&gt;perl&#45;HTTP&#45;Tiny -->
<g id="edge36" class="edge">
<title>perl&#45;Time&#45;Local&#45;&gt;perl&#45;HTTP&#45;Tiny</title>
<path fill="none" stroke="#000000" d="M794.1861,-447.8314C776.7293,-438.4516 755.2513,-426.9112 736.6648,-416.9244"/>
<polygon fill="#000000" stroke="#000000" points="738.2686,-413.8129 727.803,-412.1628 734.9554,-419.9792 738.2686,-413.8129"/>
</g>
<!-- perl&#45;Pod&#45;Escapes -->
<g id="node41" class="node">
<title>perl&#45;Pod&#45;Escapes</title>
<text text-anchor="middle" x="558" y="-462.3" font-family="Times,serif" font-size="14.00" fill="#000000">perl&#45;Pod&#45;Escapes</text>
</g>
<!-- perl&#45;Pod&#45;Escapes&#45;&gt;perl&#45;Pod&#45;Simple -->
<g id="edge37" class="edge">
<title>perl&#45;Pod&#45;Escapes&#45;&gt;perl&#45;Pod&#45;Simple</title>
<path fill="none" stroke="#000000" d="M559.5141,-447.8314C560.1558,-440.131 560.9188,-430.9743 561.6319,-422.4166"/>
<polygon fill="#000000" stroke="#000000" points="565.1229,-422.6694 562.4656,-412.4133 558.1471,-422.088 565.1229,-422.6694"/>
</g>
<!-- perl&#45;Encode -->
<g id="node42" class="node">
<title>perl&#45;Encode</title>
<text text-anchor="middle" x="58" y="-390.3" font-family="Times,serif" font-size="14.00" fill="#000000">perl&#45;Encode</text>
</g>
<!-- perl&#45;Encode&#45;&gt;perl&#45;podlators -->
<g id="edge38" class="edge">
<title>perl&#45;Encode&#45;&gt;perl&#45;podlators</title>
<path fill="none" stroke="#000000" d="M59.0094,-375.8314C59.4372,-368.131 59.9459,-358.9743 60.4213,-350.4166"/>
<polygon fill="#000000" stroke="#000000" points="63.9169,-350.592 60.977,-340.4133 56.9276,-350.2037 63.9169,-350.592"/>
</g>
</g>
</svg>
