<?xml version="1.0" encoding="UTF-8" standalone="no"?>
<!DOCTYPE svg PUBLIC "-//W3C//DTD SVG 1.1//EN"
 "http://www.w3.org/Graphics/SVG/1.1/DTD/svg11.dtd">
<!-- Generated by graphviz version 2.40.1 (20161225.0304)
 -->
<!-- Title: G Pages: 1 -->
<svg width="1230pt" height="260pt"
 viewBox="0.00 0.00 1229.50 260.00" xmlns="http://www.w3.org/2000/svg" xmlns:xlink="http://www.w3.org/1999/xlink">
<g id="graph0" class="graph" transform="scale(1 1) rotate(0) translate(4 256)">
<title>G</title>
<polygon fill="#ffffff" stroke="transparent" points="-4,4 -4,-256 1225.5,-256 1225.5,4 -4,4"/>
<!-- php -->
<g id="node1" class="node">
<title>php</title>
<ellipse fill="none" stroke="#000000" cx="664" cy="-18" rx="27" ry="18"/>
<text text-anchor="middle" x="664" y="-14.3" font-family="Times,serif" font-size="14.00" fill="#000000">php</text>
</g>
<!-- httpd -->
<g id="node2" class="node">
<title>httpd</title>
<polygon fill="none" stroke="#000000" points="206,-108 152,-108 152,-72 206,-72 206,-108"/>
<text text-anchor="middle" x="179" y="-86.3" font-family="Times,serif" font-size="14.00" fill="#000000">httpd</text>
</g>
<!-- httpd&#45;&gt;php -->
<g id="edge1" class="edge">
<title>httpd&#45;&gt;php</title>
<path fill="none" stroke="#000000" d="M206.2939,-83.1311C221.4541,-79.4801 240.6947,-75.1155 258,-72 393.1263,-47.6726 555.385,-29.3229 626.9746,-21.7732"/>
<polygon fill="#000000" stroke="#000000" points="627.6854,-25.218 637.2669,-20.6965 626.957,-18.256 627.6854,-25.218"/>
</g>
<!-- httpd&#45;&gt;httpd -->
<g id="edge2" class="edge">
<title>httpd&#45;&gt;httpd</title>
<path fill="none" stroke="#000000" d="M206.2408,-103.4868C216.0239,-103.7769 224,-99.2813 224,-90 224,-84.1992 220.8843,-80.2678 216.1591,-78.2058"/>
<polygon fill="#000000" stroke="#000000" points="216.6871,-74.7454 206.2408,-76.5132 215.5094,-81.6456 216.6871,-74.7454"/>
</g>
<!-- httpd&#45;filesystem -->
<g id="node3" class="node">
<title>httpd&#45;filesystem</title>
<text text-anchor="middle" x="904" y="-86.3" font-family="Times,serif" font-size="14.00" fill="#000000">httpd&#45;filesystem</text>
</g>
<!-- httpd&#45;filesystem&#45;&gt;php -->
<g id="edge3" class="edge">
<title>httpd&#45;filesystem&#45;&gt;php</title>
<path fill="none" stroke="#000000" d="M851.331,-74.1993C804.8729,-60.2619 738.5074,-40.3522 698.507,-28.3521"/>
<polygon fill="#000000" stroke="#000000" points="699.275,-24.9284 688.6909,-25.4073 697.2635,-31.6332 699.275,-24.9284"/>
</g>
<!-- php&#45;cli -->
<g id="node4" class="node">
<title>php&#45;cli</title>
<text text-anchor="middle" x="664" y="-86.3" font-family="Times,serif" font-size="14.00" fill="#000000">php&#45;cli</text>
</g>
<!-- php&#45;cli&#45;&gt;php -->
<g id="edge4" class="edge">
<title>php&#45;cli&#45;&gt;php</title>
<path fill="none" stroke="#000000" d="M664,-71.8314C664,-64.131 664,-54.9743 664,-46.4166"/>
<polygon fill="#000000" stroke="#000000" points="667.5001,-46.4132 664,-36.4133 660.5001,-46.4133 667.5001,-46.4132"/>
</g>
<!-- php&#45;common -->
<g id="node5" class="node">
<title>php&#45;common</title>
<text text-anchor="middle" x="996" y="-158.3" font-family="Times,serif" font-size="14.00" fill="#000000">php&#45;common</text>
</g>
<!-- php&#45;common&#45;&gt;php -->
<g id="edge5" class="edge">
<title>php&#45;common&#45;&gt;php</title>
<path fill="none" stroke="#000000" d="M995.2218,-143.823C993.3091,-123.2028 986.9298,-90.0989 966,-72 926.9129,-38.1996 773.5767,-24.6147 701.6411,-20.0186"/>
<polygon fill="#000000" stroke="#000000" points="701.4283,-16.4991 691.2327,-19.3804 700.9997,-23.486 701.4283,-16.4991"/>
</g>
<!-- apr -->
<g id="node6" class="node">
<title>apr</title>
<text text-anchor="middle" x="179" y="-158.3" font-family="Times,serif" font-size="14.00" fill="#000000">apr</text>
</g>
<!-- apr&#45;&gt;httpd -->
<g id="edge6" class="edge">
<title>apr&#45;&gt;httpd</title>
<path fill="none" stroke="#000000" d="M179,-143.8314C179,-136.131 179,-126.9743 179,-118.4166"/>
<polygon fill="#000000" stroke="#000000" points="182.5001,-118.4132 179,-108.4133 175.5001,-118.4133 182.5001,-118.4132"/>
</g>
<!-- apr&#45;util -->
<g id="node7" class="node">
<title>apr&#45;util</title>
<text text-anchor="middle" x="28" y="-158.3" font-family="Times,serif" font-size="14.00" fill="#000000">apr&#45;util</text>
</g>
<!-- apr&#45;util&#45;&gt;httpd -->
<g id="edge7" class="edge">
<title>apr&#45;util&#45;&gt;httpd</title>
<path fill="none" stroke="#000000" d="M56.2671,-148.211C59.214,-146.7847 62.1665,-145.3603 65,-144 90.9122,-131.5603 120.2199,-117.6819 142.6302,-107.1099"/>
<polygon fill="#000000" stroke="#000000" points="144.2296,-110.2254 151.7823,-102.7953 141.2446,-103.8938 144.2296,-110.2254"/>
</g>
<!-- mailcap -->
<g id="node8" class="node">
<title>mailcap</title>
<text text-anchor="middle" x="104" y="-158.3" font-family="Times,serif" font-size="14.00" fill="#000000">mailcap</text>
</g>
<!-- mailcap&#45;&gt;httpd -->
<g id="edge8" class="edge">
<title>mailcap&#45;&gt;httpd</title>
<path fill="none" stroke="#000000" d="M122.9257,-143.8314C131.9857,-135.1337 142.9809,-124.5783 152.8265,-115.1265"/>
<polygon fill="#000000" stroke="#000000" points="155.2904,-117.613 160.0804,-108.1628 150.4426,-112.5633 155.2904,-117.613"/>
</g>
<!-- php&#45;json -->
<g id="node9" class="node">
<title>php&#45;json</title>
<text text-anchor="middle" x="996" y="-230.3" font-family="Times,serif" font-size="14.00" fill="#000000">php&#45;json</text>
</g>
<!-- php&#45;json&#45;&gt;php&#45;common -->
<g id="edge9" class="edge">
<title>php&#45;json&#45;&gt;php&#45;common</title>
<path fill="none" stroke="#000000" d="M996,-215.8314C996,-208.131 996,-198.9743 996,-190.4166"/>
<polygon fill="#000000" stroke="#000000" points="999.5001,-190.4132 996,-180.4133 992.5001,-190.4133 999.5001,-190.4132"/>
</g>
<!-- base&#45;runtime -->
<g id="node10" class="node">
<title>base&#45;runtime</title>
<polygon fill="none" stroke="#000000" points="694,-252 606,-252 606,-216 694,-216 694,-252"/>
<text text-anchor="middle" x="650" y="-230.3" font-family="Times,serif" font-size="14.00" fill="#000000">base&#45;runtime</text>
</g>
<!-- base&#45;runtime&#45;&gt;php -->
<g id="edge13" class="edge">
<title>base&#45;runtime&#45;&gt;php</title>
<path fill="none" stroke="#000000" d="M605.9049,-229.9888C519.8905,-221.7175 336.4672,-201.7136 318,-180 227.3413,-73.4043 521.1037,-32.4778 627.2422,-21.3788"/>
<polygon fill="#000000" stroke="#000000" points="627.6048,-24.8601 637.2001,-20.368 626.8977,-17.8959 627.6048,-24.8601"/>
</g>
<!-- base&#45;runtime&#45;&gt;httpd -->
<g id="edge10" class="edge">
<title>base&#45;runtime&#45;&gt;httpd</title>
<path fill="none" stroke="#000000" d="M605.9485,-231.7878C516.5864,-226.6822 317.4378,-211.9822 258,-180 230.9264,-165.4323 208.7707,-137.6645 194.8849,-116.807"/>
<polygon fill="#000000" stroke="#000000" points="197.8007,-114.8702 189.45,-108.3498 191.9119,-118.6547 197.8007,-114.8702"/>
</g>
<!-- base&#45;runtime&#45;&gt;httpd&#45;filesystem -->
<g id="edge11" class="edge">
<title>base&#45;runtime&#45;&gt;httpd&#45;filesystem</title>
<path fill="none" stroke="#000000" d="M694.1186,-231.1301C759.7247,-225.8396 878.0762,-212.0146 904,-180 917.8359,-162.9133 916.462,-137.4195 912.4183,-117.9228"/>
<polygon fill="#000000" stroke="#000000" points="915.7917,-116.981 910.0522,-108.0755 908.9855,-118.6165 915.7917,-116.981"/>
</g>
<!-- base&#45;runtime&#45;&gt;php&#45;cli -->
<g id="edge14" class="edge">
<title>base&#45;runtime&#45;&gt;php&#45;cli</title>
<path fill="none" stroke="#000000" d="M681.4561,-215.9802C694.0312,-206.9479 707.1389,-194.7662 714,-180 720.7421,-165.4899 719.8377,-158.897 714,-144 709.8242,-133.3439 702.4487,-123.5335 694.6241,-115.2816"/>
<polygon fill="#000000" stroke="#000000" points="696.9729,-112.6825 687.3909,-108.162 692.0625,-117.6713 696.9729,-112.6825"/>
</g>
<!-- base&#45;runtime&#45;&gt;php&#45;common -->
<g id="edge12" class="edge">
<title>base&#45;runtime&#45;&gt;php&#45;common</title>
<path fill="none" stroke="#000000" d="M694.0832,-227.2547C750.7012,-218.2381 851.8237,-200.9386 937,-180 938.2577,-179.6908 939.5282,-179.3707 940.8076,-179.0413"/>
<polygon fill="#000000" stroke="#000000" points="941.9801,-182.3502 950.7217,-176.364 940.1551,-175.5922 941.9801,-182.3502"/>
</g>
<!-- base&#45;runtime&#45;&gt;apr -->
<g id="edge15" class="edge">
<title>base&#45;runtime&#45;&gt;apr</title>
<path fill="none" stroke="#000000" d="M605.8501,-232.641C527.021,-229.2976 357.439,-217.935 220,-180 218.7355,-179.651 217.4595,-179.2697 216.179,-178.8621"/>
<polygon fill="#000000" stroke="#000000" points="216.9866,-175.432 206.3924,-175.3148 214.6012,-182.0131 216.9866,-175.432"/>
</g>
<!-- shared&#45;userspace -->
<g id="node12" class="node">
<title>shared&#45;userspace</title>
<polygon fill="none" stroke="#000000" points="704.5,-180 595.5,-180 595.5,-144 704.5,-144 704.5,-180"/>
<text text-anchor="middle" x="650" y="-158.3" font-family="Times,serif" font-size="14.00" fill="#000000">shared&#45;userspace</text>
</g>
<!-- base&#45;runtime&#45;&gt;shared&#45;userspace -->
<g id="edge22" class="edge">
<title>base&#45;runtime&#45;&gt;shared&#45;userspace</title>
<path fill="none" stroke="#000000" d="M650,-215.8314C650,-208.131 650,-198.9743 650,-190.4166"/>
<polygon fill="#000000" stroke="#000000" points="653.5001,-190.4132 650,-180.4133 646.5001,-190.4133 653.5001,-190.4132"/>
</g>
<!-- postgresql -->
<g id="node13" class="node">
<title>postgresql</title>
<ellipse fill="none" stroke="#000000" cx="774" cy="-90" rx="46.5926" ry="18"/>
<text text-anchor="middle" x="774" y="-86.3" font-family="Times,serif" font-size="14.00" fill="#000000">postgresql</text>
</g>
<!-- base&#45;runtime&#45;&gt;postgresql -->
<g id="edge18" class="edge">
<title>base&#45;runtime&#45;&gt;postgresql</title>
<path fill="none" stroke="#000000" d="M684.9644,-215.892C700.2277,-206.6982 717.4631,-194.4133 730,-180 745.8677,-161.7573 757.4769,-136.7879 764.7735,-117.7769"/>
<polygon fill="#000000" stroke="#000000" points="768.1366,-118.7715 768.2894,-108.1777 761.5636,-116.3639 768.1366,-118.7715"/>
</g>
<!-- postgresql&#45;libs -->
<g id="node14" class="node">
<title>postgresql&#45;libs</title>
<text text-anchor="middle" x="847" y="-158.3" font-family="Times,serif" font-size="14.00" fill="#000000">postgresql&#45;libs</text>
</g>
<!-- base&#45;runtime&#45;&gt;postgresql&#45;libs -->
<g id="edge19" class="edge">
<title>base&#45;runtime&#45;&gt;postgresql&#45;libs</title>
<path fill="none" stroke="#000000" d="M694.2106,-217.8418C722.2582,-207.5909 758.8463,-194.2186 789.1862,-183.1299"/>
<polygon fill="#000000" stroke="#000000" points="790.6077,-186.3369 798.7985,-179.6168 788.2047,-179.7623 790.6077,-186.3369"/>
</g>
<!-- nginx -->
<g id="node15" class="node">
<title>nginx</title>
<ellipse fill="none" stroke="#000000" cx="456" cy="-90" rx="30.5947" ry="18"/>
<text text-anchor="middle" x="456" y="-86.3" font-family="Times,serif" font-size="14.00" fill="#000000">nginx</text>
</g>
<!-- base&#45;runtime&#45;&gt;nginx -->
<g id="edge24" class="edge">
<title>base&#45;runtime&#45;&gt;nginx</title>
<path fill="none" stroke="#000000" d="M605.75,-229.7144C521.9174,-221.1474 346.7003,-200.9266 329,-180 318.6673,-167.7838 320.1731,-157.3449 329,-144 348.1543,-115.0417 386.3186,-101.5647 415.8332,-95.3213"/>
<polygon fill="#000000" stroke="#000000" points="416.7029,-98.7185 425.8668,-93.4011 415.3871,-91.8433 416.7029,-98.7185"/>
</g>
<!-- nginx&#45;filesystem -->
<g id="node16" class="node">
<title>nginx&#45;filesystem</title>
<text text-anchor="middle" x="392" y="-158.3" font-family="Times,serif" font-size="14.00" fill="#000000">nginx&#45;filesystem</text>
</g>
<!-- base&#45;runtime&#45;&gt;nginx&#45;filesystem -->
<g id="edge23" class="edge">
<title>base&#45;runtime&#45;&gt;nginx&#45;filesystem</title>
<path fill="none" stroke="#000000" d="M605.6867,-221.7019C566.3594,-210.7788 507.3436,-194.3659 456,-180 455.8993,-179.9718 455.7984,-179.9436 455.6975,-179.9154"/>
<polygon fill="#000000" stroke="#000000" points="456.6922,-176.5593 446.1187,-177.2319 454.8038,-183.2998 456.6922,-176.5593"/>
</g>
<!-- common&#45;build&#45;dependencies -->
<g id="node11" class="node">
<title>common&#45;build&#45;dependencies</title>
<polygon fill="none" stroke="#000000" points="1221.5,-252 1046.5,-252 1046.5,-216 1221.5,-216 1221.5,-252"/>
<text text-anchor="middle" x="1134" y="-230.3" font-family="Times,serif" font-size="14.00" fill="#000000">common&#45;build&#45;dependencies</text>
</g>
<!-- shared&#45;userspace&#45;&gt;php&#45;cli -->
<g id="edge16" class="edge">
<title>shared&#45;userspace&#45;&gt;php&#45;cli</title>
<path fill="none" stroke="#000000" d="M653.5328,-143.8314C655.0301,-136.131 656.8105,-126.9743 658.4745,-118.4166"/>
<polygon fill="#000000" stroke="#000000" points="661.9465,-118.8975 660.4196,-108.4133 655.0752,-117.5614 661.9465,-118.8975"/>
</g>
<!-- shared&#45;userspace&#45;&gt;nginx -->
<g id="edge25" class="edge">
<title>shared&#45;userspace&#45;&gt;nginx</title>
<path fill="none" stroke="#000000" d="M601.0456,-143.8314C566.9122,-131.1633 522.1597,-114.5541 491.4425,-103.1539"/>
<polygon fill="#000000" stroke="#000000" points="492.5868,-99.8454 481.9938,-99.6472 490.1511,-106.408 492.5868,-99.8454"/>
</g>
<!-- postgresql&#45;libs&#45;&gt;postgresql -->
<g id="edge17" class="edge">
<title>postgresql&#45;libs&#45;&gt;postgresql</title>
<path fill="none" stroke="#000000" d="M828.579,-143.8314C819.424,-134.8018 808.2389,-123.7699 798.3833,-114.0492"/>
<polygon fill="#000000" stroke="#000000" points="800.7388,-111.4566 791.1614,-106.9263 795.8233,-116.4403 800.7388,-111.4566"/>
</g>
<!-- nginx&#45;filesystem&#45;&gt;nginx -->
<g id="edge20" class="edge">
<title>nginx&#45;filesystem&#45;&gt;nginx</title>
<path fill="none" stroke="#000000" d="M408.1499,-143.8314C416.3313,-134.6273 426.3619,-123.3429 435.1224,-113.4873"/>
<polygon fill="#000000" stroke="#000000" points="437.7885,-115.7562 441.8162,-105.9568 432.5566,-111.1056 437.7885,-115.7562"/>
</g>
<!-- nginx&#45;mimetypes -->
<g id="node17" class="node">
<title>nginx&#45;mimetypes</title>
<text text-anchor="middle" x="521" y="-158.3" font-family="Times,serif" font-size="14.00" fill="#000000">nginx&#45;mimetypes</text>
</g>
<!-- nginx&#45;mimetypes&#45;&gt;nginx -->
<g id="edge21" class="edge">
<title>nginx&#45;mimetypes&#45;&gt;nginx</title>
<path fill="none" stroke="#000000" d="M504.5978,-143.8314C496.2886,-134.6273 486.1012,-123.3429 477.2039,-113.4873"/>
<polygon fill="#000000" stroke="#000000" points="479.7045,-111.0341 470.4054,-105.9568 474.5086,-115.7249 479.7045,-111.0341"/>
</g>
</g>
</svg>
