<?xml version="1.0" encoding="UTF-8" standalone="no"?>
<!DOCTYPE svg PUBLIC "-//W3C//DTD SVG 1.1//EN"
 "http://www.w3.org/Graphics/SVG/1.1/DTD/svg11.dtd">
<!-- Generated by graphviz version 2.40.1 (20161225.0304)
 -->
<!-- Title: G Pages: 1 -->
<svg width="904pt" height="279pt"
 viewBox="0.00 0.00 903.67 279.00" xmlns="http://www.w3.org/2000/svg" xmlns:xlink="http://www.w3.org/1999/xlink">
<g id="graph0" class="graph" transform="scale(1 1) rotate(0) translate(4 275)">
<title>G</title>
<polygon fill="#ffffff" stroke="transparent" points="-4,4 -4,-275 899.6737,-275 899.6737,4 -4,4"/>
<g id="clust1" class="cluster">
<title>cluster_postgresql</title>
<polygon fill="#d3d3d3" stroke="#d3d3d3" points="437,-80 437,-227 621,-227 621,-80 437,-80"/>
<text text-anchor="middle" x="529" y="-211.8" font-family="Arial Bold" font-size="14.00" fill="#000000">proposed for postgresql</text>
</g>
<g id="clust2" class="cluster">
<title>cluster_php</title>
<polygon fill="#d3d3d3" stroke="#d3d3d3" points="8,-8 8,-227 311,-227 311,-8 8,-8"/>
<text text-anchor="middle" x="159.5" y="-211.8" font-family="Arial Bold" font-size="14.00" fill="#000000">proposed for php</text>
</g>
<!-- httpd -->
<g id="node1" class="node">
<title>httpd</title>
<polygon fill="none" stroke="#000000" points="721,-124 667,-124 667,-88 721,-88 721,-124"/>
<text text-anchor="middle" x="694" y="-102.3" font-family="Times,serif" font-size="14.00" fill="#000000">httpd</text>
</g>
<!-- httpd&#45;&gt;httpd -->
<g id="edge3" class="edge">
<title>httpd&#45;&gt;httpd</title>
<path fill="none" stroke="#000000" d="M721.2408,-119.4868C731.0239,-119.7769 739,-115.2813 739,-106 739,-100.1992 735.8843,-96.2678 731.1591,-94.2058"/>
<polygon fill="#000000" stroke="#000000" points="731.6871,-90.7454 721.2408,-92.5132 730.5094,-97.6456 731.6871,-90.7454"/>
</g>
<!-- php -->
<g id="node10" class="node">
<title>php</title>
<ellipse fill="none" stroke="#000000" cx="275" cy="-34" rx="27" ry="18"/>
<text text-anchor="middle" x="275" y="-30.3" font-family="Times,serif" font-size="14.00" fill="#000000">php</text>
</g>
<!-- httpd&#45;&gt;php -->
<g id="edge2" class="edge">
<title>httpd&#45;&gt;php</title>
<path fill="none" stroke="#000000" d="M666.9288,-94.1498C654.3872,-89.091 639.1559,-83.5471 625,-80 513.2176,-51.9902 376.8217,-40.3103 312.2752,-36.0826"/>
<polygon fill="#000000" stroke="#000000" points="312.3809,-32.5824 302.18,-35.4443 311.9392,-39.5684 312.3809,-32.5824"/>
</g>
<!-- apr -->
<g id="node2" class="node">
<title>apr</title>
<text text-anchor="middle" x="694" y="-174.3" font-family="Times,serif" font-size="14.00" fill="#000000">apr</text>
</g>
<!-- apr&#45;&gt;httpd -->
<g id="edge7" class="edge">
<title>apr&#45;&gt;httpd</title>
<path fill="none" stroke="#000000" d="M694,-159.8314C694,-152.131 694,-142.9743 694,-134.4166"/>
<polygon fill="#000000" stroke="#000000" points="697.5001,-134.4132 694,-124.4133 690.5001,-134.4133 697.5001,-134.4132"/>
</g>
<!-- apr&#45;util -->
<g id="node3" class="node">
<title>apr&#45;util</title>
<text text-anchor="middle" x="767" y="-174.3" font-family="Times,serif" font-size="14.00" fill="#000000">apr&#45;util</text>
</g>
<!-- apr&#45;util&#45;&gt;httpd -->
<g id="edge8" class="edge">
<title>apr&#45;util&#45;&gt;httpd</title>
<path fill="none" stroke="#000000" d="M748.579,-159.8314C739.8471,-151.219 729.2683,-140.7851 719.7577,-131.4048"/>
<polygon fill="#000000" stroke="#000000" points="721.9925,-128.6931 712.4151,-124.1628 717.077,-133.6769 721.9925,-128.6931"/>
</g>
<!-- mailcap -->
<g id="node4" class="node">
<title>mailcap</title>
<text text-anchor="middle" x="843" y="-174.3" font-family="Times,serif" font-size="14.00" fill="#000000">mailcap</text>
</g>
<!-- mailcap&#45;&gt;httpd -->
<g id="edge9" class="edge">
<title>mailcap&#45;&gt;httpd</title>
<path fill="none" stroke="#000000" d="M812.8476,-163.4297C789.0204,-151.9159 755.6775,-135.8039 730.3706,-123.5751"/>
<polygon fill="#000000" stroke="#000000" points="731.6283,-120.2956 721.1016,-119.0961 728.5826,-126.5984 731.6283,-120.2956"/>
</g>
<!-- base&#45;runtime -->
<g id="node5" class="node">
<title>base&#45;runtime</title>
<polygon fill="none" stroke="#000000" points="592,-271 504,-271 504,-235 592,-235 592,-271"/>
<text text-anchor="middle" x="548" y="-249.3" font-family="Times,serif" font-size="14.00" fill="#000000">base&#45;runtime</text>
</g>
<!-- base&#45;runtime&#45;&gt;httpd -->
<g id="edge18" class="edge">
<title>base&#45;runtime&#45;&gt;httpd</title>
<path fill="none" stroke="#000000" d="M592.2401,-237.9542C595.204,-236.9527 598.1448,-235.9607 601,-235 611.6566,-231.4143 616.528,-234.3923 625,-227 650.0111,-205.1764 641.4252,-188.7594 658,-160 663.2614,-150.8709 669.4827,-141.2056 675.2606,-132.6141"/>
<polygon fill="#000000" stroke="#000000" points="678.3139,-134.3492 681.0623,-124.117 672.5329,-130.4019 678.3139,-134.3492"/>
</g>
<!-- base&#45;runtime&#45;&gt;apr -->
<g id="edge12" class="edge">
<title>base&#45;runtime&#45;&gt;apr</title>
<path fill="none" stroke="#000000" d="M592.0757,-237.3875C595.0793,-236.5228 598.0739,-235.7161 601,-235 623.7127,-229.4412 632.631,-238.4834 653,-227 662.5657,-221.6071 670.8646,-213.0573 677.4458,-204.5987"/>
<polygon fill="#000000" stroke="#000000" points="680.4268,-206.4488 683.4379,-196.2909 674.7494,-202.354 680.4268,-206.4488"/>
</g>
<!-- postgresql&#45;libs -->
<g id="node8" class="node">
<title>postgresql&#45;libs</title>
<text text-anchor="middle" x="510" y="-174.3" font-family="Times,serif" font-size="14.00" fill="#000000">postgresql&#45;libs</text>
</g>
<!-- base&#45;runtime&#45;&gt;postgresql&#45;libs -->
<g id="edge14" class="edge">
<title>base&#45;runtime&#45;&gt;postgresql&#45;libs</title>
<path fill="none" stroke="#000000" d="M538.8013,-234.8446C534.307,-225.9743 528.8051,-215.1154 523.8188,-205.2739"/>
<polygon fill="#000000" stroke="#000000" points="526.8876,-203.5866 519.2457,-196.2482 520.6433,-206.7504 526.8876,-203.5866"/>
</g>
<!-- postgresql -->
<g id="node9" class="node">
<title>postgresql</title>
<ellipse fill="none" stroke="#000000" cx="538" cy="-106" rx="46.5926" ry="18"/>
<text text-anchor="middle" x="538" y="-102.3" font-family="Times,serif" font-size="14.00" fill="#000000">postgresql</text>
</g>
<!-- base&#45;runtime&#45;&gt;postgresql -->
<g id="edge11" class="edge">
<title>base&#45;runtime&#45;&gt;postgresql</title>
<path fill="none" stroke="#000000" d="M563.4236,-234.7501C564.8791,-232.2685 566.1325,-229.6573 567,-227 576.2409,-198.6924 574.2638,-188.8783 567,-160 564.5981,-150.4508 560.1438,-140.7499 555.4346,-132.2544"/>
<polygon fill="#000000" stroke="#000000" points="558.4074,-130.4053 550.3096,-123.5733 552.3794,-133.964 558.4074,-130.4053"/>
</g>
<!-- base&#45;runtime&#45;&gt;php -->
<g id="edge17" class="edge">
<title>base&#45;runtime&#45;&gt;php</title>
<path fill="none" stroke="#000000" d="M592.2785,-236.8901C595.2061,-236.1582 598.1308,-235.516 601,-235 616.3709,-232.2358 871.1151,-238.1992 882,-227 902.7543,-205.6464 896.6999,-185.8965 882,-160 847.7592,-99.6789 813.8932,-101.6598 748,-80 667.1642,-53.4284 409.5184,-39.8126 312.4649,-35.5252"/>
<polygon fill="#000000" stroke="#000000" points="312.3871,-32.0186 302.2448,-35.0821 312.0838,-39.012 312.3871,-32.0186"/>
</g>
<!-- httpd&#45;filesystem -->
<g id="node11" class="node">
<title>httpd&#45;filesystem</title>
<text text-anchor="middle" x="177" y="-102.3" font-family="Times,serif" font-size="14.00" fill="#000000">httpd&#45;filesystem</text>
</g>
<!-- base&#45;runtime&#45;&gt;httpd&#45;filesystem -->
<g id="edge15" class="edge">
<title>base&#45;runtime&#45;&gt;httpd&#45;filesystem</title>
<path fill="none" stroke="#000000" d="M503.879,-250.6962C431.5339,-246.6397 293.7117,-237.6365 274,-227 235.0433,-205.9788 206.1158,-162.0495 190.4038,-133.3079"/>
<polygon fill="#000000" stroke="#000000" points="193.3553,-131.4021 185.5866,-124.1981 187.1672,-134.6743 193.3553,-131.4021"/>
</g>
<!-- php&#45;cli -->
<g id="node12" class="node">
<title>php&#45;cli</title>
<text text-anchor="middle" x="275" y="-102.3" font-family="Times,serif" font-size="14.00" fill="#000000">php&#45;cli</text>
</g>
<!-- base&#45;runtime&#45;&gt;php&#45;cli -->
<g id="edge13" class="edge">
<title>base&#45;runtime&#45;&gt;php&#45;cli</title>
<path fill="none" stroke="#000000" d="M503.999,-250.8187C439.2904,-247.2206 324.5166,-239.2028 310,-227 282.9854,-204.2912 276.1217,-162.1276 274.7383,-134.0624"/>
<polygon fill="#000000" stroke="#000000" points="278.2369,-133.9598 274.4459,-124.0665 271.2399,-134.1646 278.2369,-133.9598"/>
</g>
<!-- php&#45;common -->
<g id="node13" class="node">
<title>php&#45;common</title>
<text text-anchor="middle" x="61" y="-102.3" font-family="Times,serif" font-size="14.00" fill="#000000">php&#45;common</text>
</g>
<!-- base&#45;runtime&#45;&gt;php&#45;common -->
<g id="edge16" class="edge">
<title>base&#45;runtime&#45;&gt;php&#45;common</title>
<path fill="none" stroke="#000000" d="M503.8503,-251.2022C417.0336,-247.4445 230.1474,-238.174 203,-227 152.8997,-206.3785 107.6452,-161.0451 82.294,-132.0981"/>
<polygon fill="#000000" stroke="#000000" points="84.8548,-129.7078 75.684,-124.4023 79.5446,-134.2688 84.8548,-129.7078"/>
</g>
<!-- common&#45;build&#45;dependencies -->
<g id="node6" class="node">
<title>common&#45;build&#45;dependencies</title>
<polygon fill="none" stroke="#000000" points="785.5,-271 610.5,-271 610.5,-235 785.5,-235 785.5,-271"/>
<text text-anchor="middle" x="698" y="-249.3" font-family="Times,serif" font-size="14.00" fill="#000000">common&#45;build&#45;dependencies</text>
</g>
<!-- shared&#45;userspace -->
<g id="node7" class="node">
<title>shared&#45;userspace</title>
<polygon fill="none" stroke="#000000" points="428.5,-196 319.5,-196 319.5,-160 428.5,-160 428.5,-196"/>
<text text-anchor="middle" x="374" y="-174.3" font-family="Times,serif" font-size="14.00" fill="#000000">shared&#45;userspace</text>
</g>
<!-- shared&#45;userspace&#45;&gt;php&#45;cli -->
<g id="edge19" class="edge">
<title>shared&#45;userspace&#45;&gt;php&#45;cli</title>
<path fill="none" stroke="#000000" d="M349.0181,-159.8314C336.7072,-150.8779 321.6893,-139.9558 308.4063,-130.2955"/>
<polygon fill="#000000" stroke="#000000" points="310.1199,-127.214 299.9739,-124.1628 306.0027,-132.8752 310.1199,-127.214"/>
</g>
<!-- postgresql&#45;libs&#45;&gt;postgresql -->
<g id="edge1" class="edge">
<title>postgresql&#45;libs&#45;&gt;postgresql</title>
<path fill="none" stroke="#000000" d="M517.0656,-159.8314C520.1731,-151.8406 523.8904,-142.2819 527.3245,-133.4514"/>
<polygon fill="#000000" stroke="#000000" points="530.6712,-134.502 531.0337,-123.9134 524.1471,-131.9649 530.6712,-134.502"/>
</g>
<!-- httpd&#45;filesystem&#45;&gt;php -->
<g id="edge4" class="edge">
<title>httpd&#45;filesystem&#45;&gt;php</title>
<path fill="none" stroke="#000000" d="M201.7295,-87.8314C216.0443,-77.3144 234.0561,-64.0812 248.6391,-53.3672"/>
<polygon fill="#000000" stroke="#000000" points="250.7886,-56.1311 256.7751,-47.3897 246.644,-50.4899 250.7886,-56.1311"/>
</g>
<!-- php&#45;cli&#45;&gt;php -->
<g id="edge5" class="edge">
<title>php&#45;cli&#45;&gt;php</title>
<path fill="none" stroke="#000000" d="M275,-87.8314C275,-80.131 275,-70.9743 275,-62.4166"/>
<polygon fill="#000000" stroke="#000000" points="278.5001,-62.4132 275,-52.4133 271.5001,-62.4133 278.5001,-62.4132"/>
</g>
<!-- php&#45;common&#45;&gt;php -->
<g id="edge6" class="edge">
<title>php&#45;common&#45;&gt;php</title>
<path fill="none" stroke="#000000" d="M96.3548,-87.9317C102.4944,-85.0966 108.8751,-82.3358 115,-80 156.792,-64.0621 206.5247,-50.5838 239.3262,-42.4155"/>
<polygon fill="#000000" stroke="#000000" points="240.473,-45.7379 249.3495,-39.9536 238.8033,-38.9399 240.473,-45.7379"/>
</g>
<!-- php&#45;json -->
<g id="node14" class="node">
<title>php&#45;json</title>
<text text-anchor="middle" x="61" y="-174.3" font-family="Times,serif" font-size="14.00" fill="#000000">php&#45;json</text>
</g>
<!-- php&#45;json&#45;&gt;php&#45;common -->
<g id="edge10" class="edge">
<title>php&#45;json&#45;&gt;php&#45;common</title>
<path fill="none" stroke="#000000" d="M61,-159.8314C61,-152.131 61,-142.9743 61,-134.4166"/>
<polygon fill="#000000" stroke="#000000" points="64.5001,-134.4132 61,-124.4133 57.5001,-134.4133 64.5001,-134.4132"/>
</g>
</g>
</svg>
