<?xml version="1.0" encoding="UTF-8" standalone="no"?>
<!DOCTYPE svg PUBLIC "-//W3C//DTD SVG 1.1//EN"
 "http://www.w3.org/Graphics/SVG/1.1/DTD/svg11.dtd">
<!-- Generated by graphviz version 2.40.1 (20161225.0304)
 -->
<!-- Title: %3 Pages: 1 -->
<svg width="2090pt" height="332pt"
 viewBox="0.00 0.00 2090.24 332.00" xmlns="http://www.w3.org/2000/svg" xmlns:xlink="http://www.w3.org/1999/xlink">
<g id="graph0" class="graph" transform="scale(1 1) rotate(0) translate(4 328)">
<title>%3</title>
<polygon fill="#ffffff" stroke="transparent" points="-4,4 -4,-328 2086.2399,-328 2086.2399,4 -4,4"/>
<!-- postgresql -->
<g id="node1" class="node">
<title>postgresql</title>
<text text-anchor="middle" x="615.5" y="-86.3" font-family="Times,serif" font-size="14.00" fill="#000000">postgresql</text>
</g>
<!-- requested by user -->
<g id="node27" class="node">
<title>requested by user</title>
<ellipse fill="none" stroke="#000000" cx="615.5" cy="-18" rx="72.5877" ry="18"/>
<text text-anchor="middle" x="615.5" y="-14.3" font-family="Times,serif" font-size="14.00" fill="#000000">requested by user</text>
</g>
<!-- postgresql&#45;&gt;requested by user -->
<g id="edge1" class="edge">
<title>postgresql&#45;&gt;requested by user</title>
<path fill="none" stroke="#000000" d="M615.5,-71.8314C615.5,-64.131 615.5,-54.9743 615.5,-46.4166"/>
<polygon fill="#000000" stroke="#000000" points="619.0001,-46.4132 615.5,-36.4133 612.0001,-46.4133 619.0001,-46.4132"/>
</g>
<!-- postgresql&#45;libs -->
<g id="node2" class="node">
<title>postgresql&#45;libs</title>
<text text-anchor="middle" x="409.5" y="-158.3" font-family="Times,serif" font-size="14.00" fill="#000000">postgresql&#45;libs</text>
</g>
<!-- postgresql&#45;libs&#45;&gt;postgresql -->
<g id="edge2" class="edge">
<title>postgresql&#45;libs&#45;&gt;postgresql</title>
<path fill="none" stroke="#000000" d="M457.5379,-145.2101C491.4069,-133.3723 536.489,-117.6155 569.8208,-105.9655"/>
<polygon fill="#000000" stroke="#000000" points="571.0408,-109.2468 579.326,-102.6433 568.7312,-102.6388 571.0408,-109.2468"/>
</g>
<!-- glibc&#45;common -->
<g id="node3" class="node">
<title>glibc&#45;common</title>
<text text-anchor="middle" x="189.5" y="-230.3" font-family="Times,serif" font-size="14.00" fill="#000000">glibc&#45;common</text>
</g>
<!-- krb5&#45;libs -->
<g id="node4" class="node">
<title>krb5&#45;libs</title>
<text text-anchor="middle" x="90.5" y="-230.3" font-family="Times,serif" font-size="14.00" fill="#000000">krb5&#45;libs</text>
</g>
<!-- krb5&#45;libs&#45;&gt;postgresql&#45;libs -->
<g id="edge3" class="edge">
<title>krb5&#45;libs&#45;&gt;postgresql&#45;libs</title>
<path fill="none" stroke="#000000" d="M123.3772,-218.8165C126.0979,-217.7902 128.8287,-216.8344 131.5,-216 205.7221,-192.8148 294.3411,-177.6667 351.2396,-169.4743"/>
<polygon fill="#000000" stroke="#000000" points="352.0729,-172.8914 361.4841,-168.0252 351.0924,-165.9604 352.0729,-172.8914"/>
</g>
<!-- openssl&#45;libs -->
<g id="node5" class="node">
<title>openssl&#45;libs</title>
<text text-anchor="middle" x="296.5" y="-230.3" font-family="Times,serif" font-size="14.00" fill="#000000">openssl&#45;libs</text>
</g>
<!-- openssl&#45;libs&#45;&gt;postgresql&#45;libs -->
<g id="edge4" class="edge">
<title>openssl&#45;libs&#45;&gt;postgresql&#45;libs</title>
<path fill="none" stroke="#000000" d="M325.0147,-215.8314C339.3342,-206.7074 356.8624,-195.539 372.2338,-185.7449"/>
<polygon fill="#000000" stroke="#000000" points="374.4417,-188.4882 380.9945,-180.1628 370.6801,-182.5847 374.4417,-188.4882"/>
</g>
<!-- info -->
<g id="node6" class="node">
<title>info</title>
<text text-anchor="middle" x="791.5" y="-302.3" font-family="Times,serif" font-size="14.00" fill="#000000">info</text>
</g>
<!-- ncurses&#45;libs -->
<g id="node7" class="node">
<title>ncurses&#45;libs</title>
<text text-anchor="middle" x="879.5" y="-230.3" font-family="Times,serif" font-size="14.00" fill="#000000">ncurses&#45;libs</text>
</g>
<!-- keyutils&#45;libs -->
<g id="node8" class="node">
<title>keyutils&#45;libs</title>
<text text-anchor="middle" x="41.5" y="-302.3" font-family="Times,serif" font-size="14.00" fill="#000000">keyutils&#45;libs</text>
</g>
<!-- keyutils&#45;libs&#45;&gt;krb5&#45;libs -->
<g id="edge5" class="edge">
<title>keyutils&#45;libs&#45;&gt;krb5&#45;libs</title>
<path fill="none" stroke="#000000" d="M53.8648,-287.8314C59.4509,-279.6232 66.163,-269.7606 72.3072,-260.7323"/>
<polygon fill="#000000" stroke="#000000" points="75.236,-262.6496 77.9687,-252.4133 69.449,-258.7112 75.236,-262.6496"/>
</g>
<!-- libcom_err -->
<g id="node9" class="node">
<title>libcom_err</title>
<text text-anchor="middle" x="139.5" y="-302.3" font-family="Times,serif" font-size="14.00" fill="#000000">libcom_err</text>
</g>
<!-- libcom_err&#45;&gt;krb5&#45;libs -->
<g id="edge6" class="edge">
<title>libcom_err&#45;&gt;krb5&#45;libs</title>
<path fill="none" stroke="#000000" d="M127.1352,-287.8314C121.5491,-279.6232 114.837,-269.7606 108.6928,-260.7323"/>
<polygon fill="#000000" stroke="#000000" points="111.551,-258.7112 103.0313,-252.4133 105.764,-262.6496 111.551,-258.7112"/>
</g>
<!-- cyrus&#45;sasl&#45;lib -->
<g id="node10" class="node">
<title>cyrus&#45;sasl&#45;lib</title>
<text text-anchor="middle" x="706.5" y="-230.3" font-family="Times,serif" font-size="14.00" fill="#000000">cyrus&#45;sasl&#45;lib</text>
</g>
<!-- nss&#45;tools -->
<g id="node11" class="node">
<title>nss&#45;tools</title>
<text text-anchor="middle" x="973.5" y="-302.3" font-family="Times,serif" font-size="14.00" fill="#000000">nss&#45;tools</text>
</g>
<!-- ncurses&#45;base -->
<g id="node12" class="node">
<title>ncurses&#45;base</title>
<text text-anchor="middle" x="879.5" y="-302.3" font-family="Times,serif" font-size="14.00" fill="#000000">ncurses&#45;base</text>
</g>
<!-- ncurses&#45;base&#45;&gt;ncurses&#45;libs -->
<g id="edge7" class="edge">
<title>ncurses&#45;base&#45;&gt;ncurses&#45;libs</title>
<path fill="none" stroke="#000000" d="M879.5,-287.8314C879.5,-280.131 879.5,-270.9743 879.5,-262.4166"/>
<polygon fill="#000000" stroke="#000000" points="883.0001,-262.4132 879.5,-252.4133 876.0001,-262.4133 883.0001,-262.4132"/>
</g>
<!-- libacl -->
<g id="node13" class="node">
<title>libacl</title>
<text text-anchor="middle" x="1051.5" y="-230.3" font-family="Times,serif" font-size="14.00" fill="#000000">libacl</text>
</g>
<!-- nss&#45;sysinit -->
<g id="node14" class="node">
<title>nss&#45;sysinit</title>
<text text-anchor="middle" x="392.5" y="-230.3" font-family="Times,serif" font-size="14.00" fill="#000000">nss&#45;sysinit</text>
</g>
<!-- p11&#45;kit&#45;trust -->
<g id="node15" class="node">
<title>p11&#45;kit&#45;trust</title>
<text text-anchor="middle" x="489.5" y="-230.3" font-family="Times,serif" font-size="14.00" fill="#000000">p11&#45;kit&#45;trust</text>
</g>
<!-- libattr -->
<g id="node16" class="node">
<title>libattr</title>
<text text-anchor="middle" x="1051.5" y="-302.3" font-family="Times,serif" font-size="14.00" fill="#000000">libattr</text>
</g>
<!-- libattr&#45;&gt;libacl -->
<g id="edge8" class="edge">
<title>libattr&#45;&gt;libacl</title>
<path fill="none" stroke="#000000" d="M1051.5,-287.8314C1051.5,-280.131 1051.5,-270.9743 1051.5,-262.4166"/>
<polygon fill="#000000" stroke="#000000" points="1055.0001,-262.4132 1051.5,-252.4133 1048.0001,-262.4133 1055.0001,-262.4132"/>
</g>
<!-- nss&#45;softokn&#45;freebl -->
<g id="node17" class="node">
<title>nss&#45;softokn&#45;freebl</title>
<text text-anchor="middle" x="1154.5" y="-302.3" font-family="Times,serif" font-size="14.00" fill="#000000">nss&#45;softokn&#45;freebl</text>
</g>
<!-- sqlite&#45;libs -->
<g id="node18" class="node">
<title>sqlite&#45;libs</title>
<text text-anchor="middle" x="1265.5" y="-302.3" font-family="Times,serif" font-size="14.00" fill="#000000">sqlite&#45;libs</text>
</g>
<!-- fedora&#45;release -->
<g id="node19" class="node">
<title>fedora&#45;release</title>
<text text-anchor="middle" x="1361.5" y="-230.3" font-family="Times,serif" font-size="14.00" fill="#000000">fedora&#45;release</text>
</g>
<!-- fedora&#45;repos -->
<g id="node20" class="node">
<title>fedora&#45;repos</title>
<text text-anchor="middle" x="1361.5" y="-302.3" font-family="Times,serif" font-size="14.00" fill="#000000">fedora&#45;repos</text>
</g>
<!-- fedora&#45;repos&#45;&gt;fedora&#45;release -->
<g id="edge9" class="edge">
<title>fedora&#45;repos&#45;&gt;fedora&#45;release</title>
<path fill="none" stroke="#000000" d="M1361.5,-287.8314C1361.5,-280.131 1361.5,-270.9743 1361.5,-262.4166"/>
<polygon fill="#000000" stroke="#000000" points="1365.0001,-262.4132 1361.5,-252.4133 1358.0001,-262.4133 1365.0001,-262.4132"/>
</g>
<!-- coreutils&#45;common -->
<g id="node21" class="node">
<title>coreutils&#45;common</title>
<text text-anchor="middle" x="1480.5" y="-302.3" font-family="Times,serif" font-size="14.00" fill="#000000">coreutils&#45;common</text>
</g>
<!-- glibc&#45;all&#45;langpacks -->
<g id="node22" class="node">
<title>glibc&#45;all&#45;langpacks</title>
<text text-anchor="middle" x="1616.5" y="-302.3" font-family="Times,serif" font-size="14.00" fill="#000000">glibc&#45;all&#45;langpacks</text>
</g>
<!-- libcrypt&#45;nss -->
<g id="node23" class="node">
<title>libcrypt&#45;nss</title>
<text text-anchor="middle" x="706.5" y="-302.3" font-family="Times,serif" font-size="14.00" fill="#000000">libcrypt&#45;nss</text>
</g>
<!-- libcrypt&#45;nss&#45;&gt;cyrus&#45;sasl&#45;lib -->
<g id="edge10" class="edge">
<title>libcrypt&#45;nss&#45;&gt;cyrus&#45;sasl&#45;lib</title>
<path fill="none" stroke="#000000" d="M706.5,-287.8314C706.5,-280.131 706.5,-270.9743 706.5,-262.4166"/>
<polygon fill="#000000" stroke="#000000" points="710.0001,-262.4132 706.5,-252.4133 703.0001,-262.4133 710.0001,-262.4132"/>
</g>
<!-- base&#45;runtime -->
<g id="node24" class="node">
<title>base&#45;runtime</title>
<ellipse fill="none" stroke="#000000" cx="392.5" cy="-306" rx="57.3905" ry="18"/>
<text text-anchor="middle" x="392.5" y="-302.3" font-family="Times,serif" font-size="14.00" fill="#000000">base&#45;runtime</text>
</g>
<!-- base&#45;runtime&#45;&gt;postgresql -->
<g id="edge11" class="edge">
<title>base&#45;runtime&#45;&gt;postgresql</title>
<path fill="none" stroke="#000000" d="M433.8956,-293.4313C472.1938,-283.0573 524.5628,-267.562 540.5,-252 577.6807,-215.6945 590.6552,-153.7316 600.8304,-117.8775"/>
<polygon fill="#000000" stroke="#000000" points="604.2508,-118.6573 603.7825,-108.0728 597.548,-116.6392 604.2508,-118.6573"/>
</g>
<!-- base&#45;runtime&#45;&gt;postgresql -->
<g id="edge12" class="edge">
<title>base&#45;runtime&#45;&gt;postgresql</title>
<path fill="none" stroke="#000000" d="M439.7308,-295.574C482.5266,-285.2706 541.4244,-268.6736 558.5,-252 595.5212,-215.8503 608.5433,-154.263 613.0913,-118.3406"/>
<polygon fill="#000000" stroke="#000000" points="616.6065,-118.4018 614.2479,-108.0728 609.6505,-117.6182 616.6065,-118.4018"/>
</g>
<!-- base&#45;runtime&#45;&gt;postgresql -->
<g id="edge13" class="edge">
<title>base&#45;runtime&#45;&gt;postgresql</title>
<path fill="none" stroke="#000000" d="M443.458,-297.7279C491.7027,-287.6938 558.1777,-269.891 576.5,-252 613.5212,-215.8503 626.5433,-154.263 625.4834,-118.3406"/>
<polygon fill="#000000" stroke="#000000" points="628.9515,-117.783 624.7133,-108.0728 621.9711,-118.3066 628.9515,-117.783"/>
</g>
<!-- base&#45;runtime&#45;&gt;postgresql&#45;libs -->
<g id="edge14" class="edge">
<title>base&#45;runtime&#45;&gt;postgresql&#45;libs</title>
<path fill="none" stroke="#000000" d="M438.8917,-295.234C477.6529,-285.1885 528.4662,-269.2005 540.5,-252 549.672,-238.8899 549.4005,-229.2959 540.5,-216 524.1078,-191.5126 494.3732,-178.1182 467.3718,-170.7971"/>
<polygon fill="#000000" stroke="#000000" points="468.1262,-167.3782 457.5774,-168.3653 466.4394,-174.1719 468.1262,-167.3782"/>
</g>
<!-- base&#45;runtime&#45;&gt;glibc&#45;common -->
<g id="edge15" class="edge">
<title>base&#45;runtime&#45;&gt;glibc&#45;common</title>
<path fill="none" stroke="#000000" d="M351.3835,-293.2936C320.5242,-282.8951 278.0755,-267.9528 244.3474,-255.6701"/>
<polygon fill="#000000" stroke="#000000" points="245.2275,-252.2653 234.6337,-252.1174 242.8231,-258.8394 245.2275,-252.2653"/>
</g>
<!-- base&#45;runtime&#45;&gt;glibc&#45;common -->
<g id="edge16" class="edge">
<title>base&#45;runtime&#45;&gt;glibc&#45;common</title>
<path fill="none" stroke="#000000" d="M357.4341,-291.6028C327.2698,-280.3869 283.2858,-264.7317 247.855,-252.5724"/>
<polygon fill="#000000" stroke="#000000" points="248.7017,-249.1631 238.1072,-249.2422 246.4386,-255.7872 248.7017,-249.1631"/>
</g>
<!-- base&#45;runtime&#45;&gt;krb5&#45;libs -->
<g id="edge17" class="edge">
<title>base&#45;runtime&#45;&gt;krb5&#45;libs</title>
<path fill="none" stroke="#000000" d="M336.9893,-301.5196C276.769,-294.4544 184.2016,-279.0327 105.9316,-255.2478"/>
<polygon fill="#000000" stroke="#000000" points="106.5592,-251.7777 95.971,-252.1501 104.4804,-258.4619 106.5592,-251.7777"/>
</g>
<!-- base&#45;runtime&#45;&gt;krb5&#45;libs -->
<g id="edge18" class="edge">
<title>base&#45;runtime&#45;&gt;krb5&#45;libs</title>
<path fill="none" stroke="#000000" d="M338.3374,-300.1529C283.3906,-292.5622 197.3578,-277.5799 123.7756,-255.2005"/>
<polygon fill="#000000" stroke="#000000" points="124.5321,-251.7705 113.9438,-252.1415 122.4524,-258.4544 124.5321,-251.7705"/>
</g>
<!-- base&#45;runtime&#45;&gt;krb5&#45;libs -->
<g id="edge19" class="edge">
<title>base&#45;runtime&#45;&gt;krb5&#45;libs</title>
<path fill="none" stroke="#000000" d="M340.1728,-298.487C289.0653,-290.4139 209.142,-275.8337 133.1191,-252.2263"/>
<polygon fill="#000000" stroke="#000000" points="133.9786,-248.8273 123.3886,-249.1475 131.8669,-255.5012 133.9786,-248.8273"/>
</g>
<!-- base&#45;runtime&#45;&gt;krb5&#45;libs -->
<g id="edge20" class="edge">
<title>base&#45;runtime&#45;&gt;krb5&#45;libs</title>
<path fill="none" stroke="#000000" d="M343.4533,-296.7002C293.6054,-287.9613 215.5138,-273.0626 149.5,-252 144.1862,-250.3046 138.6304,-248.1455 132.9893,-245.916"/>
<polygon fill="#000000" stroke="#000000" points="134.0303,-242.5646 123.4429,-242.1666 131.4712,-249.0801 134.0303,-242.5646"/>
</g>
<!-- base&#45;runtime&#45;&gt;krb5&#45;libs -->
<g id="edge26" class="edge">
<title>base&#45;runtime&#45;&gt;krb5&#45;libs</title>
<path fill="none" stroke="#000000" d="M347.6682,-294.7711C300.7137,-285.8417 228.8851,-271.5858 167.5,-252 157.3908,-248.7745 146.4056,-243.8712 132.8953,-239.9963"/>
<polygon fill="#000000" stroke="#000000" points="133.6724,-236.5826 123.1184,-237.5113 131.948,-243.3669 133.6724,-236.5826"/>
</g>
<!-- base&#45;runtime&#45;&gt;openssl&#45;libs -->
<g id="edge21" class="edge">
<title>base&#45;runtime&#45;&gt;openssl&#45;libs</title>
<path fill="none" stroke="#000000" d="M370.2344,-289.3008C357.9414,-280.081 342.4512,-268.4634 328.8454,-258.2591"/>
<polygon fill="#000000" stroke="#000000" points="330.7629,-255.3222 320.6629,-252.1222 326.5629,-260.9222 330.7629,-255.3222"/>
</g>
<!-- base&#45;runtime&#45;&gt;cyrus&#45;sasl&#45;lib -->
<g id="edge22" class="edge">
<title>base&#45;runtime&#45;&gt;cyrus&#45;sasl&#45;lib</title>
<path fill="none" stroke="#000000" d="M442.1598,-296.8184C493.768,-286.9653 576.7326,-270.2508 647.5,-252 648.9583,-251.6239 650.4343,-251.2348 651.9219,-250.8353"/>
<polygon fill="#000000" stroke="#000000" points="653.1437,-254.1284 661.8384,-248.0743 651.2661,-247.3849 653.1437,-254.1284"/>
</g>
<!-- base&#45;runtime&#45;&gt;nss&#45;sysinit -->
<g id="edge27" class="edge">
<title>base&#45;runtime&#45;&gt;nss&#45;sysinit</title>
<path fill="none" stroke="#000000" d="M392.5,-287.8314C392.5,-280.131 392.5,-270.9743 392.5,-262.4166"/>
<polygon fill="#000000" stroke="#000000" points="396.0001,-262.4132 392.5,-252.4133 389.0001,-262.4133 396.0001,-262.4132"/>
</g>
<!-- base&#45;runtime&#45;&gt;p11&#45;kit&#45;trust -->
<g id="edge23" class="edge">
<title>base&#45;runtime&#45;&gt;p11&#45;kit&#45;trust</title>
<path fill="none" stroke="#000000" d="M404.6461,-288.2022C415.1839,-279.0121 430.1424,-267.6744 444.7268,-257.7478"/>
<polygon fill="#000000" stroke="#000000" points="446.8437,-260.5434 453.2345,-252.0931 442.9689,-254.7137 446.8437,-260.5434"/>
</g>
<!-- base&#45;runtime&#45;&gt;p11&#45;kit&#45;trust -->
<g id="edge24" class="edge">
<title>base&#45;runtime&#45;&gt;p11&#45;kit&#45;trust</title>
<path fill="none" stroke="#000000" d="M414.9976,-289.3008C427.4186,-280.081 443.0701,-268.4634 456.8176,-258.2591"/>
<polygon fill="#000000" stroke="#000000" points="459.1418,-260.8928 465.0854,-252.1222 454.9696,-255.272 459.1418,-260.8928"/>
</g>
<!-- base&#45;runtime&#45;&gt;p11&#45;kit&#45;trust -->
<g id="edge25" class="edge">
<title>base&#45;runtime&#45;&gt;p11&#45;kit&#45;trust</title>
<path fill="none" stroke="#000000" d="M424.0633,-290.9064C438.9757,-281.5498 456.0153,-269.3097 469.263,-258.5796"/>
<polygon fill="#000000" stroke="#000000" points="471.5446,-261.2342 476.9686,-252.133 467.0529,-255.8653 471.5446,-261.2342"/>
</g>
<!-- shared&#45;userspace -->
<g id="node25" class="node">
<title>shared&#45;userspace</title>
<ellipse fill="none" stroke="#000000" cx="1765.5" cy="-306" rx="70.6878" ry="18"/>
<text text-anchor="middle" x="1765.5" y="-302.3" font-family="Times,serif" font-size="14.00" fill="#000000">shared&#45;userspace</text>
</g>
<!-- common&#45;build&#45;dependencies -->
<g id="node26" class="node">
<title>common&#45;build&#45;dependencies</title>
<ellipse fill="none" stroke="#000000" cx="1968.5" cy="-306" rx="113.9803" ry="18"/>
<text text-anchor="middle" x="1968.5" y="-302.3" font-family="Times,serif" font-size="14.00" fill="#000000">common&#45;build&#45;dependencies</text>
</g>
</g>
</svg>
