<?xml version="1.0" encoding="UTF-8" standalone="no"?>
<!DOCTYPE svg PUBLIC "-//W3C//DTD SVG 1.1//EN"
 "http://www.w3.org/Graphics/SVG/1.1/DTD/svg11.dtd">
<!-- Generated by graphviz version 2.40.1 (20161225.0304)
 -->
<!-- Title: G Pages: 1 -->
<svg width="693pt" height="260pt"
 viewBox="0.00 0.00 692.50 260.00" xmlns="http://www.w3.org/2000/svg" xmlns:xlink="http://www.w3.org/1999/xlink">
<g id="graph0" class="graph" transform="scale(1 1) rotate(0) translate(4 256)">
<title>G</title>
<polygon fill="#ffffff" stroke="transparent" points="-4,4 -4,-256 688.5,-256 688.5,4 -4,4"/>
<!-- postgresql&#45;libs -->
<g id="node1" class="node">
<title>postgresql&#45;libs</title>
<text text-anchor="middle" x="448.5" y="-158.3" font-family="Times,serif" font-size="14.00" fill="#000000">postgresql&#45;libs</text>
</g>
<!-- postgresql -->
<g id="node3" class="node">
<title>postgresql</title>
<ellipse fill="none" stroke="#000000" cx="443.5" cy="-90" rx="46.5926" ry="18"/>
<text text-anchor="middle" x="443.5" y="-86.3" font-family="Times,serif" font-size="14.00" fill="#000000">postgresql</text>
</g>
<!-- postgresql&#45;libs&#45;&gt;postgresql -->
<g id="edge1" class="edge">
<title>postgresql&#45;libs&#45;&gt;postgresql</title>
<path fill="none" stroke="#000000" d="M447.2383,-143.8314C446.7035,-136.131 446.0677,-126.9743 445.4734,-118.4166"/>
<polygon fill="#000000" stroke="#000000" points="448.9632,-118.1467 444.7787,-108.4133 441.98,-118.6317 448.9632,-118.1467"/>
</g>
<!-- base&#45;runtime -->
<g id="node2" class="node">
<title>base&#45;runtime</title>
<polygon fill="none" stroke="#000000" points="445.5,-252 357.5,-252 357.5,-216 445.5,-216 445.5,-252"/>
<text text-anchor="middle" x="401.5" y="-230.3" font-family="Times,serif" font-size="14.00" fill="#000000">base&#45;runtime</text>
</g>
<!-- base&#45;runtime&#45;&gt;postgresql&#45;libs -->
<g id="edge3" class="edge">
<title>base&#45;runtime&#45;&gt;postgresql&#45;libs</title>
<path fill="none" stroke="#000000" d="M413.3601,-215.8314C418.6629,-207.7079 425.0237,-197.9637 430.8673,-189.0118"/>
<polygon fill="#000000" stroke="#000000" points="433.9448,-190.7003 436.4802,-180.4133 428.0831,-186.8739 433.9448,-190.7003"/>
</g>
<!-- base&#45;runtime&#45;&gt;base&#45;runtime -->
<g id="edge2" class="edge">
<title>base&#45;runtime&#45;&gt;base&#45;runtime</title>
<path fill="none" stroke="#000000" d="M445.5244,-240.6165C455.8686,-240.0727 463.5,-237.8672 463.5,-234 463.5,-231.583 460.519,-229.8151 455.7578,-228.6963"/>
<polygon fill="#000000" stroke="#000000" points="455.8885,-225.1845 445.5244,-227.3835 454.9977,-232.1276 455.8885,-225.1845"/>
</g>
<!-- base&#45;runtime&#45;&gt;base&#45;runtime -->
<g id="edge14" class="edge">
<title>base&#45;runtime&#45;&gt;base&#45;runtime</title>
<path fill="none" stroke="#000000" d="M445.5194,-247.3146C464.8586,-248.4929 481.5,-244.0547 481.5,-234 481.5,-225.752 470.3018,-221.2834 455.6022,-220.5943"/>
<polygon fill="#000000" stroke="#000000" points="455.4873,-217.0951 445.5194,-220.6854 455.5507,-224.0948 455.4873,-217.0951"/>
</g>
<!-- base&#45;runtime&#45;&gt;postgresql -->
<g id="edge4" class="edge">
<title>base&#45;runtime&#45;&gt;postgresql</title>
<path fill="none" stroke="#000000" d="M445.7568,-222.8338C467.7917,-214.7954 492.4544,-201.4731 505.5,-180 513.8076,-166.3258 512.1281,-158.5626 505.5,-144 499.6099,-131.059 488.9168,-120.0131 478.0501,-111.3469"/>
<polygon fill="#000000" stroke="#000000" points="479.8943,-108.3564 469.7831,-105.1916 475.7138,-113.971 479.8943,-108.3564"/>
</g>
<!-- httpd -->
<g id="node4" class="node">
<title>httpd</title>
<polygon fill="none" stroke="#000000" points="298.5,-108 244.5,-108 244.5,-72 298.5,-72 298.5,-108"/>
<text text-anchor="middle" x="271.5" y="-86.3" font-family="Times,serif" font-size="14.00" fill="#000000">httpd</text>
</g>
<!-- base&#45;runtime&#45;&gt;httpd -->
<g id="edge19" class="edge">
<title>base&#45;runtime&#45;&gt;httpd</title>
<path fill="none" stroke="#000000" d="M365.8841,-215.8432C350.2841,-206.6396 332.5914,-194.3605 319.5,-180 302.8389,-161.7238 290.0711,-136.6036 281.9072,-117.5458"/>
<polygon fill="#000000" stroke="#000000" points="285.1037,-116.1163 278.0614,-108.2007 278.6305,-118.7803 285.1037,-116.1163"/>
</g>
<!-- httpd&#45;filesystem -->
<g id="node5" class="node">
<title>httpd&#45;filesystem</title>
<text text-anchor="middle" x="560.5" y="-86.3" font-family="Times,serif" font-size="14.00" fill="#000000">httpd&#45;filesystem</text>
</g>
<!-- base&#45;runtime&#45;&gt;httpd&#45;filesystem -->
<g id="edge16" class="edge">
<title>base&#45;runtime&#45;&gt;httpd&#45;filesystem</title>
<path fill="none" stroke="#000000" d="M445.5186,-222.8093C470.4979,-214.5316 500.8069,-200.9838 521.5,-180 538.3248,-162.9389 548.4366,-137.4425 554.132,-117.9383"/>
<polygon fill="#000000" stroke="#000000" points="557.5642,-118.653 556.7881,-108.0866 550.8056,-116.8307 557.5642,-118.653"/>
</g>
<!-- php&#45;cli -->
<g id="node6" class="node">
<title>php&#45;cli</title>
<text text-anchor="middle" x="54.5" y="-158.3" font-family="Times,serif" font-size="14.00" fill="#000000">php&#45;cli</text>
</g>
<!-- base&#45;runtime&#45;&gt;php&#45;cli -->
<g id="edge20" class="edge">
<title>base&#45;runtime&#45;&gt;php&#45;cli</title>
<path fill="none" stroke="#000000" d="M357.3296,-229.406C297.3415,-222.4417 187.1902,-207.0693 96.5,-180 94.8799,-179.5164 93.2384,-178.9886 91.5904,-178.4273"/>
<polygon fill="#000000" stroke="#000000" points="92.7756,-175.1339 82.1829,-174.9204 90.3305,-181.693 92.7756,-175.1339"/>
</g>
<!-- php&#45;common -->
<g id="node7" class="node">
<title>php&#45;common</title>
<text text-anchor="middle" x="639.5" y="-158.3" font-family="Times,serif" font-size="14.00" fill="#000000">php&#45;common</text>
</g>
<!-- base&#45;runtime&#45;&gt;php&#45;common -->
<g id="edge18" class="edge">
<title>base&#45;runtime&#45;&gt;php&#45;common</title>
<path fill="none" stroke="#000000" d="M445.7082,-220.6261C484.9106,-208.7665 542.3243,-191.3977 584.4863,-178.6428"/>
<polygon fill="#000000" stroke="#000000" points="585.7571,-181.9151 594.3152,-175.6694 583.7301,-175.215 585.7571,-181.9151"/>
</g>
<!-- apr -->
<g id="node8" class="node">
<title>apr</title>
<text text-anchor="middle" x="355.5" y="-158.3" font-family="Times,serif" font-size="14.00" fill="#000000">apr</text>
</g>
<!-- base&#45;runtime&#45;&gt;apr -->
<g id="edge15" class="edge">
<title>base&#45;runtime&#45;&gt;apr</title>
<path fill="none" stroke="#000000" d="M389.8923,-215.8314C384.7022,-207.7079 378.4768,-197.9637 372.7575,-189.0118"/>
<polygon fill="#000000" stroke="#000000" points="375.5974,-186.9559 367.264,-180.4133 369.6985,-190.7246 375.5974,-186.9559"/>
</g>
<!-- php -->
<g id="node13" class="node">
<title>php</title>
<ellipse fill="none" stroke="#000000" cx="271.5" cy="-18" rx="27" ry="18"/>
<text text-anchor="middle" x="271.5" y="-14.3" font-family="Times,serif" font-size="14.00" fill="#000000">php</text>
</g>
<!-- base&#45;runtime&#45;&gt;php -->
<g id="edge17" class="edge">
<title>base&#45;runtime&#45;&gt;php</title>
<path fill="none" stroke="#000000" d="M357.4229,-231.8218C287.9219,-227.3619 157.8342,-214.5123 129.5,-180 84.0713,-124.6657 185.9798,-61.5039 240.2817,-33.1603"/>
<polygon fill="#000000" stroke="#000000" points="241.8843,-36.2719 249.1903,-28.599 238.694,-30.0412 241.8843,-36.2719"/>
</g>
<!-- httpd&#45;&gt;httpd -->
<g id="edge6" class="edge">
<title>httpd&#45;&gt;httpd</title>
<path fill="none" stroke="#000000" d="M298.7408,-103.4868C308.5239,-103.7769 316.5,-99.2813 316.5,-90 316.5,-84.1992 313.3843,-80.2678 308.6591,-78.2058"/>
<polygon fill="#000000" stroke="#000000" points="309.1871,-74.7454 298.7408,-76.5132 308.0094,-81.6456 309.1871,-74.7454"/>
</g>
<!-- httpd&#45;&gt;php -->
<g id="edge5" class="edge">
<title>httpd&#45;&gt;php</title>
<path fill="none" stroke="#000000" d="M271.5,-71.8314C271.5,-64.131 271.5,-54.9743 271.5,-46.4166"/>
<polygon fill="#000000" stroke="#000000" points="275.0001,-46.4132 271.5,-36.4133 268.0001,-46.4133 275.0001,-46.4132"/>
</g>
<!-- httpd&#45;filesystem&#45;&gt;php -->
<g id="edge7" class="edge">
<title>httpd&#45;filesystem&#45;&gt;php</title>
<path fill="none" stroke="#000000" d="M507.9786,-74.3048C505.1147,-73.5106 502.2745,-72.7373 499.5,-72 431.843,-54.02 352.1139,-35.8106 307.1186,-25.8057"/>
<polygon fill="#000000" stroke="#000000" points="307.7787,-22.3671 297.2583,-23.621 306.2644,-29.2014 307.7787,-22.3671"/>
</g>
<!-- php&#45;cli&#45;&gt;php -->
<g id="edge8" class="edge">
<title>php&#45;cli&#45;&gt;php</title>
<path fill="none" stroke="#000000" d="M58.3273,-143.789C63.5314,-123.4525 74.7897,-90.9164 96.5,-72 135.5038,-38.0157 195.6178,-25.4169 234.2535,-20.7476"/>
<polygon fill="#000000" stroke="#000000" points="234.9822,-24.1892 244.5458,-19.6298 234.2263,-17.2301 234.9822,-24.1892"/>
</g>
<!-- php&#45;common&#45;&gt;php -->
<g id="edge9" class="edge">
<title>php&#45;common&#45;&gt;php</title>
<path fill="none" stroke="#000000" d="M641.664,-143.9884C643.0272,-123.5236 641.7085,-90.5656 622.5,-72 600.0778,-50.3284 393.8807,-29.1847 308.3796,-21.2694"/>
<polygon fill="#000000" stroke="#000000" points="308.6108,-17.7761 298.3331,-20.349 307.9721,-24.7469 308.6108,-17.7761"/>
</g>
<!-- apr&#45;&gt;httpd -->
<g id="edge10" class="edge">
<title>apr&#45;&gt;httpd</title>
<path fill="none" stroke="#000000" d="M334.3033,-143.8314C324.0566,-135.0485 311.5997,-124.3712 300.4903,-114.8489"/>
<polygon fill="#000000" stroke="#000000" points="302.5603,-112.0134 292.69,-108.1628 298.0048,-117.3282 302.5603,-112.0134"/>
</g>
<!-- apr&#45;util -->
<g id="node9" class="node">
<title>apr&#45;util</title>
<text text-anchor="middle" x="166.5" y="-158.3" font-family="Times,serif" font-size="14.00" fill="#000000">apr&#45;util</text>
</g>
<!-- apr&#45;util&#45;&gt;httpd -->
<g id="edge11" class="edge">
<title>apr&#45;util&#45;&gt;httpd</title>
<path fill="none" stroke="#000000" d="M192.9959,-143.8314C206.1774,-134.7927 222.2847,-123.7476 236.4711,-114.0198"/>
<polygon fill="#000000" stroke="#000000" points="238.7446,-116.7047 245.0125,-108.1628 234.7859,-110.9316 238.7446,-116.7047"/>
</g>
<!-- mailcap -->
<g id="node10" class="node">
<title>mailcap</title>
<text text-anchor="middle" x="242.5" y="-158.3" font-family="Times,serif" font-size="14.00" fill="#000000">mailcap</text>
</g>
<!-- mailcap&#45;&gt;httpd -->
<g id="edge12" class="edge">
<title>mailcap&#45;&gt;httpd</title>
<path fill="none" stroke="#000000" d="M249.8179,-143.8314C252.9876,-135.9617 256.77,-126.5712 260.2813,-117.8533"/>
<polygon fill="#000000" stroke="#000000" points="263.5939,-118.9968 264.0835,-108.4133 257.1008,-116.3815 263.5939,-118.9968"/>
</g>
<!-- php&#45;json -->
<g id="node11" class="node">
<title>php&#45;json</title>
<text text-anchor="middle" x="639.5" y="-230.3" font-family="Times,serif" font-size="14.00" fill="#000000">php&#45;json</text>
</g>
<!-- php&#45;json&#45;&gt;php&#45;common -->
<g id="edge13" class="edge">
<title>php&#45;json&#45;&gt;php&#45;common</title>
<path fill="none" stroke="#000000" d="M639.5,-215.8314C639.5,-208.131 639.5,-198.9743 639.5,-190.4166"/>
<polygon fill="#000000" stroke="#000000" points="643.0001,-190.4132 639.5,-180.4133 636.0001,-190.4133 643.0001,-190.4132"/>
</g>
<!-- shared&#45;userspace -->
<g id="node12" class="node">
<title>shared&#45;userspace</title>
<polygon fill="none" stroke="#000000" points="109,-252 0,-252 0,-216 109,-216 109,-252"/>
<text text-anchor="middle" x="54.5" y="-230.3" font-family="Times,serif" font-size="14.00" fill="#000000">shared&#45;userspace</text>
</g>
<!-- shared&#45;userspace&#45;&gt;php&#45;cli -->
<g id="edge21" class="edge">
<title>shared&#45;userspace&#45;&gt;php&#45;cli</title>
<path fill="none" stroke="#000000" d="M54.5,-215.8314C54.5,-208.131 54.5,-198.9743 54.5,-190.4166"/>
<polygon fill="#000000" stroke="#000000" points="58.0001,-190.4132 54.5,-180.4133 51.0001,-190.4133 58.0001,-190.4132"/>
</g>
</g>
</svg>
