<?xml version="1.0" encoding="UTF-8" standalone="no"?>
<!DOCTYPE svg PUBLIC "-//W3C//DTD SVG 1.1//EN"
 "http://www.w3.org/Graphics/SVG/1.1/DTD/svg11.dtd">
<!-- Generated by graphviz version 2.40.1 (20161225.0304)
 -->
<!-- Title: G Pages: 1 -->
<svg width="1230pt" height="279pt"
 viewBox="0.00 0.00 1229.92 279.00" xmlns="http://www.w3.org/2000/svg" xmlns:xlink="http://www.w3.org/1999/xlink">
<g id="graph0" class="graph" transform="scale(1 1) rotate(0) translate(4 275)">
<title>G</title>
<polygon fill="#ffffff" stroke="transparent" points="-4,4 -4,-275 1225.9247,-275 1225.9247,4 -4,4"/>
<g id="clust1" class="cluster">
<title>cluster_php</title>
<polygon fill="#d3d3d3" stroke="#d3d3d3" points="638,-8 638,-227 941,-227 941,-8 638,-8"/>
<text text-anchor="middle" x="789.5" y="-211.8" font-family="Arial Bold" font-size="14.00" fill="#000000">proposed for php</text>
</g>
<g id="clust2" class="cluster">
<title>cluster_postgresql</title>
<polygon fill="#d3d3d3" stroke="#d3d3d3" points="8,-80 8,-227 192,-227 192,-80 8,-80"/>
<text text-anchor="middle" x="100" y="-211.8" font-family="Arial Bold" font-size="14.00" fill="#000000">proposed for postgresql</text>
</g>
<g id="clust3" class="cluster">
<title>cluster_nginx</title>
<polygon fill="#d3d3d3" stroke="#d3d3d3" points="216,-80 216,-227 472,-227 472,-80 216,-80"/>
<text text-anchor="middle" x="344" y="-211.8" font-family="Arial Bold" font-size="14.00" fill="#000000">proposed for nginx</text>
</g>
<!-- httpd -->
<g id="node1" class="node">
<title>httpd</title>
<polygon fill="none" stroke="#000000" points="1041,-124 987,-124 987,-88 1041,-88 1041,-124"/>
<text text-anchor="middle" x="1014" y="-102.3" font-family="Times,serif" font-size="14.00" fill="#000000">httpd</text>
</g>
<!-- httpd&#45;&gt;httpd -->
<g id="edge2" class="edge">
<title>httpd&#45;&gt;httpd</title>
<path fill="none" stroke="#000000" d="M1041.2408,-119.4868C1051.0239,-119.7769 1059,-115.2813 1059,-106 1059,-100.1992 1055.8843,-96.2678 1051.1591,-94.2058"/>
<polygon fill="#000000" stroke="#000000" points="1051.6871,-90.7454 1041.2408,-92.5132 1050.5094,-97.6456 1051.6871,-90.7454"/>
</g>
<!-- php -->
<g id="node8" class="node">
<title>php</title>
<ellipse fill="none" stroke="#000000" cx="888" cy="-34" rx="27" ry="18"/>
<text text-anchor="middle" x="888" y="-30.3" font-family="Times,serif" font-size="14.00" fill="#000000">php</text>
</g>
<!-- httpd&#45;&gt;php -->
<g id="edge1" class="edge">
<title>httpd&#45;&gt;php</title>
<path fill="none" stroke="#000000" d="M986.9698,-90.5542C966.5613,-78.8922 938.5794,-62.9025 917.5749,-50.8999"/>
<polygon fill="#000000" stroke="#000000" points="919.1745,-47.7829 908.7556,-45.8603 915.7015,-53.8606 919.1745,-47.7829"/>
</g>
<!-- apr -->
<g id="node2" class="node">
<title>apr</title>
<text text-anchor="middle" x="1014" y="-174.3" font-family="Times,serif" font-size="14.00" fill="#000000">apr</text>
</g>
<!-- apr&#45;&gt;httpd -->
<g id="edge6" class="edge">
<title>apr&#45;&gt;httpd</title>
<path fill="none" stroke="#000000" d="M1014,-159.8314C1014,-152.131 1014,-142.9743 1014,-134.4166"/>
<polygon fill="#000000" stroke="#000000" points="1017.5001,-134.4132 1014,-124.4133 1010.5001,-134.4133 1017.5001,-134.4132"/>
</g>
<!-- apr&#45;util -->
<g id="node3" class="node">
<title>apr&#45;util</title>
<text text-anchor="middle" x="1087" y="-174.3" font-family="Times,serif" font-size="14.00" fill="#000000">apr&#45;util</text>
</g>
<!-- apr&#45;util&#45;&gt;httpd -->
<g id="edge7" class="edge">
<title>apr&#45;util&#45;&gt;httpd</title>
<path fill="none" stroke="#000000" d="M1068.579,-159.8314C1059.8471,-151.219 1049.2683,-140.7851 1039.7577,-131.4048"/>
<polygon fill="#000000" stroke="#000000" points="1041.9925,-128.6931 1032.4151,-124.1628 1037.077,-133.6769 1041.9925,-128.6931"/>
</g>
<!-- mailcap -->
<g id="node4" class="node">
<title>mailcap</title>
<text text-anchor="middle" x="1163" y="-174.3" font-family="Times,serif" font-size="14.00" fill="#000000">mailcap</text>
</g>
<!-- mailcap&#45;&gt;httpd -->
<g id="edge8" class="edge">
<title>mailcap&#45;&gt;httpd</title>
<path fill="none" stroke="#000000" d="M1132.8476,-163.4297C1109.0204,-151.9159 1075.6775,-135.8039 1050.3706,-123.5751"/>
<polygon fill="#000000" stroke="#000000" points="1051.6283,-120.2956 1041.1016,-119.0961 1048.5826,-126.5984 1051.6283,-120.2956"/>
</g>
<!-- base&#45;runtime -->
<g id="node5" class="node">
<title>base&#45;runtime</title>
<polygon fill="none" stroke="#000000" points="718,-271 630,-271 630,-235 718,-235 718,-271"/>
<text text-anchor="middle" x="674" y="-249.3" font-family="Times,serif" font-size="14.00" fill="#000000">base&#45;runtime</text>
</g>
<!-- base&#45;runtime&#45;&gt;httpd -->
<g id="edge13" class="edge">
<title>base&#45;runtime&#45;&gt;httpd</title>
<path fill="none" stroke="#000000" d="M718.2836,-236.9176C721.2099,-236.179 724.1329,-235.5278 727,-235 750.838,-230.6119 924.658,-240.1799 945,-227 972.8576,-208.9506 961.4252,-188.7594 978,-160 983.2614,-150.8709 989.4827,-141.2056 995.2606,-132.6141"/>
<polygon fill="#000000" stroke="#000000" points="998.3139,-134.3492 1001.0623,-124.117 992.5329,-130.4019 998.3139,-134.3492"/>
</g>
<!-- base&#45;runtime&#45;&gt;apr -->
<g id="edge14" class="edge">
<title>base&#45;runtime&#45;&gt;apr</title>
<path fill="none" stroke="#000000" d="M718.281,-236.9036C721.208,-236.1685 724.1318,-235.5218 727,-235 753.9062,-230.1052 948.4139,-238.9761 973,-227 983.1262,-222.0674 991.6701,-213.3381 998.2937,-204.6003"/>
<polygon fill="#000000" stroke="#000000" points="1001.201,-206.5499 1004.0447,-196.3438 995.4571,-202.549 1001.201,-206.5499"/>
</g>
<!-- shared&#45;userspace -->
<g id="node7" class="node">
<title>shared&#45;userspace</title>
<polygon fill="none" stroke="#000000" points="629.5,-196 520.5,-196 520.5,-160 629.5,-160 629.5,-196"/>
<text text-anchor="middle" x="575" y="-174.3" font-family="Times,serif" font-size="14.00" fill="#000000">shared&#45;userspace</text>
</g>
<!-- base&#45;runtime&#45;&gt;shared&#45;userspace -->
<g id="edge23" class="edge">
<title>base&#45;runtime&#45;&gt;shared&#45;userspace</title>
<path fill="none" stroke="#000000" d="M645.3156,-234.9361C641.4634,-232.3421 637.6015,-229.652 634,-227 623.6971,-219.4132 612.8159,-210.618 603.2421,-202.5905"/>
<polygon fill="#000000" stroke="#000000" points="605.441,-199.8662 595.5491,-196.0714 600.9155,-205.2066 605.441,-199.8662"/>
</g>
<!-- base&#45;runtime&#45;&gt;php -->
<g id="edge11" class="edge">
<title>base&#45;runtime&#45;&gt;php</title>
<path fill="none" stroke="#000000" d="M718.2717,-236.8511C721.2009,-236.1288 724.1278,-235.4993 727,-235 740.0013,-232.7398 1192.7477,-236.4094 1202,-227 1296.1353,-131.2659 1025.0175,-62.8092 924.1501,-41.2283"/>
<polygon fill="#000000" stroke="#000000" points="924.6111,-37.7487 914.1046,-39.1141 923.1694,-44.5987 924.6111,-37.7487"/>
</g>
<!-- httpd&#45;filesystem -->
<g id="node9" class="node">
<title>httpd&#45;filesystem</title>
<text text-anchor="middle" x="772" y="-102.3" font-family="Times,serif" font-size="14.00" fill="#000000">httpd&#45;filesystem</text>
</g>
<!-- base&#45;runtime&#45;&gt;httpd&#45;filesystem -->
<g id="edge10" class="edge">
<title>base&#45;runtime&#45;&gt;httpd&#45;filesystem</title>
<path fill="none" stroke="#000000" d="M686.0167,-234.9749C703.0622,-209.4066 734.3829,-162.4257 754.1499,-132.7751"/>
<polygon fill="#000000" stroke="#000000" points="757.2501,-134.4345 759.885,-124.1725 751.4258,-130.5516 757.2501,-134.4345"/>
</g>
<!-- php&#45;cli -->
<g id="node10" class="node">
<title>php&#45;cli</title>
<text text-anchor="middle" x="674" y="-102.3" font-family="Times,serif" font-size="14.00" fill="#000000">php&#45;cli</text>
</g>
<!-- base&#45;runtime&#45;&gt;php&#45;cli -->
<g id="edge15" class="edge">
<title>base&#45;runtime&#45;&gt;php&#45;cli</title>
<path fill="none" stroke="#000000" d="M674,-234.9749C674,-209.8475 674,-164.0393 674,-134.324"/>
<polygon fill="#000000" stroke="#000000" points="677.5001,-134.1725 674,-124.1725 670.5001,-134.1726 677.5001,-134.1725"/>
</g>
<!-- php&#45;common -->
<g id="node11" class="node">
<title>php&#45;common</title>
<text text-anchor="middle" x="888" y="-102.3" font-family="Times,serif" font-size="14.00" fill="#000000">php&#45;common</text>
</g>
<!-- base&#45;runtime&#45;&gt;php&#45;common -->
<g id="edge12" class="edge">
<title>base&#45;runtime&#45;&gt;php&#45;common</title>
<path fill="none" stroke="#000000" d="M713.999,-234.8541C718.7937,-232.3547 723.5596,-229.7109 728,-227 776.4338,-197.4311 828.0306,-156.4841 859.1431,-130.6215"/>
<polygon fill="#000000" stroke="#000000" points="861.5521,-133.1695 866.9762,-124.0684 857.0605,-127.8005 861.5521,-133.1695"/>
</g>
<!-- postgresql&#45;libs -->
<g id="node13" class="node">
<title>postgresql&#45;libs</title>
<text text-anchor="middle" x="120" y="-174.3" font-family="Times,serif" font-size="14.00" fill="#000000">postgresql&#45;libs</text>
</g>
<!-- base&#45;runtime&#45;&gt;postgresql&#45;libs -->
<g id="edge18" class="edge">
<title>base&#45;runtime&#45;&gt;postgresql&#45;libs</title>
<path fill="none" stroke="#000000" d="M629.7431,-252.1917C516.6803,-249.9102 223.2147,-242.5512 182,-227 168.1909,-221.7895 155.0391,-212.3053 144.4307,-203.0593"/>
<polygon fill="#000000" stroke="#000000" points="146.5832,-200.2845 136.8455,-196.11 141.8546,-205.4459 146.5832,-200.2845"/>
</g>
<!-- postgresql -->
<g id="node14" class="node">
<title>postgresql</title>
<ellipse fill="none" stroke="#000000" cx="128" cy="-106" rx="46.5926" ry="18"/>
<text text-anchor="middle" x="128" y="-102.3" font-family="Times,serif" font-size="14.00" fill="#000000">postgresql</text>
</g>
<!-- base&#45;runtime&#45;&gt;postgresql -->
<g id="edge19" class="edge">
<title>base&#45;runtime&#45;&gt;postgresql</title>
<path fill="none" stroke="#000000" d="M629.5934,-251.6824C517.2459,-248.1909 229.3633,-238.1983 212,-227 183.7665,-208.7912 196.2225,-187.5533 177,-160 169.8292,-149.7214 160.8765,-139.3169 152.5926,-130.421"/>
<polygon fill="#000000" stroke="#000000" points="154.9809,-127.854 145.5465,-123.0329 149.9153,-132.6851 154.9809,-127.854"/>
</g>
<!-- nginx&#45;filesystem -->
<g id="node15" class="node">
<title>nginx&#45;filesystem</title>
<text text-anchor="middle" x="278" y="-174.3" font-family="Times,serif" font-size="14.00" fill="#000000">nginx&#45;filesystem</text>
</g>
<!-- base&#45;runtime&#45;&gt;nginx&#45;filesystem -->
<g id="edge22" class="edge">
<title>base&#45;runtime&#45;&gt;nginx&#45;filesystem</title>
<path fill="none" stroke="#000000" d="M629.806,-250.9666C545.3969,-246.8759 367.2602,-237.1697 341,-227 327.2026,-221.6567 313.9543,-212.2457 303.1977,-203.0901"/>
<polygon fill="#000000" stroke="#000000" points="305.2809,-200.258 295.4899,-196.21 300.6195,-205.4803 305.2809,-200.258"/>
</g>
<!-- nginx -->
<g id="node16" class="node">
<title>nginx</title>
<ellipse fill="none" stroke="#000000" cx="420" cy="-106" rx="30.5947" ry="18"/>
<text text-anchor="middle" x="420" y="-102.3" font-family="Times,serif" font-size="14.00" fill="#000000">nginx</text>
</g>
<!-- base&#45;runtime&#45;&gt;nginx -->
<g id="edge24" class="edge">
<title>base&#45;runtime&#45;&gt;nginx</title>
<path fill="none" stroke="#000000" d="M629.622,-250.1782C588.1184,-246.7909 529.7909,-239.8807 511,-227 482.5807,-207.5192 492.765,-187.495 472,-160 463.5827,-148.8546 453.0848,-137.5644 443.7298,-128.2093"/>
<polygon fill="#000000" stroke="#000000" points="446.1271,-125.6581 436.5339,-121.1612 441.229,-130.659 446.1271,-125.6581"/>
</g>
<!-- common&#45;build&#45;dependencies -->
<g id="node6" class="node">
<title>common&#45;build&#45;dependencies</title>
<polygon fill="none" stroke="#000000" points="911.5,-271 736.5,-271 736.5,-235 911.5,-235 911.5,-271"/>
<text text-anchor="middle" x="824" y="-249.3" font-family="Times,serif" font-size="14.00" fill="#000000">common&#45;build&#45;dependencies</text>
</g>
<!-- shared&#45;userspace&#45;&gt;php&#45;cli -->
<g id="edge16" class="edge">
<title>shared&#45;userspace&#45;&gt;php&#45;cli</title>
<path fill="none" stroke="#000000" d="M599.9819,-159.8314C612.2928,-150.8779 627.3107,-139.9558 640.5937,-130.2955"/>
<polygon fill="#000000" stroke="#000000" points="642.9973,-132.8752 649.0261,-124.1628 638.8801,-127.214 642.9973,-132.8752"/>
</g>
<!-- shared&#45;userspace&#45;&gt;nginx -->
<g id="edge25" class="edge">
<title>shared&#45;userspace&#45;&gt;nginx</title>
<path fill="none" stroke="#000000" d="M535.887,-159.8314C510.3933,-147.9891 477.4855,-132.7029 453.2548,-121.4474"/>
<polygon fill="#000000" stroke="#000000" points="454.6456,-118.2343 444.1018,-117.1957 451.6966,-124.5828 454.6456,-118.2343"/>
</g>
<!-- httpd&#45;filesystem&#45;&gt;php -->
<g id="edge3" class="edge">
<title>httpd&#45;filesystem&#45;&gt;php</title>
<path fill="none" stroke="#000000" d="M801.2717,-87.8314C819.1039,-76.7631 841.7832,-62.6863 859.4773,-51.7038"/>
<polygon fill="#000000" stroke="#000000" points="861.573,-54.5224 868.2236,-46.275 857.8814,-48.5749 861.573,-54.5224"/>
</g>
<!-- php&#45;cli&#45;&gt;php -->
<g id="edge4" class="edge">
<title>php&#45;cli&#45;&gt;php</title>
<path fill="none" stroke="#000000" d="M696.4447,-87.8688C700.771,-84.9397 705.3946,-82.1636 710,-80 756.1449,-58.3215 814.004,-45.7871 850.994,-39.4257"/>
<polygon fill="#000000" stroke="#000000" points="852.0121,-42.8049 861.3067,-37.7194 850.8694,-35.8988 852.0121,-42.8049"/>
</g>
<!-- php&#45;common&#45;&gt;php -->
<g id="edge5" class="edge">
<title>php&#45;common&#45;&gt;php</title>
<path fill="none" stroke="#000000" d="M888,-87.8314C888,-80.131 888,-70.9743 888,-62.4166"/>
<polygon fill="#000000" stroke="#000000" points="891.5001,-62.4132 888,-52.4133 884.5001,-62.4133 891.5001,-62.4132"/>
</g>
<!-- php&#45;json -->
<g id="node12" class="node">
<title>php&#45;json</title>
<text text-anchor="middle" x="888" y="-174.3" font-family="Times,serif" font-size="14.00" fill="#000000">php&#45;json</text>
</g>
<!-- php&#45;json&#45;&gt;php&#45;common -->
<g id="edge9" class="edge">
<title>php&#45;json&#45;&gt;php&#45;common</title>
<path fill="none" stroke="#000000" d="M888,-159.8314C888,-152.131 888,-142.9743 888,-134.4166"/>
<polygon fill="#000000" stroke="#000000" points="891.5001,-134.4132 888,-124.4133 884.5001,-134.4133 891.5001,-134.4132"/>
</g>
<!-- postgresql&#45;libs&#45;&gt;postgresql -->
<g id="edge17" class="edge">
<title>postgresql&#45;libs&#45;&gt;postgresql</title>
<path fill="none" stroke="#000000" d="M122.0187,-159.8314C122.8743,-152.131 123.8917,-142.9743 124.8426,-134.4166"/>
<polygon fill="#000000" stroke="#000000" points="128.3283,-134.7386 125.9541,-124.4133 121.3711,-133.9656 128.3283,-134.7386"/>
</g>
<!-- nginx&#45;filesystem&#45;&gt;nginx -->
<g id="edge20" class="edge">
<title>nginx&#45;filesystem&#45;&gt;nginx</title>
<path fill="none" stroke="#000000" d="M313.8326,-159.8314C336.5501,-148.3126 365.6938,-133.5355 387.6975,-122.3787"/>
<polygon fill="#000000" stroke="#000000" points="389.3148,-125.4829 396.651,-117.8389 386.1492,-119.2396 389.3148,-125.4829"/>
</g>
<!-- nginx&#45;mimetypes -->
<g id="node17" class="node">
<title>nginx&#45;mimetypes</title>
<text text-anchor="middle" x="407" y="-174.3" font-family="Times,serif" font-size="14.00" fill="#000000">nginx&#45;mimetypes</text>
</g>
<!-- nginx&#45;mimetypes&#45;&gt;nginx -->
<g id="edge21" class="edge">
<title>nginx&#45;mimetypes&#45;&gt;nginx</title>
<path fill="none" stroke="#000000" d="M410.2804,-159.8314C411.6922,-152.0125 413.375,-142.6923 414.9405,-134.0221"/>
<polygon fill="#000000" stroke="#000000" points="418.433,-134.3762 416.7656,-123.9134 411.5444,-133.1324 418.433,-134.3762"/>
</g>
</g>
</svg>
